<?xml version="1.0" encoding="utf-8"?><svg xmlns="http://www.w3.org/2000/svg" xmlns:xlink="http://www.w3.org/1999/xlink"><symbol viewBox="0 0 9 20" id="fb" xmlns="http://www.w3.org/2000/svg"><defs><path id="aa" d="M1623.36 900h-1.03c-2.858 0-5.183 2.447-5.183 5.455l-.095 2.545h-1.99c-.18 0 0-.088 0 .103v2.758c0 .19.147.345.328.345L1617 911v8c0 .19.293 1 .474 1h2.621c.181 0 .275-.477.275-.667v-8l2.66-.127c.181 0-.007-.35-.007-.54V908c0-.19.181 0 0 0h-2.653l.053-2.545c0-1.107.856-2.007 1.907-2.007h1.029c.18 0 .327-.155.327-.345v-2.759a.337.337 0 0 0-.327-.345z"/></defs><use xlink:href="#aa" transform="translate(-1615 -900)"/></symbol><symbol viewBox="0 0 21 20" id="ig" xmlns="http://www.w3.org/2000/svg"><defs><path id="ba" d="M1780 906v8c0 3.45-3.538 6-6.972 6h-7.464c-3.434 0-6.564-2.55-6.564-6v-8c0-3.451 3.13-6 6.564-6h7.464c3.434 0 6.972 2.549 6.972 6zm-2 0c0-2.413-2.6-4-5-4h-7c-2.4 0-5 1.587-5 4v8c0 2.413 2.6 4 5 4h7c2.4 0 5-1.587 5-4zm-4.06 4c0 2.577-2.08 4.666-4.644 4.666-2.565 0-4.644-2.09-4.644-4.667 0-2.576 2.08-4.666 4.644-4.666 2.565 0 4.644 2.09 4.644 4.666zm-1.813 0c0-1.54-1.276-2.792-2.844-2.792-1.568 0-2.844 1.252-2.844 2.791s1.276 2.792 2.844 2.792c1.568 0 2.844-1.253 2.844-2.792zm2.883-5.988a.997.997 0 0 1 1.004.991c0 .548-.45.991-1.004.991a.998.998 0 0 1-1.005-.99c0-.548.45-.992 1.005-.992z"/></defs><use xlink:href="#ba" transform="translate(-1759 -900)"/></symbol><symbol viewBox="0 0 13 20" id="iphone" xmlns="http://www.w3.org/2000/svg"><defs><path id="ca" d="M575.6 900h7.8c1.436 0 2.6 1.12 2.6 2.5v15c0 1.38-1.164 2.5-2.6 2.5h-7.8c-1.436 0-2.6-1.12-2.6-2.5v-15c0-1.38 1.164-2.5 2.6-2.5zm-.6 4v10c0 .69 1.182 1 1.9 1h5.2c.718 0 1.9-.31 1.9-1v-10c0-.69-1.282-2-2-2h-5c-.718 0-2 1.31-2 2zm3.014 13.5c0 .828.665 1.5 1.486 1.5.82 0 1.486-.672 1.486-1.5s-.665-1.5-1.486-1.5c-.82 0-1.486.672-1.486 1.5z"/></defs><use xlink:href="#ca" transform="translate(-573 -900)"/></symbol><symbol viewBox="0 0 20 15" id="letter" xmlns="http://www.w3.org/2000/svg"><defs><path id="da" d="M895.5 903h15a2.5 2.5 0 0 1 2.5 2.5v10a2.5 2.5 0 0 1-2.5 2.5h-15a2.5 2.5 0 0 1-2.5-2.5v-10a2.5 2.5 0 0 1 2.5-2.5zm-.5 4v7c0 .69 1.31 2 2 2h12c.69 0 2-1.31 2-2v-7c0-.275-.207-.647-.5-.996v.746L903 913l-7.5-6.25v-.746c-.293.349-.5.721-.5.996zm14-2h-12c-.275 0-.647.207-.996.5h.746l6.25 5 6.25-5h.746c-.349-.293-.721-.5-.996-.5z"/></defs><use xlink:href="#da" transform="translate(-893 -903)"/></symbol><symbol viewBox="0 0 15 20" id="pin" xmlns="http://www.w3.org/2000/svg"><defs><path id="ea" d="M149.5 900a7.5 7.5 0 0 1 7.5 7.5c0 7.422-7.5 12.5-7.5 12.5s-7.5-5.078-7.5-12.5a7.5 7.5 0 0 1 7.5-7.5zm-2.833 7.91c0 1.606 1.268 2.908 2.833 2.908 1.565 0 2.833-1.302 2.833-2.909 0-1.606-1.268-2.909-2.833-2.909-1.565 0-2.833 1.303-2.833 2.91z"/></defs><use xlink:href="#ea" transform="translate(-142 -900)"/></symbol><symbol viewBox="0 0 16 20" id="pt" xmlns="http://www.w3.org/2000/svg"><defs><path id="fa" d="M1694.83 900c-5.433 0-8.173 3.913-8.173 7.177 0 1.976.745 3.734 2.342 4.39.262.107.497.003.573-.288.053-.202.178-.71.233-.922.077-.288.047-.39-.164-.64-.46-.546-.755-1.253-.755-2.254 0-2.903 2.162-5.502 5.63-5.502 3.07 0 4.758 1.885 4.758 4.403 0 3.312-1.46 6.108-3.625 6.108-1.197 0-2.092-.994-1.805-2.213.344-1.455 1.01-3.026 1.01-4.076 0-.94-.503-1.725-1.543-1.725-1.223 0-2.205 1.27-2.205 2.973 0 1.085.365 1.818.365 1.818l-1.47 6.26c-.438 1.859-.067 4.137-.035 4.367.018.136.192.168.271.065.113-.147 1.57-1.954 2.065-3.76.14-.51.804-3.157.804-3.157.397.761 1.559 1.432 2.793 1.432 3.676 0 6.17-3.367 6.17-7.874 0-3.408-2.873-6.582-7.239-6.582z"/></defs><use xlink:href="#fa" transform="translate(-1686 -900)"/></symbol><symbol viewBox="0 0 2567 683" id="tilda" xmlns="http://www.w3.org/2000/svg"><defs><path id="ga" d="M2162.022 432.616c-414.983 445.301-877.335 450.113-1338.834 180.18-394.152-230.54-556-224.695-867.872 143.334-40.873 25.513-139.967 98.754-262.577-5.484-109.534-93.122 21.212-234.866 21.212-234.866C164.353-7.953 591.064 80.658 962.68 298.284 1310.796 502.148 1512.536 569.524 1887 182c11.373-11.372 185.433-127.448 288.858-2.708 97.892 118.06-14.126 253.05-13.835 253.324z"/></defs><use xlink:href="#ga" opacity=".04" transform="translate(351 -122)"/></symbol><symbol viewBox="0 0 20 16" id="tw" xmlns="http://www.w3.org/2000/svg"><defs><path id="ha" d="M1555.002 903.886a8.658 8.658 0 0 1-2.363.638c.85-.5 1.5-1.286 1.804-2.234a8.272 8.272 0 0 1-2.601.978 4.139 4.139 0 0 0-2.996-1.279c-2.272 0-4.1 1.817-4.1 4.044 0 .32.028.628.095.922a11.669 11.669 0 0 1-8.455-4.229 4.025 4.025 0 0 0-.562 2.044c0 1.4.732 2.64 1.822 3.36a4.094 4.094 0 0 1-1.853-.499v.045c0 1.964 1.422 3.596 3.287 3.972-.334.09-.698.133-1.076.133a3.68 3.68 0 0 1-.776-.069 4.134 4.134 0 0 0 3.833 2.816 8.32 8.32 0 0 1-5.087 1.724 7.72 7.72 0 0 1-.981-.055 11.673 11.673 0 0 0 6.293 1.814c7.548 0 11.675-6.162 11.675-11.504 0-.179-.006-.351-.015-.522a8.118 8.118 0 0 0 2.056-2.099z"/></defs><use xlink:href="#ha" transform="translate(-1535 -902)"/></symbol><symbol viewBox="0 0 20 16" id="twitter" xmlns="http://www.w3.org/2000/svg"><defs><path id="ia" d="M1555.002 903.886a8.658 8.658 0 0 1-2.363.638c.85-.5 1.5-1.286 1.804-2.234a8.272 8.272 0 0 1-2.601.978 4.139 4.139 0 0 0-2.996-1.279c-2.272 0-4.1 1.817-4.1 4.044 0 .32.028.628.095.922a11.669 11.669 0 0 1-8.455-4.229 4.025 4.025 0 0 0-.562 2.044c0 1.4.732 2.64 1.822 3.36a4.094 4.094 0 0 1-1.853-.499v.045c0 1.964 1.422 3.596 3.287 3.972-.334.09-.698.133-1.076.133a3.68 3.68 0 0 1-.776-.069 4.134 4.134 0 0 0 3.833 2.816 8.32 8.32 0 0 1-5.087 1.724 7.72 7.72 0 0 1-.981-.055 11.673 11.673 0 0 0 6.293 1.814c7.548 0 11.675-6.162 11.675-11.504 0-.179-.006-.351-.015-.522a8.118 8.118 0 0 0 2.056-2.099z"/></defs><use xlink:href="#ia" transform="translate(-1535 -902)"/></symbol></svg>