<svg width="70" height="35" viewBox="0 0 70 35" fill="none" xmlns="http://www.w3.org/2000/svg">
<path d="M14.7476 6.54649H68.0295C68.8335 6.54649 69.4988 5.73953 69.4988 4.76445C69.4988 3.78938 68.8335 2.98242 68.0295 2.98242H14.7476C13.9437 2.98242 13.2783 3.78938 13.2783 4.76445C13.2783 5.77315 13.9437 6.54649 14.7476 6.54649Z" fill="white"/>
<path d="M14.7476 19.066H68.0295C68.8335 19.066 69.4988 18.2591 69.4988 17.284C69.4988 16.3089 68.8335 15.502 68.0295 15.502H14.7476C13.9437 15.502 13.2783 16.3089 13.2783 17.284C13.2783 18.2927 13.9437 19.066 14.7476 19.066Z" fill="white"/>
<path d="M14.7476 31.5816H68.0295C68.8335 31.5816 69.4988 30.7747 69.4988 29.7996C69.4988 28.8245 68.8335 28.0176 68.0295 28.0176H14.7476C13.9437 28.0176 13.2783 28.8245 13.2783 29.7996C13.2783 30.8083 13.9437 31.5816 14.7476 31.5816Z" fill="white"/>
<path d="M4.43554 8.92206C6.88522 8.92206 8.87108 6.92479 8.87108 4.46103C8.87108 1.99727 6.88522 0 4.43554 0C1.98586 0 0 1.99727 0 4.46103C0 6.92479 1.98586 8.92206 4.43554 8.92206Z" fill="white"/>
<path d="M4.43554 21.5529C6.88522 21.5529 8.87108 19.5557 8.87108 17.0919C8.87108 14.6281 6.88522 12.6309 4.43554 12.6309C1.98586 12.6309 0 14.6281 0 17.0919C0 19.5557 1.98586 21.5529 4.43554 21.5529Z" fill="white"/>
<path d="M4.43554 34.1799C6.88522 34.1799 8.87108 32.1826 8.87108 29.7188C8.87108 27.2551 6.88522 25.2578 4.43554 25.2578C1.98586 25.2578 0 27.2551 0 29.7188C0 32.1826 1.98586 34.1799 4.43554 34.1799Z" fill="white"/>
</svg>
