<svg width="156" height="115" viewBox="0 0 156 115" fill="none" xmlns="http://www.w3.org/2000/svg">
<g clip-path="url(#clip0)">
<path d="M78.4585 114.232C78.0269 114.232 77.6538 114.003 77.456 113.625L66.8911 93.3207L47.1551 93.0916C21.6151 93.0916 0.840626 72.3332 0.840626 46.8221C0.840626 21.3109 21.6151 0.552551 47.1461 0.552551H108.849C134.38 0.552551 155.155 21.3109 155.155 46.8221C155.155 72.3332 134.38 93.0916 108.849 93.0916L90.8081 93.3207L79.4431 113.652C79.2407 114.016 78.8721 114.232 78.4585 114.232Z" fill="#F7E8CB"/>
<path d="M108.849 1.23087C134.012 1.23087 154.481 21.6838 154.481 46.8266C154.481 71.9693 134.012 92.4223 108.831 92.4223L91.1859 92.6469L90.4081 92.6559L90.026 93.3342L78.8497 113.324C78.7374 113.527 78.553 113.558 78.4541 113.558C78.3507 113.558 78.1619 113.527 78.0495 113.315L67.6735 93.3701L67.3003 92.6514L66.4911 92.6424L47.1462 92.4178C21.9839 92.4178 1.51511 71.9649 1.51511 46.8221C1.51511 21.6793 21.9839 1.22637 47.1462 1.22637H108.849V1.23087ZM108.849 -0.116791H47.1507C21.2062 -0.116791 0.170898 20.9022 0.170898 46.8266C0.170898 72.751 21.2062 93.7699 47.1507 93.7699L66.4821 93.9945L76.8582 113.94C77.1953 114.587 77.8247 114.91 78.4586 114.91C79.0745 114.91 79.6859 114.605 80.0321 113.989L91.2084 93.999L108.854 93.7744C134.798 93.7744 155.834 72.7555 155.834 46.8311C155.829 20.8977 134.798 -0.116791 108.849 -0.116791Z" fill="#636261"/>
</g>
<path d="M58.249 30.848C57.9396 31.37 57.524 31.8243 57.002 32.211C56.4993 32.5783 55.9386 32.8877 55.32 33.139C54.7206 33.371 54.102 33.545 53.464 33.661C52.8453 33.777 52.2653 33.8447 51.724 33.864C52.2073 34.0187 52.7293 34.2217 53.29 34.473C53.87 34.705 54.421 34.995 54.943 35.343C55.465 35.6717 55.929 36.0583 56.335 36.503C56.7603 36.9477 57.0503 37.4407 57.205 37.982C57.4563 38.8713 57.4853 39.7027 57.292 40.476C57.0986 41.23 56.741 41.926 56.219 42.564C55.697 43.202 55.0493 43.7627 54.276 44.246C53.5026 44.71 52.6616 45.087 51.753 45.377C50.8636 45.6863 49.9453 45.899 48.998 46.015C48.0506 46.131 47.142 46.131 46.272 46.015C44.4353 45.783 42.908 45.493 41.69 45.145C40.4913 44.797 39.4473 44.42 38.558 44.014C37.4366 44.8453 36.2573 45.435 35.02 45.783C33.7826 46.131 32.497 46.218 31.163 46.044C30.177 45.928 29.4036 45.6573 28.843 45.232C28.2823 44.826 27.915 44.362 27.741 43.84C27.5863 43.318 27.6056 42.796 27.799 42.274C27.9923 41.752 28.35 41.317 28.872 40.969C29.394 40.6017 30.0706 40.3793 30.902 40.302C31.7333 40.2247 32.6903 40.3793 33.773 40.766C34.3143 40.9787 34.9136 41.2783 35.571 41.665C36.2476 42.0517 37.05 42.4673 37.978 42.912C38.9446 41.984 39.8243 40.8337 40.617 39.461C41.4096 38.0883 42.212 36.6287 43.024 35.082C43.836 33.5353 44.706 31.9693 45.634 30.384C46.562 28.7793 47.6446 27.2907 48.882 25.918L50.535 24.033C48.911 23.7623 47.142 23.6463 45.228 23.685C43.3333 23.7043 41.4 23.9267 39.428 24.352C38.094 24.642 36.905 25.0577 35.861 25.599C34.8363 26.1403 33.9663 26.7493 33.251 27.426C32.5356 28.0833 31.9846 28.7793 31.598 29.514C31.2306 30.2293 31.0276 30.9157 30.989 31.573C30.9696 32.211 31.1243 32.7813 31.453 33.284C31.801 33.7867 32.3326 34.1443 33.048 34.357C33.8986 34.6277 34.6526 34.6567 35.31 34.444C35.9866 34.212 36.5473 33.893 36.992 33.487C37.456 33.081 37.7943 32.6557 38.007 32.211C38.239 31.747 38.3356 31.4087 38.297 31.196C38.297 31.1573 38.326 31.1187 38.384 31.08C38.4613 31.0413 38.529 31.022 38.587 31.022C38.6643 31.022 38.732 31.051 38.79 31.109C38.8673 31.167 38.906 31.2733 38.906 31.428V31.457C38.79 32.1723 38.5193 32.8103 38.094 33.371C37.688 33.9123 37.195 34.3473 36.615 34.676C36.035 35.0047 35.4066 35.2077 34.73 35.285C34.0533 35.3623 33.396 35.285 32.758 35.053C31.772 34.705 31.018 34.2023 30.496 33.545C29.9933 32.8877 29.7226 32.1627 29.684 31.37C29.6453 30.5773 29.829 29.746 30.235 28.876C30.641 28.006 31.2693 27.1843 32.12 26.411C32.9706 25.6377 34.034 24.961 35.31 24.381C36.6053 23.801 38.1036 23.3853 39.805 23.134C41.835 22.844 43.8166 22.728 45.75 22.786C47.7026 22.8247 49.5296 23.0277 51.231 23.395C51.4823 23.1823 51.7433 22.989 52.014 22.815C52.304 22.641 52.5746 22.5057 52.826 22.409C53.29 22.2157 53.5413 22.1867 53.58 22.322C53.6186 22.4573 53.464 22.6313 53.116 22.844C52.9226 22.9793 52.739 23.1243 52.565 23.279C52.4103 23.4337 52.3136 23.5497 52.275 23.627C53.5123 23.9557 54.6143 24.3617 55.581 24.845C56.5476 25.309 57.3113 25.8503 57.872 26.469C58.4326 27.0683 58.7516 27.745 58.829 28.499C58.9256 29.2337 58.7323 30.0167 58.249 30.848ZM54.653 25.251C54.2663 25.0577 53.841 24.8933 53.377 24.758C52.913 24.6033 52.4296 24.468 51.927 24.352C50.9603 25.686 49.984 27.1843 48.998 28.847C48.0313 30.5097 47.0646 32.1723 46.098 33.835C45.1313 35.4977 44.1646 37.0927 43.198 38.62C42.2313 40.128 41.2646 41.404 40.298 42.448C40.1046 42.6413 39.921 42.825 39.747 42.999C39.573 43.1537 39.3893 43.318 39.196 43.492C40.1046 43.8787 41.1293 44.2267 42.27 44.536C43.4106 44.8453 44.735 45.0773 46.243 45.232C47.4996 45.348 48.6596 45.2513 49.723 44.942C50.8056 44.6327 51.7433 44.1977 52.536 43.637C53.3286 43.0763 53.957 42.4287 54.421 41.694C54.9043 40.94 55.175 40.186 55.233 39.432C55.291 38.678 55.117 37.9627 54.711 37.286C54.3243 36.59 53.667 36.0197 52.739 35.575C52.1783 35.3043 51.5886 35.0723 50.97 34.879C50.3706 34.6857 49.81 34.5117 49.288 34.357C48.7853 34.183 48.3503 34.0283 47.983 33.893C47.635 33.7577 47.4223 33.6127 47.345 33.458C47.345 33.2067 47.4513 33.052 47.664 32.994C47.896 32.9167 48.2053 32.8877 48.592 32.907C48.9786 32.907 49.4233 32.936 49.926 32.994C50.448 33.0327 50.9893 33.052 51.55 33.052C52.1493 33.052 52.768 32.9167 53.406 32.646C54.044 32.356 54.624 31.9983 55.146 31.573C55.668 31.1283 56.103 30.6257 56.451 30.065C56.799 29.5043 56.9826 28.9437 57.002 28.383C57.0406 27.803 56.8763 27.2423 56.509 26.701C56.161 26.1597 55.5423 25.6763 54.653 25.251ZM37.34 43.463C36.6633 43.1343 35.9963 42.8057 35.339 42.477C34.6816 42.1483 33.918 41.8293 33.048 41.52C32.3133 41.2687 31.685 41.1817 31.163 41.259C30.641 41.317 30.2253 41.4813 29.916 41.752C29.626 42.0227 29.4423 42.3513 29.365 42.738C29.307 43.1053 29.3553 43.4727 29.51 43.84C29.684 44.2073 29.9643 44.5263 30.351 44.797C30.7376 45.0483 31.25 45.1933 31.888 45.232C32.9513 45.2707 33.9276 45.1353 34.817 44.826C35.7256 44.4973 36.5666 44.043 37.34 43.463ZM67.0944 40.824C66.9591 41.0947 66.8141 41.433 66.6594 41.839C66.5241 42.2257 66.4274 42.6123 66.3694 42.999C66.3114 43.3663 66.3211 43.6853 66.3984 43.956C66.4951 44.2267 66.7174 44.362 67.0654 44.362C67.4327 44.362 67.8097 44.159 68.1964 43.753C68.6024 43.347 68.9794 42.8733 69.3274 42.332C69.6754 41.7907 69.9847 41.2493 70.2554 40.708C70.5454 40.1473 70.7677 39.7123 70.9224 39.403C71.0384 39.1517 71.1641 39.0647 71.2994 39.142C71.4541 39.2 71.4637 39.374 71.3284 39.664C71.1157 40.1087 70.8451 40.6403 70.5164 41.259C70.2071 41.8777 69.8494 42.477 69.4434 43.057C69.0374 43.6177 68.5927 44.101 68.1094 44.507C67.6261 44.913 67.1041 45.116 66.5434 45.116C66.3114 45.116 66.0794 45.058 65.8474 44.942C65.6347 44.8067 65.4317 44.6037 65.2384 44.333C65.0837 44.0817 64.9581 43.7047 64.8614 43.202C64.7647 42.6993 64.8034 42.2257 64.9774 41.781C65.2094 41.2977 65.4124 40.8723 65.5864 40.505C65.7604 40.1183 65.9344 39.751 66.1084 39.403C66.2824 39.055 66.4661 38.6973 66.6594 38.33C66.8527 37.9627 67.0751 37.547 67.3264 37.083C67.6937 36.387 68.0127 35.9037 68.2834 35.633C68.5541 35.3623 68.9214 35.2367 69.3854 35.256C69.5787 35.2753 69.7721 35.314 69.9654 35.372C70.1781 35.4107 70.3907 35.4107 70.6034 35.372C70.3907 35.488 70.1297 35.7393 69.8204 36.126C69.5304 36.5127 69.2211 36.967 68.8924 37.489C68.5831 38.011 68.2641 38.5717 67.9354 39.171C67.6261 39.751 67.3457 40.302 67.0944 40.824ZM63.0054 41.636C62.9281 41.6167 62.7347 41.5587 62.4254 41.462C62.1354 41.3653 61.8841 41.201 61.6714 40.969C61.4974 40.7757 61.3814 40.5727 61.3234 40.36C61.2847 40.128 61.2944 39.9153 61.3524 39.722C61.4104 39.5287 61.5167 39.374 61.6714 39.258C61.8261 39.142 62.0194 39.084 62.2514 39.084C62.4641 39.084 62.6574 39.171 62.8314 39.345C63.0247 39.519 63.1214 39.7123 63.1214 39.925C63.1214 39.983 63.1021 40.07 63.0634 40.186C63.0247 40.302 62.9957 40.389 62.9764 40.447C62.9377 40.5437 62.9087 40.6403 62.8894 40.737C62.8894 40.8143 62.9474 40.9013 63.0634 40.998C63.1794 41.0947 63.3727 41.1817 63.6434 41.259C63.9334 41.317 64.2524 41.2977 64.6004 41.201C64.9484 41.085 65.3061 40.853 65.6734 40.505C66.0407 40.1377 66.3791 39.577 66.6884 38.823C66.7851 38.5523 66.9107 38.4557 67.0654 38.533C67.2201 38.6103 67.2297 38.794 67.0944 39.084C66.7657 39.7993 66.4371 40.3503 66.1084 40.737C65.7797 41.1237 65.4414 41.3943 65.0934 41.549C64.7454 41.7037 64.3974 41.781 64.0494 41.781C63.7014 41.7617 63.3534 41.7133 63.0054 41.636ZM57.8724 44.014C57.7371 43.7433 57.6694 43.4243 57.6694 43.057C57.6887 42.6703 57.8047 42.245 58.0174 41.781C58.2494 41.2977 58.4524 40.8723 58.6264 40.505C58.8004 40.1183 58.9744 39.751 59.1484 39.403C59.3224 39.055 59.5061 38.6973 59.6994 38.33C59.8927 37.9627 60.1151 37.547 60.3664 37.083C60.7337 36.387 61.0527 35.9037 61.3234 35.633C61.5941 35.3623 61.9614 35.2367 62.4254 35.256C62.6187 35.2753 62.8121 35.314 63.0054 35.372C63.2181 35.4107 63.4307 35.4107 63.6434 35.372C63.4307 35.488 63.1794 35.7393 62.8894 36.126C62.5994 36.5127 62.2901 36.967 61.9614 37.489C61.6521 38.011 61.3331 38.5717 61.0044 39.171C60.6951 39.751 60.4051 40.302 60.1344 40.824C59.9024 41.288 59.7091 41.7327 59.5544 42.158C59.4191 42.564 59.3321 42.9313 59.2934 43.26C59.2741 43.5887 59.3127 43.8593 59.4094 44.072C59.5061 44.2653 59.6704 44.391 59.9024 44.449C60.0377 44.4877 60.2504 44.449 60.5404 44.333C60.8304 44.217 61.1107 43.9947 61.3814 43.666C61.6907 43.2987 61.9614 42.9023 62.1934 42.477C62.4254 42.0323 62.5801 41.6457 62.6574 41.317C62.8121 40.6983 62.8507 40.2247 62.7734 39.896C62.6961 39.5673 62.3867 39.4223 61.8454 39.461C61.8067 39.461 61.7971 39.4417 61.8164 39.403C61.8551 39.345 61.9034 39.2967 61.9614 39.258C62.0387 39.2 62.1257 39.1613 62.2224 39.142C62.3191 39.1033 62.4254 39.1033 62.5414 39.142C62.8894 39.2773 63.1601 39.577 63.3534 40.041C63.5661 40.505 63.6047 40.998 63.4694 41.52C63.2954 42.2547 62.9667 42.9313 62.4834 43.55C62.0001 44.1687 61.4201 44.6327 60.7434 44.942C60.1827 45.1933 59.6221 45.2223 59.0614 45.029C58.5007 44.8357 58.1044 44.4973 57.8724 44.014ZM81.0817 39.606C80.9657 39.8767 80.7724 40.302 80.5017 40.882C80.2504 41.462 79.9314 42.042 79.5447 42.622C79.158 43.202 78.7037 43.7143 78.1817 44.159C77.679 44.6037 77.128 44.826 76.5287 44.826C76.084 44.826 75.707 44.7583 75.3977 44.623C75.1077 44.4683 74.866 44.2847 74.6727 44.072C74.2667 44.3813 73.851 44.6327 73.4257 44.826C73.0004 45 72.575 45.0773 72.1497 45.058C71.589 45.0387 71.1444 44.8743 70.8157 44.565C70.5064 44.2557 70.2937 43.8593 70.1777 43.376C70.081 42.8733 70.081 42.3127 70.1777 41.694C70.2744 41.056 70.458 40.418 70.7287 39.78C71.0187 39.1227 71.3764 38.4943 71.8017 37.895C72.227 37.2957 72.6814 36.7737 73.1647 36.329C73.6674 35.8843 74.1797 35.5363 74.7017 35.285C75.2237 35.0143 75.736 34.8887 76.2387 34.908C76.78 34.908 77.215 35.0627 77.5437 35.372C77.8724 35.6813 78.085 36.0873 78.1817 36.59C78.2977 37.0927 78.3074 37.663 78.2107 38.301C78.114 38.9197 77.9304 39.548 77.6597 40.186C77.447 40.6887 77.128 41.259 76.7027 41.897C76.2774 42.5157 75.7844 43.086 75.2237 43.608C75.475 44.0913 75.9294 44.333 76.5867 44.333C77.0507 44.333 77.4857 44.1397 77.8917 43.753C78.317 43.3663 78.7037 42.9023 79.0517 42.361C79.3997 41.8197 79.709 41.2687 79.9797 40.708C80.2504 40.1473 80.4727 39.693 80.6467 39.345C80.724 39.1903 80.84 39.142 80.9947 39.2C81.1494 39.258 81.1784 39.3933 81.0817 39.606ZM76.8477 35.865C76.5384 35.7877 76.2 35.836 75.8327 36.01C75.4654 36.1647 75.098 36.4257 74.7307 36.793C74.3634 37.141 74.0057 37.5663 73.6577 38.069C73.3097 38.5523 73.0004 39.084 72.7297 39.664C72.4397 40.2633 72.2077 40.8337 72.0337 41.375C71.879 41.897 71.7824 42.3707 71.7437 42.796C71.705 43.2213 71.734 43.579 71.8307 43.869C71.9274 44.1397 72.111 44.3137 72.3817 44.391C72.6524 44.4683 72.9617 44.4393 73.3097 44.304C73.6577 44.1687 74.0057 43.956 74.3537 43.666C74.199 43.434 74.083 43.1923 74.0057 42.941C73.9284 42.6897 73.8897 42.4577 73.8897 42.245C73.909 41.9163 73.9864 41.6263 74.1217 41.375C74.2764 41.1237 74.5374 40.998 74.9047 40.998C75.156 40.998 75.359 41.085 75.5137 41.259C75.6877 41.433 75.7747 41.636 75.7747 41.868C75.7747 41.926 75.765 41.984 75.7457 42.042C75.7457 42.0807 75.736 42.129 75.7167 42.187C76.0454 41.7037 76.345 41.1817 76.6157 40.621C76.9057 40.0217 77.128 39.4513 77.2827 38.91C77.4374 38.3687 77.5244 37.8853 77.5437 37.46C77.563 37.0347 77.5147 36.6867 77.3987 36.416C77.2827 36.126 77.099 35.9423 76.8477 35.865ZM74.4117 23.134C74.7017 22.2253 75.2044 21.6067 75.9197 21.278C76.635 20.9493 77.5147 20.814 78.5587 20.872C79.0227 20.8913 79.448 20.959 79.8347 21.075C80.2407 21.1717 80.6177 21.2877 80.9657 21.423C81.333 21.5583 81.7004 21.684 82.0677 21.8C82.4544 21.8967 82.87 21.9547 83.3147 21.974C83.914 22.0127 84.407 21.9353 84.7937 21.742C85.1804 21.5293 85.4994 21.249 85.7507 20.901C85.77 20.8623 85.828 20.843 85.9247 20.843C86.0407 20.8237 86.1567 20.8237 86.2727 20.843C86.3887 20.843 86.4854 20.8623 86.5627 20.901C86.6594 20.9203 86.698 20.9397 86.6787 20.959C86.466 21.249 86.2147 21.5487 85.9247 21.858C85.654 22.148 85.335 22.4187 84.9677 22.67C84.6004 22.902 84.1944 23.0953 83.7497 23.25C83.305 23.3853 82.8217 23.4337 82.2997 23.395C81.8357 23.3757 81.4104 23.308 81.0237 23.192C80.637 23.0567 80.26 22.9213 79.8927 22.786C79.5254 22.6507 79.1484 22.525 78.7617 22.409C78.3944 22.293 77.9787 22.2253 77.5147 22.206C76.9927 22.1673 76.5577 22.293 76.2097 22.583C75.881 22.8537 75.6297 23.2403 75.4557 23.743C75.3204 24.149 75.2334 24.5357 75.1947 24.903C75.1754 25.2703 75.1947 25.6763 75.2527 26.121C75.33 26.5657 75.446 27.0683 75.6007 27.629C75.7554 28.1897 75.968 28.847 76.2387 29.601C76.3547 29.9297 76.6254 30.6933 77.0507 31.892C77.476 33.0713 77.8724 34.7243 78.2397 36.851C78.2784 37.0637 78.2494 37.1217 78.1527 37.025C78.0754 36.9283 77.969 36.7833 77.8337 36.59C77.679 36.3773 77.505 36.097 77.3117 35.749C77.1184 34.705 76.8574 33.69 76.5287 32.704C76.2 31.718 75.9004 30.8287 75.6297 30.036C75.475 29.5913 75.2817 29.0983 75.0497 28.557C74.837 27.9963 74.6437 27.426 74.4697 26.846C74.315 26.2467 74.2087 25.6377 74.1507 25.019C74.112 24.381 74.199 23.7527 74.4117 23.134ZM88.1566 39.577C87.8859 40.157 87.5959 40.7757 87.2866 41.433C86.9772 42.071 86.6099 42.6703 86.1846 43.231C85.7592 43.7723 85.2566 44.2267 84.6766 44.594C84.1159 44.942 83.4296 45.116 82.6176 45.116C81.8829 45.116 81.2352 44.884 80.6746 44.42C80.1332 43.956 79.8529 43.26 79.8336 42.332C79.8336 41.9067 79.8819 41.4523 79.9786 40.969C80.0946 40.4857 80.2492 40.012 80.4426 39.548C80.6552 39.0647 80.8969 38.6007 81.1676 38.156C81.4382 37.7113 81.7379 37.2957 82.0666 36.909C82.4339 36.4837 82.8399 36.097 83.2846 35.749C83.7292 35.401 84.1739 35.14 84.6186 34.966C85.0632 34.7727 85.4886 34.676 85.8946 34.676C86.3199 34.676 86.6969 34.792 87.0256 35.024C87.2962 35.2367 87.4509 35.5073 87.4896 35.836C87.5476 36.1647 87.4992 36.532 87.3446 36.938C87.1899 37.3247 86.9482 37.721 86.6196 38.127C86.2909 38.533 85.8946 38.91 85.4306 39.258C85.1986 39.432 84.9182 39.5963 84.5896 39.751C84.2802 39.9057 83.9516 40.041 83.6036 40.157C83.2556 40.273 82.9269 40.3697 82.6176 40.447C82.3082 40.505 82.0569 40.534 81.8636 40.534C81.7476 40.8047 81.6412 41.1623 81.5446 41.607C81.4672 42.0517 81.4382 42.4867 81.4576 42.912C81.4962 43.3373 81.6122 43.7143 81.8056 44.043C82.0182 44.3523 82.3662 44.507 82.8496 44.507C83.4876 44.507 84.0579 44.3233 84.5606 43.956C85.0826 43.5693 85.5369 43.115 85.9236 42.593C86.3296 42.071 86.6679 41.5297 86.9386 40.969C87.2286 40.4083 87.4606 39.9347 87.6346 39.548C87.6926 39.4127 87.7602 39.316 87.8376 39.258C87.9342 39.1807 88.0116 39.142 88.0696 39.142C88.1469 39.142 88.1952 39.1807 88.2146 39.258C88.2532 39.316 88.2339 39.4223 88.1566 39.577ZM85.1406 38.765C85.5272 38.4363 85.8462 38.069 86.0976 37.663C86.3682 37.257 86.5519 36.88 86.6486 36.532C86.7452 36.184 86.7646 35.894 86.7066 35.662C86.6486 35.43 86.5036 35.3237 86.2716 35.343C86.0396 35.343 85.7206 35.4977 85.3146 35.807C84.9086 36.097 84.4059 36.5997 83.8066 37.315C83.4199 37.779 83.0622 38.2817 82.7336 38.823C82.4242 39.3643 82.2019 39.7703 82.0666 40.041C82.2019 40.041 82.3856 40.0217 82.6176 39.983C82.8496 39.925 83.1106 39.8477 83.4006 39.751C83.6906 39.635 83.9806 39.4997 84.2706 39.345C84.5799 39.171 84.8699 38.9777 85.1406 38.765ZM85.0273 51.351C84.7373 51.9697 84.4666 52.3853 84.2153 52.598C83.9446 52.8107 83.5676 52.8977 83.0843 52.859C82.891 52.8397 82.6976 52.801 82.5043 52.743C82.2916 52.685 82.079 52.6753 81.8663 52.714C81.9823 52.598 82.2046 52.2597 82.5333 51.699C82.862 51.1577 83.239 50.481 83.6643 49.669C84.0896 48.8763 84.544 48.0063 85.0273 47.059C85.5106 46.1117 85.9553 45.1837 86.3613 44.275C86.7866 43.3663 87.1443 42.535 87.4343 41.781C87.7436 41.0077 87.9466 40.3987 88.0433 39.954C87.8886 40.2053 87.7146 40.3697 87.5213 40.447C87.328 40.505 87.2796 40.4277 87.3763 40.215C87.4536 40.0603 87.5503 39.8477 87.6663 39.577C87.7823 39.3063 87.879 39.084 87.9563 38.91C88.0916 38.6007 88.2076 38.243 88.3043 37.837C88.4203 37.431 88.488 37.0443 88.5073 36.677C88.546 36.3097 88.5363 36.0003 88.4783 35.749C88.4203 35.4783 88.3043 35.3237 88.1303 35.285C88.343 35.2463 88.546 35.2077 88.7393 35.169C88.894 35.1303 89.0486 35.111 89.2033 35.111C89.3773 35.0917 89.4933 35.0723 89.5513 35.053C89.764 35.0337 89.938 35.024 90.0733 35.024C90.2086 35.0047 90.315 35.024 90.3923 35.082C90.4696 35.14 90.518 35.2657 90.5373 35.459C90.576 35.633 90.5953 35.894 90.5953 36.242C90.5953 36.532 90.547 36.88 90.4503 37.286C90.373 37.6727 90.2763 38.0787 90.1603 38.504C90.0443 38.9293 89.9186 39.345 89.7833 39.751C89.648 40.157 89.5223 40.5147 89.4063 40.824C89.6963 40.4567 90.0636 40.0313 90.5083 39.548C90.953 39.0453 91.3976 38.6007 91.8423 38.214C92.1903 37.9047 92.6156 37.576 93.1183 37.228C93.6403 36.8607 94.1623 36.5417 94.6843 36.271C95.2063 35.981 95.6896 35.7587 96.1343 35.604C96.5983 35.4493 96.956 35.4107 97.2073 35.488C96.6273 36.532 96.0956 37.5277 95.6123 38.475C95.3996 38.881 95.187 39.2967 94.9743 39.722C94.781 40.1473 94.5973 40.563 94.4233 40.969C94.2493 41.3557 94.0946 41.723 93.9593 42.071C93.8433 42.419 93.766 42.7187 93.7273 42.97C93.6113 43.5693 93.6113 43.9657 93.7273 44.159C93.8433 44.333 93.998 44.42 94.1913 44.42C94.5586 44.42 94.9453 44.217 95.3513 43.811C95.7573 43.405 96.144 42.9313 96.5113 42.39C96.8786 41.8293 97.2073 41.2687 97.4973 40.708C97.7873 40.1473 98.0096 39.7123 98.1643 39.403C98.2803 39.1517 98.406 39.0647 98.5413 39.142C98.696 39.2 98.7056 39.374 98.5703 39.664C98.3576 40.1087 98.087 40.6403 97.7583 41.259C97.449 41.8777 97.0913 42.477 96.6853 43.057C96.2793 43.6177 95.8346 44.101 95.3513 44.507C94.868 44.913 94.346 45.116 93.7853 45.116C93.534 45.116 93.273 45.0677 93.0023 44.971C92.7316 44.8743 92.4996 44.7003 92.3063 44.449C92.1323 44.1783 92.026 43.8303 91.9873 43.405C91.9486 42.9603 92.0356 42.3997 92.2483 41.723C92.3643 41.3363 92.5576 40.9013 92.8283 40.418C93.099 39.9153 93.4373 39.3353 93.8433 38.678C94.0173 38.388 94.114 38.1367 94.1333 37.924C94.1526 37.7113 94.0753 37.5857 93.9013 37.547C93.7466 37.5083 93.4953 37.5857 93.1473 37.779C92.7993 37.9723 92.345 38.33 91.7843 38.852C91.533 39.084 91.243 39.3547 90.9143 39.664C90.605 39.9733 90.2666 40.36 89.8993 40.824C89.5513 41.2687 89.1936 41.8003 88.8263 42.419C88.459 43.0377 88.1013 43.7627 87.7533 44.594L85.0273 51.351ZM108.877 39.664C108.645 40.1667 108.374 40.7273 108.065 41.346C107.756 41.9453 107.408 42.5157 107.021 43.057C106.634 43.5983 106.209 44.0527 105.745 44.42C105.281 44.7873 104.788 44.971 104.266 44.971C103.937 44.971 103.647 44.8937 103.396 44.739C103.145 44.565 102.951 44.3233 102.816 44.014C102.7 43.6853 102.642 43.289 102.642 42.825C102.642 42.361 102.739 41.839 102.932 41.259C102.681 41.7037 102.4 42.1483 102.091 42.593C101.801 43.0183 101.482 43.4147 101.134 43.782C100.805 44.13 100.457 44.42 100.09 44.652C99.7225 44.8647 99.3648 44.971 99.0168 44.971C98.8622 44.971 98.6882 44.9613 98.4948 44.942C98.3208 44.9033 98.1468 44.8357 97.9728 44.739C97.7988 44.6423 97.6345 44.507 97.4798 44.333C97.3445 44.159 97.2478 43.9367 97.1898 43.666C97.1318 43.3567 97.1222 43.057 97.1608 42.767C97.1995 42.477 97.2672 42.1967 97.3638 41.926C97.4798 41.636 97.6055 41.3653 97.7408 41.114C97.8955 40.8433 98.0405 40.5727 98.1758 40.302C98.0792 40.302 97.9825 40.273 97.8858 40.215C97.8085 40.157 97.8182 40.0313 97.9148 39.838C98.0115 39.6833 98.0985 39.519 98.1758 39.345C98.2532 39.171 98.3402 38.997 98.4368 38.823C98.7268 38.2623 99.0168 37.7017 99.3068 37.141C99.5968 36.5803 99.8482 36.0777 100.061 35.633C100.177 35.401 100.322 35.2463 100.496 35.169C100.689 35.0723 100.921 35.024 101.192 35.024H102.961C102.787 35.14 102.632 35.2657 102.497 35.401C102.362 35.517 102.217 35.662 102.062 35.836C101.927 36.01 101.782 36.2227 101.627 36.474C101.472 36.7253 101.298 37.054 101.105 37.46C100.834 37.9627 100.593 38.446 100.38 38.91C100.167 39.316 99.9642 39.7317 99.7708 40.157C99.5775 40.5823 99.4132 40.9303 99.2778 41.201C98.9298 41.955 98.7365 42.5833 98.6978 43.086C98.6592 43.5887 98.7268 43.9463 98.9008 44.159C99.0942 44.3523 99.3745 44.3813 99.7418 44.246C100.109 44.0913 100.525 43.7433 100.989 43.202C101.395 42.738 101.791 42.187 102.178 41.549C102.584 40.911 102.971 40.2537 103.338 39.577C103.705 38.881 104.053 38.1947 104.382 37.518C104.73 36.8413 105.039 36.213 105.31 35.633C105.426 35.401 105.571 35.2463 105.745 35.169C105.938 35.0723 106.17 35.024 106.441 35.024H108.007C107.794 35.198 107.611 35.3623 107.456 35.517C107.301 35.6523 107.147 35.8263 106.992 36.039C106.857 36.2323 106.712 36.4837 106.557 36.793C106.402 37.083 106.219 37.4503 106.006 37.895C105.793 38.301 105.581 38.7263 105.368 39.171C105.175 39.5963 104.981 40.0217 104.788 40.447C104.614 40.853 104.459 41.2397 104.324 41.607C104.189 41.955 104.102 42.2547 104.063 42.506C103.928 43.1247 103.928 43.5693 104.063 43.84C104.218 44.0913 104.401 44.2267 104.614 44.246C104.962 44.246 105.31 44.0913 105.658 43.782C106.025 43.4727 106.373 43.086 106.702 42.622C107.031 42.1387 107.34 41.6167 107.63 41.056C107.939 40.476 108.22 39.925 108.471 39.403C108.587 39.1517 108.713 39.0647 108.848 39.142C109.003 39.2 109.012 39.374 108.877 39.664ZM123.592 39.664C123.379 40.1087 123.109 40.6403 122.78 41.259C122.471 41.8777 122.113 42.477 121.707 43.057C121.301 43.6177 120.847 44.101 120.344 44.507C119.861 44.913 119.348 45.116 118.807 45.116C118.536 45.116 118.266 45.0677 117.995 44.971C117.724 44.8743 117.492 44.7003 117.299 44.449C117.125 44.1783 117.019 43.8303 116.98 43.405C116.941 42.9603 117.028 42.3997 117.241 41.723C117.357 41.3363 117.55 40.9013 117.821 40.418C118.092 39.9153 118.43 39.3353 118.836 38.678C119.01 38.388 119.107 38.1367 119.126 37.924C119.145 37.7113 119.068 37.5857 118.894 37.547C118.739 37.5083 118.488 37.5857 118.14 37.779C117.792 37.9723 117.338 38.33 116.777 38.852C116.468 39.142 116.091 39.548 115.646 40.07C115.221 40.5727 114.805 41.1237 114.399 41.723C113.993 42.303 113.626 42.8927 113.297 43.492C112.988 44.072 112.785 44.5747 112.688 45C112.359 45 112.098 44.8453 111.905 44.536C111.731 44.2073 111.683 43.8303 111.76 43.405C111.857 42.767 112.021 42.1967 112.253 41.694C112.485 41.172 112.727 40.6403 112.978 40.099C113.21 39.6157 113.423 39.142 113.616 38.678C113.809 38.214 113.896 37.8757 113.877 37.663C113.877 37.4503 113.722 37.4213 113.413 37.576C113.104 37.7113 112.572 38.1367 111.818 38.852C111.315 39.2967 110.726 39.954 110.049 40.824C109.392 41.694 108.647 42.9217 107.816 44.507C107.719 44.7197 107.594 44.855 107.439 44.913C107.284 44.9517 107.043 44.971 106.714 44.971C106.501 44.9903 106.327 45 106.192 45C106.057 45 105.912 45.0483 105.757 45.145C106.453 43.753 107.101 42.39 107.7 41.056C108.319 39.722 108.986 38.3977 109.701 37.083C110.068 36.387 110.387 35.9037 110.658 35.633C110.929 35.3623 111.296 35.2367 111.76 35.256C111.953 35.2753 112.147 35.314 112.34 35.372C112.553 35.4107 112.765 35.4107 112.978 35.372C112.765 35.488 112.504 35.7393 112.195 36.126C111.905 36.5127 111.596 36.967 111.267 37.489C110.958 38.011 110.639 38.5717 110.31 39.171C110.001 39.751 109.72 40.302 109.469 40.824C109.759 40.4567 110.117 40.0313 110.542 39.548C110.987 39.0453 111.431 38.6007 111.876 38.214C112.224 37.9047 112.591 37.576 112.978 37.228C113.384 36.8607 113.771 36.5417 114.138 36.271C114.525 35.981 114.882 35.7587 115.211 35.604C115.559 35.4493 115.859 35.4107 116.11 35.488C116.381 35.5847 116.555 35.749 116.632 35.981C116.709 36.213 116.68 36.474 116.545 36.764C116.274 37.3827 115.936 38.04 115.53 38.736C115.143 39.4127 114.776 40.1087 114.428 40.824C114.718 40.4567 115.076 40.0313 115.501 39.548C115.946 39.0453 116.39 38.6007 116.835 38.214C117.183 37.9047 117.608 37.576 118.111 37.228C118.633 36.8607 119.155 36.5417 119.677 36.271C120.199 35.981 120.692 35.7587 121.156 35.604C121.62 35.4493 121.968 35.4107 122.2 35.488C121.62 36.532 121.088 37.5277 120.605 38.475C120.392 38.881 120.189 39.2967 119.996 39.722C119.803 40.1473 119.619 40.563 119.445 40.969C119.271 41.3557 119.116 41.723 118.981 42.071C118.865 42.419 118.778 42.7187 118.72 42.97C118.623 43.5693 118.633 43.9657 118.749 44.159C118.865 44.333 119.02 44.42 119.213 44.42C119.58 44.42 119.967 44.2267 120.373 43.84C120.779 43.434 121.166 42.9603 121.533 42.419C121.9 41.8777 122.229 41.3267 122.519 40.766C122.809 40.186 123.031 39.7317 123.186 39.403C123.302 39.1517 123.428 39.0647 123.563 39.142C123.718 39.2 123.727 39.374 123.592 39.664ZM122.577 32.124C122.422 32.356 122.229 32.5977 121.997 32.849C121.784 33.081 121.533 33.2937 121.243 33.487C120.953 33.6803 120.624 33.835 120.257 33.951C119.909 34.067 119.532 34.1153 119.126 34.096C118.739 34.0767 118.362 34.0187 117.995 33.922C117.647 33.8253 117.299 33.7287 116.951 33.632C116.603 33.516 116.255 33.4193 115.907 33.342C115.559 33.2453 115.211 33.1873 114.863 33.168C114.418 33.1293 114.041 33.197 113.732 33.371C113.442 33.5257 113.21 33.719 113.036 33.951C113.017 33.9897 112.959 34.0187 112.862 34.038C112.765 34.038 112.669 34.038 112.572 34.038C112.475 34.0187 112.388 33.9993 112.311 33.98C112.234 33.9607 112.195 33.9317 112.195 33.893C112.524 33.4677 112.978 33.052 113.558 32.646C114.157 32.2207 114.863 32.0273 115.675 32.066C116.042 32.0853 116.4 32.1337 116.748 32.211C117.115 32.2883 117.473 32.385 117.821 32.501C118.188 32.5977 118.536 32.6943 118.865 32.791C119.213 32.8683 119.561 32.9167 119.909 32.936C120.392 32.9747 120.789 32.9167 121.098 32.762C121.407 32.588 121.668 32.3657 121.881 32.095C121.881 32.0757 121.92 32.066 121.997 32.066C122.094 32.0467 122.181 32.037 122.258 32.037C122.355 32.037 122.432 32.0467 122.49 32.066C122.567 32.0853 122.596 32.1047 122.577 32.124ZM130.75 39.577C130.48 40.157 130.19 40.7757 129.88 41.433C129.571 42.071 129.204 42.6703 128.778 43.231C128.353 43.7723 127.85 44.2267 127.27 44.594C126.71 44.942 126.023 45.116 125.211 45.116C124.477 45.116 123.829 44.884 123.268 44.42C122.727 43.956 122.447 43.26 122.427 42.332C122.427 41.9067 122.476 41.4523 122.572 40.969C122.688 40.4857 122.843 40.012 123.036 39.548C123.249 39.0647 123.491 38.6007 123.761 38.156C124.032 37.7113 124.332 37.2957 124.66 36.909C125.028 36.4837 125.434 36.097 125.878 35.749C126.323 35.401 126.768 35.14 127.212 34.966C127.657 34.7727 128.082 34.676 128.488 34.676C128.914 34.676 129.291 34.792 129.619 35.024C129.89 35.2367 130.045 35.5073 130.083 35.836C130.141 36.1647 130.093 36.532 129.938 36.938C129.784 37.3247 129.542 37.721 129.213 38.127C128.885 38.533 128.488 38.91 128.024 39.258C127.792 39.432 127.512 39.5963 127.183 39.751C126.874 39.9057 126.545 40.041 126.197 40.157C125.849 40.273 125.521 40.3697 125.211 40.447C124.902 40.505 124.651 40.534 124.457 40.534C124.341 40.8047 124.235 41.1623 124.138 41.607C124.061 42.0517 124.032 42.4867 124.051 42.912C124.09 43.3373 124.206 43.7143 124.399 44.043C124.612 44.3523 124.96 44.507 125.443 44.507C126.081 44.507 126.652 44.3233 127.154 43.956C127.676 43.5693 128.131 43.115 128.517 42.593C128.923 42.071 129.262 41.5297 129.532 40.969C129.822 40.4083 130.054 39.9347 130.228 39.548C130.286 39.4127 130.354 39.316 130.431 39.258C130.528 39.1807 130.605 39.142 130.663 39.142C130.741 39.142 130.789 39.1807 130.808 39.258C130.847 39.316 130.828 39.4223 130.75 39.577ZM127.734 38.765C128.121 38.4363 128.44 38.069 128.691 37.663C128.962 37.257 129.146 36.88 129.242 36.532C129.339 36.184 129.358 35.894 129.3 35.662C129.242 35.43 129.097 35.3237 128.865 35.343C128.633 35.343 128.314 35.4977 127.908 35.807C127.502 36.097 127 36.5997 126.4 37.315C126.014 37.779 125.656 38.2817 125.327 38.823C125.018 39.3643 124.796 39.7703 124.66 40.041C124.796 40.041 124.979 40.0217 125.211 39.983C125.443 39.925 125.704 39.8477 125.994 39.751C126.284 39.635 126.574 39.4997 126.864 39.345C127.174 39.171 127.464 38.9777 127.734 38.765ZM58.0798 68.693C57.7318 69.447 57.3838 70.1527 57.0358 70.81C56.6878 71.4673 56.2915 72.0473 55.8468 72.55C55.4215 73.0333 54.9188 73.42 54.3388 73.71C53.7782 73.9807 53.1015 74.116 52.3088 74.116C51.5548 74.116 50.9555 73.9807 50.5108 73.71C50.0662 73.4393 49.7472 73.0913 49.5538 72.666C49.3605 72.2213 49.2735 71.7187 49.2928 71.158C49.3315 70.5973 49.4378 70.0173 49.6118 69.418C49.8052 68.8187 50.0468 68.229 50.3368 67.649C50.6462 67.069 50.9748 66.547 51.3228 66.083C51.8642 65.3483 52.4732 64.7877 53.1498 64.401C53.8265 63.995 54.5128 63.792 55.2088 63.792C55.9435 63.792 56.4752 63.9757 56.8038 64.343C57.1518 64.7103 57.2872 65.1937 57.2098 65.793C57.1712 66.025 57.0745 66.2667 56.9198 66.518C56.7845 66.7693 56.6202 66.982 56.4268 67.156C56.2335 67.33 56.0305 67.446 55.8178 67.504C55.6052 67.5427 55.4215 67.4847 55.2668 67.33C55.4215 67.1367 55.5858 66.9143 55.7598 66.663C55.9532 66.3923 56.0885 66.1217 56.1658 65.851C56.3012 65.3483 56.3012 64.9907 56.1658 64.778C56.0498 64.546 55.8565 64.43 55.5858 64.43C55.3152 64.43 55.0445 64.5073 54.7738 64.662C54.5032 64.8167 54.2228 65.01 53.9328 65.242C53.6622 65.474 53.4012 65.7447 53.1498 66.054C52.8985 66.344 52.6762 66.634 52.4828 66.924C52.3475 67.1173 52.1832 67.3783 51.9898 67.707C51.8158 68.0357 51.6418 68.403 51.4678 68.809C51.3132 69.1957 51.1778 69.6113 51.0618 70.056C50.9458 70.5007 50.8878 70.9357 50.8878 71.361C50.8878 71.941 51.0135 72.463 51.2648 72.927C51.5355 73.3717 51.9802 73.594 52.5988 73.594C53.2368 73.594 53.7975 73.4393 54.2808 73.13C54.7835 72.8013 55.2378 72.3953 55.6438 71.912C56.0498 71.4093 56.4172 70.8583 56.7458 70.259C57.0745 69.6597 57.3838 69.07 57.6738 68.49C57.8092 68.2193 57.9445 68.113 58.0798 68.171C58.2152 68.229 58.2152 68.403 58.0798 68.693ZM65.033 68.577C64.7624 69.157 64.4724 69.7757 64.163 70.433C63.8537 71.071 63.4864 71.6703 63.061 72.231C62.6357 72.7723 62.133 73.2267 61.553 73.594C60.9924 73.942 60.306 74.116 59.494 74.116C58.7594 74.116 58.1117 73.884 57.551 73.42C57.0097 72.956 56.7294 72.26 56.71 71.332C56.71 70.9067 56.7584 70.4523 56.855 69.969C56.971 69.4857 57.1257 69.012 57.319 68.548C57.5317 68.0647 57.7734 67.6007 58.044 67.156C58.3147 66.7113 58.6144 66.2957 58.943 65.909C59.3104 65.4837 59.7164 65.097 60.161 64.749C60.6057 64.401 61.0504 64.14 61.495 63.966C61.9397 63.7727 62.365 63.676 62.771 63.676C63.1964 63.676 63.5734 63.792 63.902 64.024C64.1727 64.2367 64.3274 64.5073 64.366 64.836C64.424 65.1647 64.3757 65.532 64.221 65.938C64.0664 66.3247 63.8247 66.721 63.496 67.127C63.1674 67.533 62.771 67.91 62.307 68.258C62.075 68.432 61.7947 68.5963 61.466 68.751C61.1567 68.9057 60.828 69.041 60.48 69.157C60.132 69.273 59.8034 69.3697 59.494 69.447C59.1847 69.505 58.9334 69.534 58.74 69.534C58.624 69.8047 58.5177 70.1623 58.421 70.607C58.3437 71.0517 58.3147 71.4867 58.334 71.912C58.3727 72.3373 58.4887 72.7143 58.682 73.043C58.8947 73.3523 59.2427 73.507 59.726 73.507C60.364 73.507 60.9344 73.3233 61.437 72.956C61.959 72.5693 62.4134 72.115 62.8 71.593C63.206 71.071 63.5444 70.5297 63.815 69.969C64.105 69.4083 64.337 68.9347 64.511 68.548C64.569 68.4127 64.6367 68.316 64.714 68.258C64.8107 68.1807 64.888 68.142 64.946 68.142C65.0234 68.142 65.0717 68.1807 65.091 68.258C65.1297 68.316 65.1104 68.4223 65.033 68.577ZM62.017 67.765C62.4037 67.4363 62.7227 67.069 62.974 66.663C63.2447 66.257 63.4284 65.88 63.525 65.532C63.6217 65.184 63.641 64.894 63.583 64.662C63.525 64.43 63.38 64.3237 63.148 64.343C62.916 64.343 62.597 64.4977 62.191 64.807C61.785 65.097 61.2824 65.5997 60.683 66.315C60.2964 66.779 59.9387 67.2817 59.61 67.823C59.3007 68.3643 59.0784 68.7703 58.943 69.041C59.0784 69.041 59.262 69.0217 59.494 68.983C59.726 68.925 59.987 68.8477 60.277 68.751C60.567 68.635 60.857 68.4997 61.147 68.345C61.4564 68.171 61.7464 67.9777 62.017 67.765ZM66.2828 68.374C66.5921 67.9873 66.9304 67.5813 67.2978 67.156C67.6844 66.7307 68.0904 66.3247 68.5158 65.938C68.9411 65.5513 69.3761 65.2033 69.8208 64.894C70.2654 64.5653 70.7101 64.314 71.1548 64.14C71.9088 63.8693 72.5081 63.763 72.9528 63.821C73.3974 63.879 73.6971 64.0433 73.8518 64.314C73.9291 64.546 73.9484 64.7683 73.9098 64.981C73.8711 65.1937 73.7841 65.3773 73.6488 65.532C73.5328 65.6867 73.3781 65.8027 73.1848 65.88C72.9914 65.938 72.7884 65.938 72.5758 65.88C72.5564 65.6867 72.4404 65.532 72.2278 65.416C72.0344 65.2807 71.7638 65.2227 71.4158 65.242C71.0678 65.2613 70.6521 65.3677 70.1688 65.561C69.7048 65.7543 69.2118 66.054 68.6898 66.46C68.2451 67.7553 68.0518 68.9153 68.1098 69.94C68.1871 70.9453 68.4288 71.7283 68.8348 72.289C69.2408 72.8497 69.7531 73.1493 70.3718 73.188C70.9904 73.2073 71.6284 72.869 72.2858 72.173C72.6531 71.7863 73.0301 71.245 73.4168 70.549C73.8228 69.8337 74.2288 69.0507 74.6348 68.2C74.7508 67.968 74.8668 67.9003 74.9828 67.997C75.0988 68.0743 75.1084 68.229 75.0118 68.461C74.4318 69.7757 73.8808 70.8197 73.3588 71.593C72.8561 72.347 72.3631 72.9173 71.8798 73.304C71.4158 73.6713 70.9614 73.8937 70.5168 73.971C70.0914 74.0483 69.6661 74.0677 69.2408 74.029C68.9701 74.0097 68.6898 73.9517 68.3998 73.855C68.1291 73.739 67.8681 73.5747 67.6168 73.362C67.3654 73.13 67.1334 72.8497 66.9208 72.521C66.7274 72.1923 66.5921 71.7767 66.5148 71.274C66.4181 70.6553 66.3698 70.143 66.3698 69.737C66.3891 69.331 66.4278 68.9927 66.4858 68.722C66.2344 69.0507 65.9734 69.3987 65.7028 69.766C65.4514 70.1333 65.2291 70.5103 65.0358 70.897C64.9198 71.129 64.7748 71.4383 64.6008 71.825C64.4461 72.2117 64.2141 72.7627 63.9048 73.478C63.7888 73.6907 63.6534 73.8163 63.4988 73.855C63.3441 73.8937 63.1121 73.913 62.8028 73.913C62.5901 73.9323 62.4161 73.942 62.2808 73.942C62.1261 73.942 61.9714 73.9903 61.8168 74.087C62.5128 72.695 63.1701 71.3223 63.7888 69.969C64.4268 68.6157 65.1034 67.2817 65.8188 65.967C66.1861 65.271 66.5051 64.7877 66.7758 64.517C67.0464 64.2463 67.4138 64.1207 67.8778 64.14C68.0711 64.1593 68.2644 64.198 68.4578 64.256C68.6704 64.2947 68.8831 64.2947 69.0958 64.256C68.9218 64.3527 68.7188 64.5363 68.4868 64.807C68.2741 65.0777 68.0421 65.4063 67.7908 65.793C67.5394 66.1603 67.2784 66.5663 67.0078 67.011C66.7564 67.4557 66.5148 67.91 66.2828 68.374ZM85.3568 68.664C85.1248 69.1667 84.8542 69.7273 84.5448 70.346C84.2355 70.9453 83.8875 71.5157 83.5008 72.057C83.1142 72.5983 82.6888 73.0527 82.2248 73.42C81.7608 73.7873 81.2678 73.971 80.7458 73.971C80.4172 73.971 80.1272 73.8937 79.8758 73.739C79.6245 73.565 79.4312 73.3233 79.2958 73.014C79.1798 72.6853 79.1218 72.289 79.1218 71.825C79.1218 71.361 79.2185 70.839 79.4118 70.259C79.1605 70.7037 78.8802 71.1483 78.5708 71.593C78.2808 72.0183 77.9618 72.4147 77.6138 72.782C77.2852 73.13 76.9372 73.42 76.5698 73.652C76.2025 73.8647 75.8448 73.971 75.4968 73.971C75.3422 73.971 75.1682 73.9613 74.9748 73.942C74.8008 73.9033 74.6268 73.8357 74.4528 73.739C74.2788 73.6423 74.1145 73.507 73.9598 73.333C73.8245 73.159 73.7278 72.9367 73.6698 72.666C73.6118 72.3567 73.6022 72.057 73.6408 71.767C73.6795 71.477 73.7472 71.1967 73.8438 70.926C73.9598 70.636 74.0855 70.3653 74.2208 70.114C74.3755 69.8433 74.5205 69.5727 74.6558 69.302C74.5592 69.302 74.4625 69.273 74.3658 69.215C74.2885 69.157 74.2982 69.0313 74.3948 68.838C74.4915 68.6833 74.5785 68.519 74.6558 68.345C74.7332 68.171 74.8202 67.997 74.9168 67.823C75.2068 67.2623 75.4968 66.7017 75.7868 66.141C76.0768 65.5803 76.3282 65.0777 76.5408 64.633C76.6568 64.401 76.8018 64.2463 76.9758 64.169C77.1692 64.0723 77.4012 64.024 77.6718 64.024H79.4408C79.2668 64.14 79.1122 64.2657 78.9768 64.401C78.8415 64.517 78.6965 64.662 78.5418 64.836C78.4065 65.01 78.2615 65.2227 78.1068 65.474C77.9522 65.7253 77.7782 66.054 77.5848 66.46C77.3142 66.9627 77.0725 67.446 76.8598 67.91C76.6472 68.316 76.4442 68.7317 76.2508 69.157C76.0575 69.5823 75.8932 69.9303 75.7578 70.201C75.4098 70.955 75.2165 71.5833 75.1778 72.086C75.1392 72.5887 75.2068 72.9463 75.3808 73.159C75.5742 73.3523 75.8545 73.3813 76.2218 73.246C76.5892 73.0913 77.0048 72.7433 77.4688 72.202C77.8748 71.738 78.2712 71.187 78.6578 70.549C79.0638 69.911 79.4505 69.2537 79.8178 68.577C80.1852 67.881 80.5332 67.1947 80.8618 66.518C81.2098 65.8413 81.5192 65.213 81.7898 64.633C81.9058 64.401 82.0508 64.2463 82.2248 64.169C82.4182 64.0723 82.6502 64.024 82.9208 64.024H84.4868C84.2742 64.198 84.0905 64.3623 83.9358 64.517C83.7812 64.6523 83.6265 64.8263 83.4718 65.039C83.3365 65.2323 83.1915 65.4837 83.0368 65.793C82.8822 66.083 82.6985 66.4503 82.4858 66.895C82.2732 67.301 82.0605 67.7263 81.8478 68.171C81.6545 68.5963 81.4612 69.0217 81.2678 69.447C81.0938 69.853 80.9392 70.2397 80.8038 70.607C80.6685 70.955 80.5815 71.2547 80.5428 71.506C80.4075 72.1247 80.4075 72.5693 80.5428 72.84C80.6975 73.0913 80.8812 73.2267 81.0938 73.246C81.4418 73.246 81.7898 73.0913 82.1378 72.782C82.5052 72.4727 82.8532 72.086 83.1818 71.622C83.5105 71.1387 83.8198 70.6167 84.1098 70.056C84.4192 69.476 84.6995 68.925 84.9508 68.403C85.0668 68.1517 85.1925 68.0647 85.3278 68.142C85.4825 68.2 85.4922 68.374 85.3568 68.664ZM82.0798 73.507C81.6932 73.8163 81.2968 74.174 80.8908 74.58C80.5042 74.986 80.1368 75.4017 79.7888 75.827C79.4602 76.2523 79.1895 76.6777 78.9768 77.103C78.7642 77.5283 78.6482 77.9053 78.6288 78.234C78.6288 78.5047 78.6868 78.727 78.8028 78.901C78.9188 79.0943 79.1412 79.191 79.4698 79.191C79.7405 79.191 80.0015 79.0943 80.2528 78.901C80.5235 78.7077 80.7555 78.5143 80.9488 78.321C80.9875 78.2823 81.0552 78.2533 81.1518 78.234C81.2485 78.234 81.2775 78.3017 81.2388 78.437C81.2002 78.5917 81.1035 78.756 80.9488 78.93C80.8135 79.1233 80.6202 79.2973 80.3688 79.452C80.1175 79.626 79.8275 79.771 79.4988 79.887C79.1895 80.003 78.8512 80.061 78.4838 80.061C78.1165 80.061 77.7975 79.9547 77.5268 79.742C77.2755 79.5293 77.1595 79.2007 77.1788 78.756C77.1982 78.3113 77.3818 77.799 77.7298 77.219C78.0972 76.639 78.5322 76.0783 79.0348 75.537C79.5375 74.9957 80.0498 74.5123 80.5718 74.087C81.1132 73.6617 81.5578 73.3717 81.9058 73.217C81.9638 73.217 82.0122 73.217 82.0508 73.217C82.1088 73.217 82.1185 73.3137 82.0798 73.507ZM95.7221 68.664C95.4901 69.1667 95.2194 69.7273 94.9101 70.346C94.6007 70.9453 94.2527 71.5157 93.8661 72.057C93.4794 72.5983 93.0541 73.0527 92.5901 73.42C92.1261 73.7873 91.6331 73.971 91.1111 73.971C90.7824 73.971 90.4924 73.8937 90.2411 73.739C89.9897 73.565 89.7964 73.3233 89.6611 73.014C89.5451 72.6853 89.4871 72.289 89.4871 71.825C89.4871 71.361 89.5837 70.839 89.7771 70.259C89.5257 70.7037 89.2454 71.1483 88.9361 71.593C88.6461 72.0183 88.3271 72.4147 87.9791 72.782C87.6504 73.13 87.3024 73.42 86.9351 73.652C86.5677 73.8647 86.2101 73.971 85.8621 73.971C85.7074 73.971 85.5334 73.9613 85.3401 73.942C85.1661 73.9033 84.9921 73.8357 84.8181 73.739C84.6441 73.6423 84.4797 73.507 84.3251 73.333C84.1897 73.159 84.0931 72.9367 84.0351 72.666C83.9771 72.3567 83.9674 72.057 84.0061 71.767C84.0447 71.477 84.1124 71.1967 84.2091 70.926C84.3251 70.636 84.4507 70.3653 84.5861 70.114C84.7407 69.8433 84.8857 69.5727 85.0211 69.302C84.9244 69.302 84.8277 69.273 84.7311 69.215C84.6537 69.157 84.6634 69.0313 84.7601 68.838C84.8567 68.6833 84.9437 68.519 85.0211 68.345C85.0984 68.171 85.1854 67.997 85.2821 67.823C85.5721 67.2623 85.8621 66.7017 86.1521 66.141C86.4421 65.5803 86.6934 65.0777 86.9061 64.633C87.0221 64.401 87.1671 64.2463 87.3411 64.169C87.5344 64.0723 87.7664 64.024 88.0371 64.024H89.8061C89.6321 64.14 89.4774 64.2657 89.3421 64.401C89.2067 64.517 89.0617 64.662 88.9071 64.836C88.7717 65.01 88.6267 65.2227 88.4721 65.474C88.3174 65.7253 88.1434 66.054 87.9501 66.46C87.6794 66.9627 87.4377 67.446 87.2251 67.91C87.0124 68.316 86.8094 68.7317 86.6161 69.157C86.4227 69.5823 86.2584 69.9303 86.1231 70.201C85.7751 70.955 85.5817 71.5833 85.5431 72.086C85.5044 72.5887 85.5721 72.9463 85.7461 73.159C85.9394 73.3523 86.2197 73.3813 86.5871 73.246C86.9544 73.0913 87.3701 72.7433 87.8341 72.202C88.2401 71.738 88.6364 71.187 89.0231 70.549C89.4291 69.911 89.8157 69.2537 90.1831 68.577C90.5504 67.881 90.8984 67.1947 91.2271 66.518C91.5751 65.8413 91.8844 65.213 92.1551 64.633C92.2711 64.401 92.4161 64.2463 92.5901 64.169C92.7834 64.0723 93.0154 64.024 93.2861 64.024H94.8521C94.6394 64.198 94.4557 64.3623 94.3011 64.517C94.1464 64.6523 93.9917 64.8263 93.8371 65.039C93.7017 65.2323 93.5567 65.4837 93.4021 65.793C93.2474 66.083 93.0637 66.4503 92.8511 66.895C92.6384 67.301 92.4257 67.7263 92.2131 68.171C92.0197 68.5963 91.8264 69.0217 91.6331 69.447C91.4591 69.853 91.3044 70.2397 91.1691 70.607C91.0337 70.955 90.9467 71.2547 90.9081 71.506C90.7727 72.1247 90.7727 72.5693 90.9081 72.84C91.0627 73.0913 91.2464 73.2267 91.4591 73.246C91.8071 73.246 92.1551 73.0913 92.5031 72.782C92.8704 72.4727 93.2184 72.086 93.5471 71.622C93.8757 71.1387 94.1851 70.6167 94.4751 70.056C94.7844 69.476 95.0647 68.925 95.3161 68.403C95.4321 68.1517 95.5577 68.0647 95.6931 68.142C95.8477 68.2 95.8574 68.374 95.7221 68.664ZM109.596 68.867C109.48 69.1377 109.297 69.5533 109.045 70.114C108.794 70.6747 108.475 71.245 108.088 71.825C107.721 72.3857 107.286 72.8883 106.783 73.333C106.281 73.7583 105.73 73.971 105.13 73.971C104.705 73.971 104.338 73.9033 104.028 73.768C103.738 73.6327 103.506 73.4587 103.332 73.246C102.926 73.536 102.511 73.7777 102.085 73.971C101.679 74.145 101.264 74.2223 100.838 74.203C100.297 74.1837 99.8716 74.029 99.5623 73.739C99.253 73.4297 99.0403 73.0333 98.9243 72.55C98.8276 72.0667 98.818 71.5253 98.8953 70.926C98.992 70.3073 99.1756 69.679 99.4463 69.041C99.717 68.3837 100.055 67.765 100.461 67.185C100.887 66.5857 101.341 66.0733 101.824 65.648C102.327 65.2033 102.83 64.8553 103.332 64.604C103.854 64.3527 104.357 64.2367 104.84 64.256C105.382 64.256 105.807 64.4107 106.116 64.72C106.445 65.0293 106.658 65.4257 106.754 65.909C106.87 66.3923 106.88 66.9433 106.783 67.562C106.706 68.1613 106.532 68.78 106.261 69.418C106.049 69.9207 105.73 70.4813 105.304 71.1C104.879 71.7187 104.396 72.2793 103.854 72.782C104.106 73.2653 104.55 73.507 105.188 73.507C105.652 73.507 106.087 73.3137 106.493 72.927C106.899 72.5403 107.267 72.086 107.595 71.564C107.943 71.042 108.243 70.5103 108.494 69.969C108.765 69.4083 108.987 68.954 109.161 68.606C109.239 68.4513 109.355 68.403 109.509 68.461C109.664 68.519 109.693 68.6543 109.596 68.867ZM105.449 64.981C105.14 64.9037 104.802 64.952 104.434 65.126C104.086 65.2807 103.729 65.532 103.361 65.88C102.994 66.228 102.636 66.6533 102.288 67.156C101.96 67.6393 101.67 68.1613 101.418 68.722C101.148 69.302 100.925 69.853 100.751 70.375C100.597 70.897 100.5 71.3707 100.461 71.796C100.423 72.202 100.452 72.55 100.548 72.84C100.645 73.1107 100.819 73.2847 101.07 73.362C101.341 73.4393 101.641 73.4103 101.969 73.275C102.317 73.1397 102.665 72.927 103.013 72.637C102.704 72.1923 102.549 71.7283 102.549 71.245C102.569 70.9163 102.646 70.636 102.781 70.404C102.936 70.1527 103.187 70.027 103.535 70.027C103.787 70.027 103.99 70.114 104.144 70.288C104.318 70.462 104.405 70.6553 104.405 70.868C104.405 70.926 104.396 70.984 104.376 71.042C104.376 71.0807 104.367 71.129 104.347 71.187C104.657 70.7423 104.947 70.23 105.217 69.65C105.488 69.07 105.701 68.519 105.855 67.997C106.01 67.4557 106.097 66.982 106.116 66.576C106.155 66.1507 106.116 65.8027 106 65.532C105.884 65.242 105.701 65.0583 105.449 64.981ZM96.3723 69.824C96.2563 70.0753 96.1596 70.2783 96.0823 70.433C96.005 70.5877 95.918 70.781 95.8213 71.013C95.7246 71.245 95.5893 71.5543 95.4153 71.941C95.2413 72.3277 94.9996 72.8787 94.6903 73.594C94.5743 73.8067 94.439 73.9323 94.2843 73.971C94.1296 74.0097 93.8976 74.029 93.5883 74.029C93.3756 74.0483 93.2016 74.058 93.0663 74.058C92.9116 74.058 92.757 74.1063 92.6023 74.203C93.2983 72.811 93.9556 71.4383 94.5743 70.085C95.2123 68.7317 95.889 67.3977 96.6043 66.083C96.9716 65.387 97.2906 64.9037 97.5613 64.633C97.832 64.3623 98.1993 64.2367 98.6633 64.256C98.8566 64.2753 99.05 64.314 99.2433 64.372C99.456 64.4107 99.6686 64.4107 99.8813 64.372C99.6686 64.488 99.4076 64.7393 99.0983 65.126C98.8083 65.5127 98.499 65.967 98.1703 66.489C97.861 67.011 97.542 67.5717 97.2133 68.171C96.904 68.751 96.6236 69.302 96.3723 69.824ZM101.679 68.084C101.525 68.4513 101.283 68.809 100.954 69.157C100.626 69.505 100.239 69.6597 99.7943 69.621C99.4076 69.5823 99.021 69.4663 98.6343 69.273C98.2476 69.0603 97.861 68.9347 97.4743 68.896C97.2616 68.8767 97.0683 68.9347 96.8943 69.07C96.7203 69.186 96.585 69.331 96.4883 69.505C96.4883 69.5437 96.4593 69.5727 96.4013 69.592C96.3433 69.592 96.2853 69.592 96.2273 69.592C96.1693 69.5727 96.121 69.563 96.0823 69.563C96.0436 69.5437 96.034 69.5147 96.0533 69.476C96.1306 69.302 96.237 69.128 96.3723 68.954C96.5076 68.78 96.6526 68.6253 96.8073 68.49C96.962 68.3353 97.136 68.2193 97.3293 68.142C97.5226 68.0647 97.7256 68.0357 97.9383 68.055C98.151 68.055 98.354 68.0937 98.5473 68.171C98.7406 68.229 98.9243 68.2967 99.0983 68.374C99.2916 68.4513 99.4753 68.5287 99.6493 68.606C99.8426 68.664 100.036 68.7027 100.229 68.722C100.5 68.7607 100.713 68.722 100.867 68.606C101.041 68.4707 101.177 68.2967 101.273 68.084C101.312 68.026 101.399 68.0067 101.534 68.026C101.67 68.026 101.718 68.0453 101.679 68.084Z" fill="#4C4C4C"/>
<defs>
<clipPath id="clip0">
<rect width="156" height="115" fill="white"/>
</clipPath>
</defs>
</svg>
