<svg width="26" height="35" viewBox="0 0 26 35" fill="none" xmlns="http://www.w3.org/2000/svg">
<path d="M25.2778 13.125H23.1111V10.2083C23.1111 4.57552 18.5792 0 13 0C7.42083 0 2.88889 4.57552 2.88889 10.2083V13.125H0.722222C0.325 13.125 0 13.4531 0 13.8542V32.0833C0 33.6875 1.3 35 2.88889 35H23.1111C24.7 35 26 33.6875 26 32.0833V13.8542C26 13.4531 25.675 13.125 25.2778 13.125ZM15.1667 28.3555C15.1937 28.5651 15.1215 28.7656 14.9861 28.9206C14.8507 29.0755 14.6521 29.1667 14.4444 29.1667H11.5556C11.3479 29.1667 11.1583 29.0755 11.0139 28.9206C10.8694 28.7656 10.8153 28.556 10.8333 28.3555L11.2847 24.2174C10.5444 23.6706 10.1021 22.8138 10.1021 21.875C10.1021 20.2708 11.4021 18.9583 12.991 18.9583C14.5799 18.9583 15.8799 20.2708 15.8799 21.875C15.8799 22.8138 15.4375 23.6797 14.6972 24.2174L15.1667 28.3555ZM18.7778 13.125H7.22222V10.2083C7.22222 6.99089 9.81319 4.375 13 4.375C16.1868 4.375 18.7778 6.99089 18.7778 10.2083V13.125Z" fill="#F7E8CB"/>
</svg>
