<svg width="42" height="42" viewBox="0 0 42 42" fill="none" xmlns="http://www.w3.org/2000/svg">
<path d="M37.8473 36.0525C43.944 28.9467 43.1996 18.2221 36.3232 12C39.8559 24.5159 30.5101 37.0199 17.6434 37.0199C17.3953 37.0199 18.8958 37.0318 13 36.996C16.2255 40.2325 20.5145 42 24.9924 42C25.0042 42 40.7775 41.9164 40.7893 41.9164C41.8645 41.9164 42.408 40.5908 41.64 39.8145L37.8473 36.0525Z" fill="#F7E8CB"/>
<path d="M17.5041 35C27.1457 35 35 27.1439 35 17.5C35 7.85615 27.1457 0 17.5041 0C7.86258 0 0.00828736 7.85615 0.00828736 17.5C0.00828736 21.7443 1.51592 25.7696 4.26371 28.9437L0.373038 32.7867C-0.417255 33.565 0.129871 34.9149 1.24844 34.927C1.2606 34.9149 17.492 35 17.5041 35ZM10.0632 11.3099H25.018C25.711 11.3099 26.2703 11.8694 26.2703 12.5625C26.2703 13.2557 25.711 13.8152 25.018 13.8152H10.0632C9.37021 13.8152 8.81093 13.2557 8.81093 12.5625C8.81093 11.8694 9.38237 11.3099 10.0632 11.3099ZM10.0632 16.296H25.018C25.711 16.296 26.2703 16.8555 26.2703 17.5486C26.2703 18.2418 25.711 18.8013 25.018 18.8013H10.0632C9.37021 18.8013 8.81093 18.2418 8.81093 17.5486C8.82309 16.8555 9.38237 16.296 10.0632 16.296ZM8.82309 22.5347C8.82309 21.8416 9.38237 21.2821 10.0754 21.2821H25.0302C25.7232 21.2821 26.2825 21.8416 26.2825 22.5347C26.2825 23.2279 25.7232 23.7874 25.0302 23.7874H10.0754C9.38237 23.7752 8.82309 23.2158 8.82309 22.5347Z" fill="#F7E8CB"/>
</svg>
