<svg width="45" height="44" viewBox="0 0 45 44" fill="none" xmlns="http://www.w3.org/2000/svg">
<path d="M37.9501 6.46648C33.8512 2.36412 28.3121 0.0911865 22.496 0.0911865C16.6245 0.0911865 11.1408 2.36412 7.04186 6.46648C2.94291 10.5688 0.671875 16.1126 0.671875 21.9335C0.671875 27.8098 2.94291 33.2981 7.04186 37.4005C11.1408 41.5029 16.6799 43.7758 22.496 43.7758C28.3121 43.7758 33.8512 41.5029 37.9501 37.4005C46.4804 28.8632 46.4804 15.0038 37.9501 6.46648ZM36.6761 36.1255C28.866 43.9421 16.126 43.9421 8.31586 36.1255C0.505701 28.3088 0.505701 15.5582 8.31586 7.74154C12.0825 3.9718 17.1231 1.86518 22.496 1.86518C27.8689 1.86518 32.9095 3.9718 36.6761 7.74154C44.4863 15.5582 44.4863 28.3088 36.6761 36.1255Z" fill="#F7E8CB"/>
<path d="M35.4024 11.234C35.0146 11.5111 34.9038 12.121 35.2362 12.509C39.8337 18.7734 39.169 27.588 33.6852 33.0763C30.6941 36.0699 26.706 37.733 22.4962 37.733C18.2865 37.733 14.2983 36.0699 11.3072 33.0763C8.31609 30.0826 6.65435 26.0912 6.65435 21.8779C6.65435 17.6647 8.31609 13.6732 11.3072 10.6796C17.1787 4.80323 26.5952 4.47061 32.8544 9.90347C33.0205 10.0698 33.2975 10.1252 33.5191 10.1252C33.7406 10.1252 33.9622 10.0143 34.1284 9.79259C34.2945 9.62628 34.3499 9.34909 34.3499 9.12735C34.3499 8.9056 34.2391 8.68385 34.0176 8.51754C27.0937 2.47487 16.514 2.86293 10.0332 9.3491C6.70974 12.6753 4.88184 17.1103 4.88184 21.8225C4.88184 26.5347 6.70974 30.9697 10.0332 34.2959C13.3567 37.6221 17.788 39.4516 22.4962 39.4516C27.2045 39.4516 31.6358 37.6221 34.9592 34.2959C41.1077 28.1423 41.8277 18.2745 36.6764 11.3448C36.344 11.0122 35.7901 10.9568 35.4024 11.234Z" fill="#F7E8CB"/>
<path d="M20.5021 33.9634H24.4349C25.875 33.9634 27.0382 32.7992 27.0382 31.3578V26.4793H31.9127C33.3528 26.4793 34.5161 25.3151 34.5161 23.8738V19.9377C34.5161 18.4964 33.3528 17.3322 31.9127 17.3322H27.0382V12.4537C27.0382 11.0123 25.875 9.84814 24.4349 9.84814H20.5021C19.0619 9.84814 17.8987 11.0123 17.8987 12.4537V17.3322H13.0243C11.5841 17.3322 10.4209 18.4964 10.4209 19.9377V23.8738C10.4209 25.3151 11.5841 26.4793 13.0243 26.4793H17.8987V31.3578C17.8987 32.7992 19.0619 33.9634 20.5021 33.9634ZM12.2488 19.9377C12.2488 19.4942 12.6365 19.1616 13.0243 19.1616H18.785C19.2835 19.1616 19.6712 18.7735 19.6712 18.2746V12.5091C19.6712 12.0656 20.059 11.733 20.4467 11.733H24.3795C24.8226 11.733 25.2103 12.0656 25.2103 12.5091V18.2746C25.2103 18.7735 25.5981 19.1616 26.0966 19.1616H31.8573C32.3004 19.1616 32.6881 19.4942 32.6881 19.9377V23.8738C32.6881 24.3173 32.3004 24.6499 31.8573 24.6499H26.152C25.6535 24.6499 25.2657 25.038 25.2657 25.5369V31.3024C25.2657 31.7459 24.878 32.0785 24.4349 32.0785H20.5021C20.059 32.0785 19.7266 31.6904 19.7266 31.3024V25.5923C19.7266 25.0934 19.3389 24.7053 18.8404 24.7053H13.0243C12.5812 24.7053 12.2488 24.3727 12.2488 23.9292V19.9377Z" fill="#F7E8CB"/>
</svg>
