<svg width="32" height="38" viewBox="0 0 32 38" fill="none" xmlns="http://www.w3.org/2000/svg">
<path d="M31.1703 23.3899C30.3836 22.3987 28.8104 21.7954 26.8875 22.2694C27.106 21.1059 27.1934 20.1578 27.2371 19.7699V19.7268C27.9363 16.3654 27.5867 13.8228 26.1009 12.1852C25.7949 11.8404 25.489 11.625 25.1394 11.3664L28.8978 6.10879C29.1163 5.80713 29.0289 5.41927 28.723 5.2038C28.417 4.98832 28.0237 5.07451 27.8052 5.37618L23.9595 10.7631C22.8669 10.3321 21.7307 10.2459 20.9877 10.2459C21.0751 8.47902 19.9389 6.8845 18.1908 6.32427C13.9518 4.94523 13.2088 2.05786 13.0777 1.49763C13.034 1.28215 12.9029 1.06668 12.6844 0.937393C12.4659 0.808108 12.2037 0.808108 11.9852 0.894298C3.50703 4.3419 3.98775 10.0735 4.42476 11.9697C2.63299 12.5299 1.40934 13.478 0.797517 14.814C-0.207624 17.0549 0.884921 19.4682 1.10343 19.9423C1.27824 21.7954 2.23968 29.2077 7.44019 33.2586H1.80266C1.49674 33.2586 1.19083 33.431 1.05973 33.7327C0.928623 34.0344 0.972324 34.3791 1.23453 34.6377C1.32194 34.7239 1.36564 34.8101 1.45304 34.8963C2.23968 35.8874 3.68184 37.7405 10.4119 37.7836C11.0237 37.7836 12.597 37.7836 14.214 37.7836C15.7872 37.7836 17.4042 37.7836 18.016 37.7836C24.7024 37.7405 26.1883 35.8874 26.9749 34.8963C27.0623 34.8101 27.106 34.7239 27.1934 34.6377C27.4119 34.4222 27.4993 34.0344 27.3682 33.7327C27.2371 33.431 26.9749 33.2586 26.6253 33.2586H20.9003C21.8618 32.4829 22.6921 31.621 23.3913 30.6729C23.5661 30.6729 23.7847 30.6729 24.0906 30.6729C25.7949 30.6729 29.0289 30.3282 30.908 27.8287C32.3065 26.0187 31.9569 24.338 31.1703 23.3899ZM17.9723 36.4477C16.7487 36.4477 11.6356 36.4477 10.4119 36.4477C5.47361 36.4046 3.76924 35.4134 2.93891 34.5946H25.4453C24.615 35.4134 22.9106 36.4477 17.9723 36.4477ZM2.06487 15.3742C2.54559 14.2968 3.63813 13.5211 5.3425 13.0902C5.56101 13.0471 5.73582 12.8747 5.82322 12.7023C5.91063 12.5299 5.95433 12.3145 5.86693 12.099C5.51731 11.0647 4.16256 5.80713 11.9415 2.35953C12.3785 3.65238 13.6895 6.28117 17.7538 7.57402C19.0212 7.96188 19.8078 9.21163 19.633 10.4614L19.5893 10.6338C19.5456 10.8923 19.633 11.1509 19.7641 11.3233C19.9389 11.4957 20.1574 11.5819 20.4196 11.5819C20.944 11.5388 23.5661 11.3664 25.052 13.0471C26.1446 14.2968 26.4505 16.2792 25.9697 18.9511H2.15227C1.89006 18.1754 1.45304 16.6671 2.06487 15.3742ZM25.8386 20.244C25.7075 21.3213 25.3579 23.5192 24.4402 25.8894C24.0469 26.148 19.6767 29.0784 14.5199 25.8463C9.71268 22.8297 5.3425 24.5965 3.72554 25.4584C2.9389 23.2606 2.58929 21.2351 2.50189 20.244H25.8386ZM20.07 32.2244C19.2834 32.8277 18.2782 33.1725 17.1857 33.1725H11.1548C10.0623 33.1725 9.05716 32.8277 8.27052 32.2244C6.39135 30.716 5.08029 28.6906 4.20626 26.6651C5.3862 25.9756 9.31937 24.1225 13.7769 26.9237C15.7872 28.1734 17.7538 28.6044 19.4145 28.6044C21.0751 28.6044 22.5173 28.1734 23.5661 27.7856C22.7795 29.4232 21.5996 31.0177 20.07 32.2244ZM29.8155 27.0961C28.3296 29.0353 25.7512 29.3801 24.2654 29.3801C25.4016 27.4839 26.1009 25.5015 26.5379 23.7777C28.1985 23.0882 29.5533 23.5192 30.1214 24.2087C30.7332 24.9413 30.6458 26.0187 29.8155 27.0961Z" fill="#F7E8CB"/>
<path d="M5.99784 17.529C5.99784 17.529 6.04154 17.529 5.99784 17.529C6.39115 17.529 6.69706 17.2705 6.69706 16.9257C6.74077 16.0207 7.04668 15.3743 7.5711 15.0295C8.53254 14.2969 10.1058 14.6848 10.1495 14.6848C10.4991 14.771 10.8487 14.5555 10.9798 14.2107C11.0672 13.866 10.8487 13.4781 10.4991 13.3919C10.4117 13.3488 8.31403 12.8748 6.82817 13.9522C5.95413 14.5555 5.47341 15.5467 5.38601 16.8395C5.34231 17.1843 5.64822 17.4859 5.99784 17.529Z" fill="#F7E8CB"/>
<path d="M20.5508 15.4604C20.5508 15.4604 21.4248 15.2449 22.0366 15.6328C22.3863 15.8482 22.5611 16.193 22.6922 16.7101C22.7359 17.0118 23.0418 17.2704 23.3477 17.2704C23.3914 17.2704 23.4351 17.2704 23.4788 17.2704C23.8284 17.2273 24.0906 16.8825 24.0032 16.4947C23.8284 15.5897 23.4351 14.9432 22.7796 14.5123C21.687 13.8228 20.376 14.1244 20.2012 14.1675C19.8515 14.2537 19.633 14.5985 19.7204 14.9863C19.8078 15.3311 20.1575 15.5466 20.5508 15.4604Z" fill="#F7E8CB"/>
<path d="M8.13929 10.3753C8.183 10.3753 8.183 10.3753 8.2267 10.3753C8.53261 10.3753 8.83852 10.1598 8.88222 9.81503C9.14443 7.96194 11.2421 7.57409 11.3295 7.53099C11.6791 7.4448 11.9413 7.10004 11.8539 6.75528C11.7665 6.41052 11.4606 6.15195 11.0673 6.23814C10.9362 6.28124 7.96449 6.84147 7.57117 9.59955C7.52747 9.98741 7.78968 10.3322 8.13929 10.3753Z" fill="#F7E8CB"/>
<path d="M13.2967 10.9354C13.9086 10.8062 15.7877 10.6338 16.5307 11.4957C16.6618 11.6681 16.8366 11.7542 17.0551 11.7542C17.1862 11.7542 17.361 11.7111 17.4921 11.625C17.798 11.4095 17.8417 10.9785 17.5795 10.6769C16.1811 8.99616 13.1656 9.64258 13.0345 9.64258C12.6849 9.72877 12.4227 10.0735 12.5101 10.4183C12.5538 10.8062 12.9034 11.0216 13.2967 10.9354Z" fill="#F7E8CB"/>
</svg>
