<svg width="38" height="35" viewBox="0 0 38 35" fill="none" xmlns="http://www.w3.org/2000/svg">
<path d="M32.8389 28.621H17.6391C17.2946 28.621 16.9932 28.9226 16.9932 29.2674C16.9932 29.6122 17.2946 29.9138 17.6391 29.9138H32.8389C33.1834 29.9138 33.4848 29.6122 33.4848 29.2674C33.4848 28.9226 33.1834 28.621 32.8389 28.621Z" fill="#F7E8CB"/>
<path d="M32.8389 31.1205H17.6391C17.2946 31.1205 16.9932 31.4221 16.9932 31.7669C16.9932 32.1117 17.2946 32.4133 17.6391 32.4133H32.8389C33.1834 32.4133 33.4848 32.1117 33.4848 31.7669C33.4848 31.4221 33.1834 31.1205 32.8389 31.1205Z" fill="#F7E8CB"/>
<path d="M37.661 19.1832C37.2735 18.4937 36.1109 16.0372 37.661 13.0206C37.7902 12.762 37.7902 12.4604 37.661 12.2449C37.5318 11.9863 37.2735 11.857 37.0151 11.857H15.4856C15.2272 11.857 14.9258 11.9001 14.6674 11.9432V2.97946C14.6674 1.42804 13.4618 0.135193 11.9547 0.135193H9.67257C8.98362 0.135193 8.29468 0.393762 7.77797 0.910903C7.69185 0.997093 7.64879 1.08328 7.56267 1.16947C7.04596 0.523049 6.31396 0.135193 5.49583 0.135193H3.2137C2.4817 0.135193 1.83581 0.393762 1.3191 0.910903C0.802391 1.42804 0.500977 2.16066 0.500977 2.93637V4.70326V9.09895L0.544035 31.8962C0.544035 33.4476 1.74969 34.7405 3.25676 34.7405H5.53889C6.22784 34.7405 6.91678 34.4388 7.43349 33.9648C7.51961 33.8786 7.56267 33.7924 7.64879 33.7062C8.1655 34.3526 8.89751 34.7405 9.71563 34.7405H11.9978C12.5575 34.7405 13.1173 34.525 13.591 34.1802C14.1507 34.525 14.7966 34.7405 15.4856 34.7405H36.972C37.2304 34.7405 37.4888 34.6112 37.6179 34.3526C37.7471 34.094 37.7471 33.7924 37.6179 33.5769C37.2304 32.8874 36.0678 30.431 37.6179 27.4143C37.7041 27.2419 37.7041 26.5093 37.6179 26.38C37.2304 25.6905 36.0678 23.2341 37.6179 20.2175C37.7902 20.0882 37.7471 19.3556 37.661 19.1832ZM36.197 26.2939H15.5286C15.2703 26.2939 15.0119 26.2508 14.7535 26.1646V20.5622C15.0119 20.476 15.2703 20.4329 15.5286 20.4329H36.24C35.2066 22.9324 35.7233 25.0872 36.197 26.2939ZM1.87887 30.3879L1.83581 9.78847H6.95984L7.0029 30.3879L4.93607 28.4917C4.63465 28.2331 4.20406 28.2331 3.90265 28.4917L1.87887 30.3879ZM13.4187 8.49562H8.29468V5.43588H13.4187V8.49562ZM6.95984 8.49562H1.83581V5.43588H6.95984V8.49562ZM8.29468 30.3879L8.25162 9.78847H13.4187L13.4618 30.3879L11.3949 28.4917C11.0935 28.2331 10.6629 28.2331 10.3615 28.4917L8.29468 30.3879ZM15.4856 13.193H36.24C35.2066 15.7356 35.7233 17.8903 36.197 19.097H15.5286C15.2703 19.097 15.0119 19.0539 14.7535 18.9677V13.3654C14.9688 13.2361 15.2272 13.193 15.4856 13.193ZM8.72527 1.90209C8.98362 1.64352 9.3281 1.47114 9.71563 1.47114H11.9978C12.7728 1.47114 13.4187 2.16066 13.4187 3.02256V4.09993H8.29468V2.97946C8.29468 2.54851 8.42385 2.16066 8.72527 1.90209ZM2.2664 1.90209C2.52475 1.64352 2.86923 1.47114 3.25676 1.47114H5.53889C6.31396 1.47114 6.95984 2.16066 6.95984 3.02256V4.09993H1.83581V2.97946C1.83581 2.54851 2.00805 2.16066 2.2664 1.90209ZM5.58195 33.4907H3.29982C2.56781 33.4907 1.96499 32.8874 1.87887 32.1548L4.41936 29.8276L6.95984 32.1979C6.91679 32.5426 6.78761 32.8443 6.52925 33.1029C6.2709 33.3183 5.92643 33.4907 5.58195 33.4907ZM12.0408 33.4907C12.0408 33.4907 11.9978 33.4907 12.0408 33.4907H9.75869C9.02668 33.4907 8.42385 32.8874 8.33774 32.1548L10.8782 29.8276L13.4187 32.1979C13.3757 32.5426 13.2465 32.8443 12.9881 33.1029C12.7298 33.3183 12.3853 33.4907 12.0408 33.4907ZM36.197 33.4907H15.5286C15.1411 33.4907 14.7966 33.4045 14.4521 33.2322C14.6244 32.8443 14.7535 32.4133 14.7535 31.9824V27.7591C15.0119 27.6729 15.2703 27.5867 15.5286 27.5867H36.24C35.2066 30.1293 35.7233 32.2841 36.197 33.4907Z" fill="#F7E8CB"/>
<path d="M32.8389 21.4242H17.6391C17.2946 21.4242 16.9932 21.7259 16.9932 22.0706C16.9932 22.4154 17.2946 22.717 17.6391 22.717H18.0696V24.6132C18.0696 24.9149 18.1988 25.1735 18.4572 25.3027C18.6725 25.432 18.9739 25.432 19.1892 25.2597L20.0073 24.7425L20.8254 25.2597C20.9546 25.3458 21.0838 25.3889 21.213 25.3889C21.3421 25.3889 21.4713 25.3458 21.5574 25.3027C21.8158 25.1735 21.945 24.9149 21.945 24.6132V22.717H32.7959C33.1403 22.717 33.4418 22.4154 33.4418 22.0706C33.4848 21.7259 33.1834 21.4242 32.8389 21.4242ZM20.6962 23.6651L20.4379 23.4928C20.1795 23.3204 19.9212 23.3204 19.6628 23.4928L19.4045 23.6651V22.717H20.7393V23.6651H20.6962Z" fill="#F7E8CB"/>
<path d="M17.6391 15.5632H28.4469V17.4594C28.4469 17.7611 28.5761 18.0197 28.8344 18.1489C29.0497 18.2782 29.3511 18.2782 29.5664 18.1058L30.3846 17.5887L31.2027 18.1058C31.3319 18.192 31.461 18.2351 31.5902 18.2351C31.7194 18.2351 31.8486 18.192 31.9347 18.1489C32.193 18.0197 32.3222 17.7611 32.3222 17.4594V15.5632H32.8389C33.1834 15.5632 33.4848 15.2616 33.4848 14.9168C33.4848 14.5721 33.1834 14.2704 32.8389 14.2704H17.6391C17.2946 14.2704 16.9932 14.5721 16.9932 14.9168C16.9932 15.2616 17.2946 15.5632 17.6391 15.5632ZM31.0735 16.4682L30.8151 16.2959C30.5568 16.1235 30.2984 16.1235 30.0401 16.2959L29.7817 16.4682V15.5201H31.1166V16.4682H31.0735Z" fill="#F7E8CB"/>
</svg>
