<svg width="43" height="35" viewBox="0 0 43 35" fill="none" xmlns="http://www.w3.org/2000/svg">
<path d="M21.4999 34.2636C9.52964 34.2636 1.02962 26.6253 0.945197 26.5482C0.858194 26.4689 0.807807 26.3577 0.804792 26.2401C0.802207 26.1225 0.847849 26.0087 0.930975 25.9255L3.46398 23.3914C3.54883 23.306 3.66726 23.2582 3.78657 23.2655C3.90674 23.2703 4.02002 23.3259 4.09798 23.4181C4.11995 23.4444 5.0003 24.4617 6.74553 25.698C7.43509 24.6565 9.39742 21.6785 10.2743 20.216C11.1883 18.6923 9.24923 12.7863 8.47611 11.6259C8.0579 10.9985 7.501 11.2411 7.29469 11.3647L5.15837 13.502C4.25733 14.4031 2.96262 13.9859 2.90836 13.9683C2.84504 13.9472 2.78733 13.9114 2.73995 13.864L1.65414 12.7777C1.08862 12.2123 1.52192 11.2966 1.57317 11.1941C1.58652 11.1669 1.60288 11.1411 1.62183 11.1178C1.77172 10.9304 3.09487 9.27827 3.4627 8.90984C3.59751 8.77497 3.69871 8.19497 3.69871 7.76665C3.69871 7.71192 3.70904 7.65763 3.72929 7.60678C4.35812 6.0331 6.45566 4.01861 7.20208 3.33433C6.63311 2.16786 6.95271 0.844541 6.96821 0.783783C6.99707 0.667438 7.0733 0.568328 7.17839 0.510586C7.28391 0.452844 7.40711 0.441645 7.52211 0.479564C7.74392 0.553681 9.48269 1.16342 9.89876 2.23293C10.6422 2.1963 12.1858 2.28722 12.8375 3.59158C13.546 5.00841 16.7698 10.387 16.8021 10.4413C16.8181 10.4684 16.8314 10.4969 16.8413 10.5266C16.9499 10.8507 17.126 11.2036 17.2324 11.3182H27.2886C27.3308 11.3169 27.7598 11.291 27.9889 10.8326C28.0337 10.7434 28.0776 10.6361 28.1267 10.518C28.4842 9.65919 29.1492 8.06009 31.631 8.06009C34.527 8.06009 34.9388 12.6062 34.9547 12.7997C34.9565 12.8828 34.9978 17.6422 37.9576 18.9582C38.1256 19.0327 38.2277 19.206 38.2117 19.3891C38.1958 19.5722 38.0653 19.7252 37.887 19.77C37.6983 19.8178 33.219 20.896 31.2661 17.7702C31.2386 17.7258 31.2192 17.6771 31.2089 17.6262C30.8716 15.9436 30.1971 14.3522 29.8216 14.3522C29.7294 14.3522 29.5653 14.491 29.4227 14.7956C28.9993 15.7005 28.9455 17.6267 30.1523 19.0758C31.6848 20.9154 35.1998 24.7423 36.1814 25.8079C37.921 24.5742 38.807 23.5314 38.8957 23.4245C38.9732 23.3315 39.0874 23.2729 39.2088 23.2677C39.3376 23.2578 39.4496 23.306 39.5349 23.3918L42.0679 25.926C42.151 26.0091 42.1967 26.1229 42.1941 26.2405C42.1911 26.3582 42.1407 26.4693 42.0537 26.5486C41.9705 26.6253 33.4701 34.2636 21.4999 34.2636ZM1.86994 26.2048C3.54798 27.5897 11.2068 33.4018 21.4999 33.4018C31.7929 33.4018 39.4517 27.5897 41.1298 26.2048L39.2471 24.3208C38.7971 24.794 37.8723 25.6838 36.4506 26.6632C36.4407 26.6749 36.4295 26.6861 36.4183 26.6969C36.3735 26.7378 36.3226 26.768 36.2692 26.7869C33.3628 28.7458 28.495 31.0051 21.4999 31.0051C10.9027 31.0051 5.12866 25.7484 3.75471 24.3187L1.86994 26.2048ZM10.3962 27.7996C13.173 29.0802 16.8719 30.1433 21.4999 30.1433C26.158 30.1433 29.8306 29.1194 32.5776 27.8702L29.182 23.3181C28.7745 23.1208 27.457 22.3637 26.9741 20.64C26.0261 20.9494 23.7809 21.5923 21.4999 21.5923C19.2188 21.5923 16.9736 20.949 16.0251 20.64C15.5415 22.3671 14.2205 23.1238 13.8156 23.3194L10.3962 27.7996ZM27.2899 19.6442C27.3648 19.6442 27.4389 19.6636 27.5052 19.7019C27.6168 19.7661 27.6938 19.8773 27.7145 20.0044C28.0328 21.9155 29.6053 22.5649 29.6208 22.5713C29.6945 22.6011 29.7587 22.6502 29.8065 22.714L33.3702 27.4915C34.1523 27.0989 34.8492 26.693 35.4617 26.2965C34.3694 25.1107 30.9935 21.4299 29.4916 19.6274C28.1276 17.9891 28.0363 15.7268 28.6436 14.4298C28.9274 13.8235 29.3461 13.49 29.8224 13.49C31.0926 13.49 31.7856 16.1448 32.0384 17.3768C33.1358 19.0534 35.2541 19.1935 36.5565 19.0948C34.1273 17.0992 34.0959 13.028 34.0959 12.8346C34.0942 12.8311 33.7388 8.92105 31.6318 8.92105C29.7246 8.92105 29.2612 10.0349 28.9231 10.8481C28.865 10.9873 28.8124 11.1126 28.7603 11.2169C28.3808 11.9766 27.6568 12.1791 27.2894 12.1791H25.1871V13.1965C25.1871 15.2308 23.5328 16.8855 21.4994 16.8855C19.466 16.8855 17.8117 15.2308 17.8117 13.1965V12.1791H17.1566C16.6143 12.1791 16.2517 11.4638 16.0398 10.8438C15.7193 10.309 12.7651 5.37295 12.0669 3.97595C11.4954 2.83318 9.64591 3.11887 9.62696 3.12232C9.50249 3.143 9.37458 3.10724 9.27854 3.02494C9.18206 2.94306 9.12606 2.82327 9.12606 2.69701C9.12606 2.27386 8.40937 1.79254 7.73531 1.48745C7.7043 1.94335 7.73746 2.62937 8.10571 3.18222C8.22545 3.36191 8.19357 3.60321 8.03076 3.74541C8.0032 3.76997 5.28285 6.16453 4.55797 7.85369C4.54979 8.18678 4.48907 9.10031 4.07085 9.51829C3.7952 9.79407 2.74772 11.0877 2.32562 11.6147C2.2369 11.8163 2.18908 12.0943 2.26187 12.1666L3.26585 13.1711C3.49456 13.2228 4.12555 13.3133 4.54764 12.891L6.71884 10.7188C6.73909 10.699 6.76104 10.6809 6.7843 10.6649C6.82091 10.6408 7.15299 10.4258 7.60308 10.3693C8.24052 10.2892 8.8039 10.5658 9.1911 11.1463C9.84922 12.1343 12.2646 18.5678 11.0113 20.6577C10.1236 22.1379 8.14403 25.1417 7.45663 26.1802C8.08374 26.5883 8.79916 27.008 9.60243 27.4152L13.1945 22.7088C13.2415 22.6468 13.3048 22.5994 13.3771 22.5701C13.44 22.5442 14.9673 21.8965 15.2834 20.0031C15.3045 19.876 15.3817 19.7653 15.4928 19.7011C15.6039 19.6369 15.7383 19.6252 15.8593 19.6705C15.8873 19.6812 18.7188 20.7292 21.4981 20.7292C24.2831 20.7292 27.1081 19.6812 27.1365 19.6705C27.1873 19.6532 27.239 19.6442 27.2899 19.6442ZM18.674 12.1796V13.1969C18.674 14.756 19.9416 16.0241 21.5003 16.0241C23.059 16.0241 24.3266 14.756 24.3266 13.1969V12.1796H18.674Z" fill="#F7E8CB"/>
<path d="M21.5004 34.479C9.40745 34.479 0.885023 26.7847 0.800174 26.7067C0.670962 26.5891 0.594306 26.4206 0.589999 26.2452C0.586123 26.0685 0.655047 25.8966 0.779091 25.7725L3.31207 23.2383C3.44258 23.1073 3.62692 23.0358 3.80006 23.05C3.97579 23.0569 4.14591 23.1401 4.26263 23.278C4.27125 23.2879 5.08916 24.2324 6.68967 25.392C7.40723 24.3066 9.25066 21.5048 10.0905 20.1043C10.9481 18.6746 9.03445 12.85 8.29794 11.7447C8.0197 11.3272 7.67556 11.3957 7.4279 11.5362L5.3114 13.6537C4.34188 14.6232 2.99334 14.2212 2.84259 14.1725C2.74611 14.1401 2.65869 14.0859 2.58849 14.0152L1.5031 12.9293C0.830332 12.2566 1.32349 11.2139 1.38207 11.0971C1.40231 11.057 1.42687 11.0178 1.45573 10.9825C1.60604 10.7946 2.93606 9.13429 3.31249 8.75725C3.37925 8.67623 3.48521 8.21301 3.48521 7.76616C3.48521 7.68385 3.50072 7.60327 3.53087 7.52657C4.13989 6.00288 6.03716 4.12197 6.94293 3.28127C6.42824 2.0743 6.74696 0.786315 6.76118 0.729866C6.80468 0.556641 6.91924 0.407114 7.07645 0.320932C7.23624 0.233458 7.41928 0.217948 7.5907 0.273966C7.91847 0.383417 9.51383 0.962559 10.0376 2.01182C10.8227 1.99889 12.3586 2.14841 13.0314 3.49457C13.7218 4.8752 16.8535 10.1047 16.9866 10.3266C17.0137 10.3719 17.0331 10.4154 17.0478 10.4585C17.1365 10.7239 17.2605 10.9747 17.3415 11.1018H27.2904C27.2977 11.1014 27.6225 11.0876 27.7982 10.7351C27.8387 10.6541 27.8788 10.5576 27.9227 10.4516C28.2802 9.59278 29.0085 7.84372 31.6328 7.84372C34.7279 7.84372 35.1547 12.5794 35.1711 12.7811C35.1749 12.9926 35.2775 17.5292 38.0469 18.7603C38.2989 18.8724 38.4518 19.1322 38.4281 19.4067C38.404 19.6816 38.2084 19.9109 37.9409 19.9777C37.7467 20.0276 33.1274 21.1519 31.0854 17.883C31.0436 17.8167 31.0147 17.7438 30.9997 17.6667C30.6568 15.9577 30.0689 14.7408 29.8303 14.578C29.7872 14.6129 29.7054 14.7038 29.6201 14.886C29.2204 15.7392 29.1735 17.5607 30.32 18.937C31.7775 20.6865 35.0487 24.2561 36.2134 25.5208C37.8268 24.3535 38.6426 23.3943 38.7326 23.2857C38.8493 23.1448 39.0207 23.0595 39.2016 23.0513C39.3791 23.0375 39.5548 23.1035 39.6896 23.2383L42.2226 25.7725C42.3467 25.8962 42.4156 26.0681 42.4117 26.2439C42.4069 26.4206 42.3307 26.5886 42.2011 26.7067C42.1162 26.7843 33.5934 34.479 21.5004 34.479ZM3.76647 23.4801C3.71047 23.4801 3.65707 23.5033 3.61702 23.543L1.08401 26.0776C1.04223 26.119 1.01983 26.1763 1.02113 26.2353C1.02242 26.2935 1.04827 26.3495 1.09134 26.3887C1.17533 26.4658 9.59178 34.0481 21.5008 34.0481C33.4099 34.0481 41.8259 26.4658 41.9099 26.3891C41.9538 26.3495 41.9793 26.293 41.9806 26.2344C41.9818 26.1763 41.959 26.1189 41.9177 26.078L39.3847 23.5434C39.339 23.4977 39.2873 23.4788 39.2279 23.4818C39.1616 23.4848 39.103 23.5145 39.0638 23.5615C38.9669 23.6779 38.0689 24.7344 36.3086 25.9832L36.1544 26.0927L36.026 25.9535C34.9945 24.834 31.5118 21.0403 29.9896 19.2137C28.7221 17.6917 28.7824 15.6604 29.2299 14.7042C29.3966 14.3487 29.6184 14.1367 29.8238 14.1367C30.5095 14.1367 31.1969 16.4589 31.4222 17.584C31.4274 17.6098 31.4368 17.6335 31.4502 17.6555C33.3272 20.6602 37.6528 19.6075 37.8363 19.561C37.9259 19.5386 37.9909 19.4623 37.9991 19.3705C38.0073 19.2792 37.956 19.1925 37.872 19.1551C34.9053 17.8356 34.7494 13.318 34.7412 12.8073C34.7266 12.6315 34.3359 8.27506 31.6328 8.27506C29.2953 8.27506 28.6898 9.73024 28.3276 10.5998C28.2716 10.7347 28.2276 10.8403 28.1833 10.929C27.8981 11.4995 27.3576 11.5319 27.2964 11.5336H17.1404L17.0766 11.4646C16.9276 11.3043 16.7402 10.8967 16.6386 10.5946C16.6338 10.5796 16.6274 10.5658 16.6188 10.5511C16.4839 10.3266 13.3437 5.0829 12.6464 3.68805C12.0623 2.51986 10.6811 2.41084 9.91051 2.44833L9.75589 2.45608L9.69947 2.3113C9.31787 1.33098 7.64456 0.747532 7.45548 0.684188C7.39776 0.664798 7.33618 0.670401 7.28363 0.700133C7.23151 0.728573 7.19316 0.778562 7.17895 0.836304C7.17507 0.850093 6.85765 2.13376 7.39733 3.24034L7.46796 3.38469L7.34951 3.49328C6.70431 4.08492 4.55122 6.13561 3.931 7.68687C3.92153 7.71187 3.91592 7.73988 3.91592 7.76702C3.91592 8.09193 3.84271 8.83653 3.61702 9.06276C3.32457 9.35578 2.33222 10.5774 1.79211 11.2531C1.78263 11.2647 1.77444 11.2772 1.76798 11.2906C1.72318 11.3797 1.34848 12.167 1.80804 12.6259L2.89385 13.7123C2.91754 13.736 2.9464 13.7536 2.97784 13.7644C3.02608 13.7803 4.20578 14.1526 5.00733 13.3503L7.18586 11.1802C7.61786 10.9208 8.2329 10.8709 8.65672 11.5069C9.4686 12.7255 11.4322 18.7065 10.4605 20.3271C9.56249 21.8245 7.52825 24.9077 6.92656 25.8173L6.80382 26.0026L6.62248 25.8742C4.8372 24.6099 3.94263 23.5671 3.93445 23.5568C3.89612 23.5115 3.83924 23.4839 3.77937 23.4814C3.77464 23.4801 3.77034 23.4801 3.76647 23.4801ZM21.5004 33.6172C11.0441 33.6172 3.19965 27.581 1.73309 26.371L1.55047 26.2202L3.75784 24.0109L3.91032 24.1695C5.40315 25.7225 11.0829 30.7896 21.5004 30.7896C28.4809 30.7896 33.3194 28.5157 36.1496 26.608L36.1979 26.5835C36.2254 26.5736 36.2508 26.5585 36.2728 26.5378L36.3292 26.4856C37.7493 25.5071 38.6697 24.6159 39.0918 24.1721L39.2443 24.0122L41.4503 26.2202L41.2677 26.371C39.8016 27.581 31.9571 33.6172 21.5004 33.6172ZM2.19138 26.1883C4.02404 27.6603 11.5687 33.1863 21.5004 33.1863C31.4321 33.1863 38.9768 27.6603 40.8095 26.1883L39.2503 24.6276C38.7683 25.1158 37.8819 25.9367 36.5933 26.8269C36.5842 26.836 36.5756 26.845 36.5666 26.8532C36.5067 26.9079 36.4412 26.9502 36.3697 26.979C33.487 28.9173 28.5722 31.22 21.5004 31.22C11.2405 31.22 5.48498 26.3667 3.75353 24.6246L2.19138 26.1883ZM21.5004 30.3587C17.4729 30.3587 13.7068 29.5636 10.3068 27.9951L10.0625 27.8827L13.6766 23.1474L13.7227 23.125C14.0983 22.9436 15.359 22.2235 15.8185 20.5818L15.8792 20.3655L16.0929 20.4353C16.9612 20.7184 19.2263 21.3772 21.5008 21.3772C23.7754 21.3772 26.0401 20.7184 26.9084 20.4353L27.122 20.3655L27.1827 20.5818C27.6419 22.2214 28.9017 22.9423 29.2768 23.1241L29.3242 23.147L29.3552 23.1892L32.9107 27.9555L32.6678 28.0662C29.3221 29.5873 25.5654 30.3587 21.5004 30.3587ZM10.7319 27.715C14.0108 29.1831 17.6322 29.9273 21.5004 29.9273C25.4044 29.9273 29.0176 29.206 32.2444 27.7831L29.0408 23.4878C28.5942 23.2616 27.3654 22.5127 26.8326 20.911C25.8269 21.2256 23.672 21.8077 21.5004 21.8077C19.3297 21.8077 17.1739 21.226 16.1678 20.911C15.6342 22.5161 14.4028 23.2646 13.9566 23.4896L10.7319 27.715ZM33.3061 27.765L29.6348 22.8428C29.6106 22.8113 29.5788 22.7863 29.5413 22.7712C29.5236 22.7639 27.8396 22.0594 27.5032 20.0397C27.4929 19.9759 27.4545 19.9212 27.3985 19.8885C27.343 19.8566 27.2753 19.851 27.2142 19.8734C27.1875 19.8833 24.3194 20.9455 21.5008 20.9455C18.6819 20.9455 15.8138 19.8833 15.7853 19.8725C15.7259 19.8505 15.6596 19.8557 15.6032 19.8885C15.5472 19.9208 15.5088 19.9759 15.4985 20.0393C15.163 22.0508 13.531 22.7419 13.4617 22.7704C13.4238 22.7859 13.3924 22.8096 13.3687 22.8406L9.66803 27.6896L9.50822 27.6086C8.75836 27.2285 8.02918 26.8093 7.3422 26.362L7.16 26.2439L7.27974 26.0629C8.05803 24.887 9.96134 21.996 10.8292 20.5486C12.0158 18.5703 9.6383 12.2041 9.01464 11.2673C8.66964 10.7506 8.18983 10.5132 7.63292 10.5847C7.23495 10.6347 6.93863 10.8247 6.90589 10.8459C6.89513 10.8536 6.8835 10.8631 6.87316 10.873L4.70283 13.0443C4.20881 13.539 3.50202 13.4455 3.22206 13.3822L3.16089 13.3684L2.11254 12.3196C1.88642 12.0946 2.12159 11.5513 2.13149 11.5284L2.16036 11.4806C2.17457 11.4629 3.58039 9.70783 3.92151 9.36655C4.28977 8.99812 4.3393 8.11218 4.34533 7.84932L4.363 7.76961C5.10037 6.05029 7.77764 3.6846 7.89092 3.58463C7.97232 3.5131 7.98869 3.39245 7.92882 3.30282C7.53042 2.70558 7.48821 1.97864 7.52267 1.47405L7.54378 1.16465L7.82633 1.2922C8.28288 1.49861 9.34327 2.04888 9.34327 2.69782C9.34327 2.76073 9.37083 2.82063 9.4195 2.86157C9.46817 2.90294 9.53365 2.9206 9.59308 2.91026C9.61117 2.90681 11.6161 2.59052 12.2609 3.8798C12.9547 5.26819 15.893 10.1775 16.2255 10.733L16.2445 10.7743C16.397 11.2186 16.7174 11.9636 17.1576 11.9636H18.0281V13.1965C18.0281 15.1118 19.5855 16.67 21.5004 16.67C23.4153 16.67 24.9728 15.1118 24.9728 13.1965V11.9636H27.2904C27.6087 11.9636 28.2363 11.7861 28.5688 11.1203C28.6192 11.0199 28.6695 10.8989 28.7255 10.7648C29.0662 9.94483 29.5818 8.70554 31.6328 8.70554C33.7713 8.70554 34.2459 12.2261 34.3066 12.7729L34.3122 12.7837V12.8345C34.3122 13.0034 34.3394 16.9932 36.6941 18.9284L37.1088 19.2692L36.5739 19.3097C35.3192 19.4058 33.0373 19.2951 31.8593 17.4948L31.8284 17.4202C31.3516 15.0942 30.6017 13.7054 29.8238 13.7054C29.4358 13.7054 29.086 13.9949 28.8401 14.5215C28.2608 15.7578 28.3508 17.9192 29.658 19.4894C31.1715 21.3053 34.6047 25.0468 35.6216 26.1504L35.7943 26.3387L35.5798 26.4775C34.9096 26.9114 34.199 27.3173 33.4676 27.684L33.3061 27.765ZM27.2904 19.4287C27.4037 19.4287 27.5148 19.4584 27.6134 19.5153C27.7814 19.6122 27.896 19.7777 27.9274 19.969C28.2229 21.7414 29.6421 22.3472 29.7028 22.3718C29.8122 22.4162 29.9082 22.4894 29.9793 22.5846L33.4349 27.2173C34.0181 26.9191 34.5866 26.5955 35.1297 26.2534C33.9401 24.9598 30.7688 21.4957 29.3268 19.7652C27.905 18.058 27.8137 15.6953 28.449 14.3384C28.7703 13.6524 29.2583 13.2745 29.823 13.2745C31.1969 13.2745 31.9257 15.772 32.241 17.2922C33.1614 18.6608 34.8446 18.9137 36.0278 18.9021C33.9431 16.7868 33.8828 13.131 33.8811 12.8461C33.8604 12.6522 33.4607 9.13645 31.6324 9.13645C29.8686 9.13645 29.4547 10.1314 29.1226 10.9307C29.0619 11.0751 29.0072 11.2052 28.9534 11.3134C28.527 12.167 27.7069 12.395 27.29 12.395H25.403V13.1969C25.403 15.3497 23.6522 17.1013 21.5 17.1013C19.3477 17.1013 17.5969 15.3497 17.5969 13.1969V12.395H17.1571C16.6209 12.395 16.179 11.9042 15.8439 10.9359C15.4593 10.2939 12.5688 5.4608 11.875 4.07328C11.3753 3.07444 9.68051 3.33341 9.66285 3.336C9.47463 3.36659 9.2834 3.31445 9.13911 3.18992C8.99482 3.06754 8.91169 2.88786 8.91169 2.69826C8.91169 2.50693 8.58005 2.16306 7.94347 1.82911C7.95251 2.22037 8.03091 2.68059 8.28632 3.06366C8.46549 3.33255 8.41723 3.6958 8.17388 3.90867C8.14718 3.93194 5.49749 6.27349 4.77347 7.90275C4.76011 8.3147 4.67656 9.21961 4.22475 9.67164C3.98657 9.90993 3.07862 11.0221 2.51396 11.7275C2.46098 11.8576 2.44118 11.9878 2.4429 12.0429L3.37367 12.9741C3.58773 13.0133 4.0783 13.0581 4.3966 12.7401L6.56777 10.5679C6.59835 10.5373 6.63067 10.5106 6.66599 10.4873C6.73404 10.4425 7.09325 10.218 7.5778 10.1573C8.30009 10.0663 8.93624 10.3753 9.37168 11.0281C10.066 12.0709 12.5193 18.566 11.197 20.7701C10.3666 22.1546 8.59856 24.8465 7.75782 26.1185C8.32894 26.4822 8.92763 26.8256 9.54182 27.1428L13.0249 22.5795C13.0951 22.4873 13.1899 22.4153 13.2984 22.3718C13.3575 22.3476 14.7762 21.7465 15.0725 19.969C15.104 19.7781 15.2185 19.6131 15.3865 19.5157C15.5541 19.4188 15.7543 19.402 15.9361 19.47C15.9641 19.4808 18.7473 20.515 21.4991 20.515C24.2539 20.515 27.0337 19.4808 27.0613 19.47C27.1367 19.4425 27.2129 19.4287 27.2904 19.4287ZM2.41661 12.0149C2.41705 12.0153 2.41661 12.0149 2.41661 12.0149V12.0149ZM21.5004 16.2395C19.8232 16.2395 18.4588 14.8748 18.4588 13.1969V11.9641H24.5416V13.1969C24.5421 14.8744 23.1776 16.2395 21.5004 16.2395ZM18.8899 12.395V13.1969C18.8899 14.637 20.061 15.8086 21.5008 15.8086C22.9407 15.8086 24.1118 14.637 24.1118 13.1969V12.395H18.8899Z" fill="#F7E8CB"/>
<path d="M8.83474 6.67985C8.83474 7.07974 8.51085 7.40378 8.11116 7.40378C7.71146 7.40378 7.38757 7.07974 7.38757 6.67985C7.38757 6.27997 7.71189 5.95593 8.11116 5.95593C8.51042 5.95593 8.83474 6.27997 8.83474 6.67985ZM7.02534 27.678C6.62565 27.678 6.30176 28.002 6.30176 28.4019C6.30176 28.8018 6.62608 29.1258 7.02534 29.1258C7.42504 29.1258 7.74893 28.8018 7.74893 28.4019C7.74893 28.002 7.42504 27.678 7.02534 27.678ZM35.9741 27.678C35.5744 27.678 35.2505 28.002 35.2505 28.4019C35.2505 28.8018 35.5744 29.1258 35.9741 29.1258C36.3737 29.1258 36.6977 28.8018 36.6977 28.4019C36.6981 28.002 36.3737 27.678 35.9741 27.678Z" fill="#F7E8CB"/>
<path d="M35.9744 29.3413C35.4567 29.3413 35.0351 28.9199 35.0351 28.4019C35.0351 27.8835 35.4567 27.4621 35.9744 27.4621C36.4922 27.4621 36.9134 27.8835 36.9134 28.4019C36.913 28.9199 36.4922 29.3413 35.9744 29.3413ZM35.9744 27.8935C35.6941 27.8935 35.4658 28.1218 35.4658 28.4024C35.4658 28.6829 35.6936 28.9108 35.9744 28.9108C36.2544 28.9108 36.4827 28.6829 36.4827 28.4024C36.4827 28.1218 36.2544 27.8935 35.9744 27.8935ZM7.0253 29.3413C6.50759 29.3413 6.08594 28.9199 6.08594 28.4019C6.08594 27.8835 6.50759 27.4621 7.0253 27.4621C7.54301 27.4621 7.96468 27.8835 7.96468 28.4019C7.96468 28.9199 7.54301 29.3413 7.0253 29.3413ZM7.0253 27.8935C6.74491 27.8935 6.51664 28.1218 6.51664 28.4024C6.51664 28.6829 6.74448 28.9108 7.0253 28.9108C7.30612 28.9108 7.53398 28.6829 7.53398 28.4024C7.53398 28.1218 7.30569 27.8935 7.0253 27.8935ZM8.11069 7.61966C7.59298 7.61966 7.1713 7.19824 7.1713 6.68029C7.1713 6.16234 7.59298 5.74091 8.11069 5.74091C8.6284 5.74091 9.05005 6.16234 9.05005 6.68029C9.05005 7.19824 8.62883 7.61966 8.11069 7.61966ZM8.11069 6.17139C7.8303 6.17139 7.60201 6.39933 7.60201 6.67985C7.60201 6.96038 7.82987 7.18833 8.11069 7.18833C8.39151 7.18833 8.61934 6.96038 8.61934 6.67985C8.61934 6.39933 8.39151 6.17139 8.11069 6.17139Z" fill="#F7E8CB"/>
</svg>
