<svg width="34" height="36" viewBox="0 0 34 36" fill="none" xmlns="http://www.w3.org/2000/svg">
<path d="M22.9869 0.949585C22.8995 0.949585 22.8121 0.949585 22.7247 0.949585H11.843C9.65787 0.949585 7.51648 1.86486 6.03062 3.52108C-1.9231 12.238 -1.61719 25.5314 6.77355 33.8125C7.9098 34.9457 9.43936 35.5558 11.0126 35.5558H22.5936H22.681C22.8121 35.5558 22.8995 35.5558 23.0306 35.5558C28.9304 35.5558 33.7376 27.7978 33.7376 18.2527C33.7376 8.70766 28.8867 0.949585 22.9869 0.949585ZM32.1643 18.2527C32.1643 26.9261 28.0563 34.0304 22.9869 34.0304C17.9175 34.0304 13.8095 26.9697 13.8095 18.2527C13.8095 9.53577 17.9175 2.47505 22.9869 2.47505C28.0563 2.47505 32.1643 9.53577 32.1643 18.2527ZM17.3931 3.4775L16.0383 2.82373C15.7761 2.69297 15.5139 2.69297 15.2517 2.82373L13.3725 3.73901L11.4933 2.82373C11.3622 2.78014 11.2311 2.73656 11.1 2.73656C10.9689 2.73656 10.8378 2.78014 10.7067 2.82373L8.82754 3.73901L8.34682 3.52108C9.39566 2.86731 10.5756 2.47505 11.7993 2.47505H18.5293C18.1797 2.78014 17.7864 3.12882 17.3931 3.4775ZM9.22085 5.22089L11.1 4.30561L12.9792 5.22089C13.2414 5.35164 13.5036 5.35164 13.7658 5.22089L15.645 4.30561L16.3442 4.65429C15.8198 5.30806 15.3391 6.09258 14.8584 6.92069L13.5473 6.3105C13.2851 6.17975 13.0229 6.17975 12.8044 6.3105L10.8378 7.22578L8.87124 6.3105C8.74013 6.26692 8.60903 6.22334 8.47792 6.22334C8.34682 6.22334 8.21571 6.26692 8.08461 6.3105L6.16173 7.22578L5.33139 6.83352C5.89952 6.049 6.46764 5.26447 7.12317 4.56712L8.47792 5.22089C8.74013 5.35164 9.00234 5.35164 9.22085 5.22089ZM6.51134 8.75125L8.47792 7.83597L10.4445 8.75125C10.663 8.882 10.9689 8.882 11.1874 8.75125L13.154 7.83597L14.2029 8.3154C13.8969 9.01276 13.6347 9.66653 13.4599 10.3203L12.28 9.84087C12.0615 9.7537 11.7993 9.7537 11.537 9.84087L9.43936 10.7561L7.34168 9.84087C7.21057 9.79728 7.12317 9.7537 6.99206 9.7537C6.86096 9.7537 6.72985 9.79728 6.64245 9.84087L4.54476 10.7561L3.40851 10.2331C3.71443 9.57936 4.02034 8.882 4.45736 8.14106L5.72471 8.75125C5.98692 8.882 6.29283 8.882 6.51134 8.75125ZM4.93808 12.2816L7.03576 11.3663L9.13345 12.2816C9.35196 12.3688 9.61417 12.3688 9.87638 12.2816L11.9741 11.3663L13.0666 11.8458C12.8918 12.4995 12.7607 13.1969 12.6296 13.9378L11.4059 13.4148C11.1874 13.3276 10.9252 13.3276 10.7067 13.4148L8.52162 14.3301L6.33653 13.4148C6.20543 13.3712 6.11802 13.3276 5.98692 13.3276C5.85581 13.3276 5.72471 13.3712 5.6373 13.4148L3.49592 14.3301L2.27227 13.8071C2.40337 13.1097 2.62188 12.4124 2.88409 11.6714L4.19515 12.238C4.45736 12.3688 4.71957 12.3688 4.93808 12.2816ZM3.84553 15.8556L5.98692 14.8967L8.17201 15.8556C8.47792 15.9863 8.74013 15.8991 8.87124 15.8556L11.0563 14.8967L12.4111 15.4633C12.3674 16.1171 12.3237 16.7708 12.28 17.381L11.3185 16.9888C11.1 16.9016 10.8378 16.9016 10.6193 16.9888L8.39052 17.9476L6.16173 17.0323C6.07432 16.9452 5.94322 16.9452 5.81211 16.9452C5.68101 16.9452 5.5936 16.9888 5.4625 17.0323L3.23371 17.9912L1.79155 17.381C1.83525 16.7273 1.87895 16.0735 1.96636 15.4197L3.1026 15.8991C3.36481 15.9863 3.62702 15.9863 3.84553 15.8556ZM3.62702 19.4731L5.85581 18.5142L8.08461 19.4731C8.30311 19.5603 8.56532 19.5603 8.78383 19.4731L11.0126 18.5142L12.3237 19.0808C12.3237 19.6474 12.3674 20.214 12.4111 20.8242L11.5807 20.4755C11.3622 20.3884 11.1 20.3884 10.8815 20.4755L8.69643 21.3908L6.51134 20.4755C6.38024 20.432 6.29283 20.3884 6.16173 20.3884C6.03062 20.3884 5.89952 20.432 5.81211 20.4755L3.62702 21.3908L1.96636 20.6935C1.87895 20.0833 1.83525 19.5167 1.83525 18.9937L2.92779 19.4731C3.1463 19.5603 3.36481 19.5603 3.62702 19.4731ZM3.23371 22.9163C3.45222 23.0035 3.75813 23.0035 3.93294 22.9163L6.11803 22.001L8.25941 22.9163C8.47792 23.0035 8.74013 23.0035 8.95864 22.9163L11.1437 22.001L12.5859 22.6112C12.6733 23.1778 12.8044 23.7008 12.8918 24.2674L12.28 24.0059C12.0615 23.9187 11.7993 23.9187 11.5807 24.0059L9.35196 24.9648L7.12317 24.0059C6.99206 23.9623 6.90466 23.9187 6.77355 23.9187C6.64245 23.9187 6.55504 23.9623 6.42394 24.0059L4.19515 24.9648L2.57818 24.2674C2.40337 23.7444 2.27227 23.1342 2.14116 22.524L3.23371 22.9163ZM3.93294 26.4466C4.15144 26.5338 4.41365 26.5338 4.63216 26.4466L6.86095 25.4878L9.08975 26.4466C9.30826 26.5338 9.57047 26.5338 9.78897 26.4466L12.0178 25.4878L13.4599 26.098C13.6347 26.621 13.8095 27.1004 13.9843 27.5798L13.8532 27.5363C13.6347 27.4491 13.3725 27.4491 13.154 27.5363L10.9252 28.4951L8.69643 27.5363C8.56532 27.4927 8.47792 27.4491 8.34682 27.4491C8.21571 27.4491 8.12831 27.4927 7.9972 27.5363L5.76841 28.4951L4.15144 27.7978C3.88923 27.2748 3.62702 26.7517 3.40851 26.2287L3.93294 26.4466ZM6.16173 30.0206L8.39052 29.0617L10.6193 30.0206C10.8378 30.1078 11.1 30.1078 11.3185 30.0206L13.5473 29.0617L14.9895 29.6719C15.2517 30.1513 15.5139 30.5872 15.7761 30.9795C15.7324 30.9795 15.6887 31.023 15.645 31.023L13.4162 31.9819L11.1874 31.023C11.0563 30.9795 10.9689 30.9359 10.8378 30.9359C10.7067 30.9359 10.6193 30.9795 10.4882 31.023L8.25941 31.9819L6.42394 31.1974C6.11802 30.8487 5.81211 30.4564 5.5499 30.0206C5.76841 30.1078 5.98692 30.0642 6.16173 30.0206ZM10.8378 32.5485L13.0666 33.5074C13.2851 33.5945 13.591 33.5945 13.7658 33.5074L15.9946 32.5921L17.699 33.333C18.0049 33.5945 18.2671 33.856 18.573 34.074H11.0126C10.226 34.074 9.48306 33.856 8.78383 33.4638L10.8378 32.5485Z" fill="#F7E8CB"/>
<path d="M22.9869 5.35168C18.8353 5.35168 15.5576 11.0177 15.5576 18.2528C15.5576 25.4878 18.8353 31.1538 22.9869 31.1538C27.1386 31.1538 30.4162 25.4878 30.4162 18.2528C30.4162 11.0177 27.1386 5.35168 22.9869 5.35168ZM28.8867 18.2528C28.8867 24.3982 26.1772 29.6284 22.9869 29.6284C19.7967 29.5848 17.0872 24.3982 17.0872 18.2528C17.0872 12.1073 19.7967 6.87715 22.9869 6.87715C26.1772 6.87715 28.8867 12.1073 28.8867 18.2528Z" fill="#F7E8CB"/>
</svg>
