<svg width="31" height="35" viewBox="0 0 31 35" fill="none" xmlns="http://www.w3.org/2000/svg">
<path d="M28.7192 15.7356C29.9248 15.6494 30.8291 14.6582 30.8291 13.4516C30.8291 12.4604 30.1832 11.5554 29.2359 11.2537C29.4081 10.8659 29.4943 10.4349 29.4943 10.004C29.4943 8.28016 28.1594 6.90112 26.4801 6.77183C26.4801 6.77183 26.4801 6.77183 26.4801 6.72874C26.4801 5.43589 25.5759 4.31542 24.3702 4.01375C24.3702 3.97066 24.3702 3.88447 24.3702 3.84137C24.3702 2.07448 22.9493 0.652344 21.1838 0.652344C20.3657 0.652344 19.5907 0.954008 18.9878 1.55734C18.4711 0.997103 17.7391 0.652344 16.964 0.652344C15.9737 0.652344 15.0694 1.16948 14.5527 1.98829C14.2513 1.859 13.9069 1.81591 13.5624 1.81591C12.1414 1.81591 10.9358 2.89328 10.7635 4.27232C10.6774 4.31542 10.5482 4.35851 10.4621 4.40161C9.12729 5.00494 8.35222 6.34089 8.4814 7.71992C7.79245 7.9354 7.23269 8.40945 6.88821 9.01278C6.80209 9.18515 6.75904 9.35753 6.80209 9.52991C6.84515 9.70229 6.97433 9.87467 7.14657 9.96086C7.3188 10.0471 7.49104 10.0901 7.66328 10.0471C7.83551 10.004 8.00775 9.87467 8.09387 9.70229C8.35222 9.27135 8.82587 8.96968 9.34258 8.96968C9.55788 8.96968 9.77318 8.84039 9.90235 8.66801C10.0315 8.49563 10.0746 8.23706 9.98847 8.06468C9.644 7.11659 10.1176 6.03922 11.0649 5.65136C11.2372 5.56517 11.4094 5.52208 11.5817 5.52208C11.9692 5.47898 12.2275 5.13422 12.1845 4.74637V4.61708C12.1845 3.84137 12.8304 3.19495 13.6054 3.19495C13.993 3.19495 14.3374 3.36733 14.5097 3.53971C14.6819 3.71209 14.9403 3.75518 15.1556 3.66899C15.3709 3.5828 15.5431 3.41042 15.5862 3.15185C15.7153 2.50543 16.3182 2.03138 16.964 2.03138C17.5669 2.03138 18.0836 2.41924 18.2989 2.97947C18.385 3.23804 18.6434 3.41042 18.9017 3.45352C19.1601 3.45352 19.4615 3.32423 19.5476 3.06566C19.849 2.46233 20.4949 2.03138 21.1838 2.03138C22.1742 2.03138 22.9923 2.85019 22.9923 3.84137C22.9923 4.05685 22.9493 4.22923 22.9062 4.4447C22.8201 4.66018 22.8631 4.91875 22.9923 5.09113C23.1215 5.26351 23.3368 5.3928 23.5952 5.3497C23.6382 5.3497 23.6813 5.3497 23.6813 5.3497C24.4563 5.3497 25.1022 5.99612 25.1022 6.77183C25.1022 6.94421 25.0592 7.1166 25.0161 7.28898C24.93 7.54754 24.973 7.80611 25.1453 8.02159C25.3175 8.23706 25.5759 8.28016 25.8342 8.23706C26.394 8.10778 26.9968 8.19397 27.4274 8.53873C27.9011 8.88349 28.1594 9.44372 28.1594 10.004C28.1594 10.3918 28.0302 10.7797 27.7719 11.1244H18.385C17.9975 11.1244 17.6961 11.4261 17.6961 11.814C17.6961 12.2018 17.9975 12.5035 18.385 12.5035H28.547C29.0637 12.5035 29.4512 12.8913 29.4512 13.4085C29.4512 13.9256 29.0637 14.3135 28.547 14.3135H19.117C18.7295 14.3135 18.4281 14.6151 18.4281 15.003C18.4281 15.3908 18.7295 15.6925 19.117 15.6925H22.6909L22.1742 21.3379C21.1838 20.907 19.9782 20.6053 18.6864 20.5622V17.3301C18.6864 16.9423 18.385 16.6406 17.9975 16.6406C17.6099 16.6406 17.3085 16.9854 17.3085 17.3732V20.6053C17.1363 20.6053 17.0071 20.6053 16.8349 20.6484C16.6626 20.6484 16.4904 20.7346 16.3612 20.907C16.232 21.0363 16.189 21.2087 16.189 21.4241C16.189 21.5965 16.2751 21.7689 16.4473 21.8982C16.5765 22.0275 16.7918 22.0706 16.964 22.0706C17.3085 22.0275 17.653 22.0275 17.9975 22.0275C20.9685 22.0275 23.1646 23.2341 23.1646 24.3115C23.1646 25.3889 20.9685 26.5955 17.9975 26.5955C17.4808 26.5955 17.0071 26.5524 16.5335 26.5093C16.3612 26.4663 16.189 26.5524 16.0167 26.6386C15.8876 26.7679 15.7584 26.8972 15.7584 27.1127C15.7153 27.5005 15.9737 27.8453 16.3612 27.8884C16.6626 27.9315 16.964 27.9746 17.3085 27.9746V32.8443H15.0264C15.0264 32.8012 15.0264 32.7581 15.0264 32.6719L16.189 16.1665H16.3612C16.921 16.1665 17.3946 15.6925 17.3946 15.1323V12.9344C17.3946 12.3742 16.921 11.9001 16.3612 11.9001H7.06045L5.72562 8.06468C5.6395 7.80611 5.38114 7.59064 5.07973 7.59064H0.816877C0.429345 7.59064 0.12793 7.8923 0.12793 8.28016C0.12793 8.66801 0.429345 8.96968 0.816877 8.96968H4.56302L5.59644 11.9001H1.50582C0.946053 11.857 0.515462 12.3311 0.515462 12.8913V15.0892C0.515462 15.6494 0.989114 16.1235 1.54888 16.1235H1.72112L2.88371 32.6288C2.88371 32.6719 2.88371 32.715 2.88371 32.8012H2.19477C1.80724 32.8012 1.50582 33.1029 1.50582 33.4907C1.50582 33.8786 1.80724 34.1803 2.19477 34.1803H29.4081C29.7957 34.1803 30.0971 33.8786 30.0971 33.4907C30.0971 33.1029 29.7957 32.8012 29.4081 32.8012H25.7912C26.2218 32.2841 26.4801 31.6807 26.5662 30.9912L28.7192 15.7356ZM24.5425 24.2253C24.5425 23.4927 24.1549 22.7601 23.466 22.1568L24.0688 15.6925H27.3413L25.2314 30.6896C25.0592 31.81 24.1119 32.6719 22.9493 32.6719H22.3895L22.9923 26.5524C23.9827 25.9922 24.5425 25.1303 24.5425 24.2253ZM21.5283 27.3282L20.9685 32.715H18.6434V27.8884C19.7198 27.8022 20.7102 27.6298 21.5283 27.3282ZM16.0167 13.2361V14.7013H1.89335V13.2361H16.0167ZM14.8111 16.0804L13.6485 32.4996C13.6485 32.6288 13.5193 32.7581 13.3901 32.7581H4.51996C4.39078 32.7581 4.26161 32.6288 4.26161 32.4996L3.09901 16.0804H14.8111Z" fill="#F7E8CB"/>
<path d="M17.8255 4.91877C17.6533 4.83258 17.481 4.83258 17.3088 4.91877C17.1366 5.00496 17.0074 5.13424 16.9213 5.30662C16.7921 5.56519 16.749 5.86686 16.749 6.16852C16.749 7.37518 17.7394 8.36637 18.945 8.36637C19.3326 8.36637 19.677 8.28018 20.0215 8.1078C20.1938 8.02161 20.2799 7.84923 20.366 7.67685C20.409 7.50447 20.409 7.33209 20.3229 7.15971C20.1507 6.81495 19.7201 6.72876 19.3756 6.90114C19.2465 6.98733 19.1173 6.98733 18.9881 6.98733C18.5575 6.98733 18.17 6.64257 18.17 6.16852C18.17 6.03924 18.17 5.95305 18.213 5.86686C18.3422 5.479 18.17 5.09115 17.8255 4.91877Z" fill="#F7E8CB"/>
<path d="M22.1306 8.71107C22.0014 8.71107 21.9153 8.71107 21.8292 8.71107C21.6569 8.66798 21.4416 8.71107 21.3124 8.79726C21.1402 8.88345 21.0541 9.05583 21.011 9.22821C20.968 9.40059 21.011 9.57297 21.0972 9.74535C21.1833 9.91773 21.3555 10.0039 21.5277 10.047C21.7 10.0901 21.8722 10.0901 22.0445 10.0901C22.1736 10.0901 22.3028 10.0901 22.3889 10.047C22.9487 9.96083 23.4654 9.65916 23.8099 9.14202C24.1544 8.66798 24.2835 8.10774 24.1974 7.50441C24.1544 7.11656 23.9821 6.77179 23.7668 6.51322C23.5085 6.21156 23.0779 6.16846 22.7765 6.38394C22.6473 6.51322 22.5612 6.68561 22.5181 6.85799C22.5181 7.03037 22.5612 7.20275 22.6473 7.37513C22.7334 7.50441 22.7765 7.5906 22.8195 7.76298C22.8626 7.97846 22.8195 8.19393 22.6903 8.36631C22.5181 8.53869 22.3459 8.66798 22.1306 8.71107Z" fill="#F7E8CB"/>
<path d="M12.7438 8.53874C12.5715 8.53874 12.3993 8.45255 12.2701 8.32327C12.0118 8.0647 11.5381 8.0647 11.2797 8.32327C11.1506 8.45255 11.0645 8.62493 11.0645 8.79731C11.0645 8.96969 11.1506 9.14207 11.2797 9.27136C11.6673 9.65921 12.184 9.87469 12.7438 9.87469C13.9064 9.87469 14.8106 8.9266 14.8106 7.80613C14.8106 7.1597 14.5092 6.55637 13.9925 6.16852C13.8633 6.03923 13.648 5.99614 13.4758 6.03923C13.3035 6.08233 13.1313 6.16852 13.0021 6.2978C12.7868 6.59947 12.8299 7.03042 13.1313 7.28899C13.3035 7.41827 13.3896 7.63375 13.3896 7.84922C13.4327 8.23708 13.1313 8.53874 12.7438 8.53874Z" fill="#F7E8CB"/>
<path d="M8.95522 27.759C11.0651 27.759 12.7444 26.0352 12.7444 23.9667C12.7444 21.8981 11.0221 20.1743 8.95522 20.1743C6.88838 20.1743 5.16602 21.8981 5.16602 23.9667C5.16602 26.0352 6.84532 27.759 8.95522 27.759ZM8.95522 21.5534C10.29 21.5534 11.3665 22.6307 11.3665 23.9667C11.3665 25.3026 10.29 26.38 8.95522 26.38C7.62038 26.38 6.54391 25.2595 6.54391 23.9667C6.54391 22.6738 7.62038 21.5534 8.95522 21.5534Z" fill="#F7E8CB"/>
</svg>
