<svg width="43" height="36" viewBox="0 0 43 36" fill="none" xmlns="http://www.w3.org/2000/svg">
<path d="M10.931 31.0862C10.5866 31.0862 10.2852 31.3878 10.2852 31.7326C10.2852 32.0774 10.5866 32.379 10.931 32.379C11.2755 32.379 11.5769 32.0774 11.5769 31.7326C11.5769 31.3878 11.2755 31.0862 10.931 31.0862Z" fill="#F7E8CB"/>
<path d="M41.7186 0.790405C38.8767 0.790405 36.3793 2.72968 35.6904 5.44466L35.3459 6.73751H28.4995H21.7392H14.6775H7.96027H3.56824C2.664 6.73751 1.80281 7.16847 1.2861 7.85799C0.726335 8.5906 0.554098 9.4956 0.769394 10.3575L4.08495 23.1136C4.42942 24.3634 5.54896 25.2684 6.88379 25.2684H10.5869H15.6248H20.878H25.8729H30.5233L29.8774 27.7679C29.7051 27.7679 29.576 27.7248 29.4037 27.7248C27.423 27.7248 25.7867 29.19 25.4853 31.0431H14.8497C14.5483 29.1469 12.9121 27.7248 10.9314 27.7248C8.73534 27.7248 6.96991 29.5348 6.96991 31.6895C6.96991 33.8874 8.73534 35.6543 10.9314 35.6543C12.9121 35.6543 14.5483 34.189 14.8497 32.2929H25.4853C25.7867 34.189 27.423 35.6543 29.4037 35.6543C31.5997 35.6543 33.3652 33.8874 33.3652 31.6895C33.3652 30.095 32.4179 28.7591 31.083 28.1126L31.9442 24.7943L32.0303 24.5358L36.9391 5.74633C37.4988 3.54849 39.4796 2.04016 41.7617 2.04016C42.1062 2.04016 42.4076 1.7385 42.4076 1.39374C42.3215 1.09207 42.0631 0.790405 41.7186 0.790405ZM10.9314 34.4476C9.46734 34.4476 8.21862 33.2409 8.21862 31.7326C8.21862 30.2674 9.42428 29.0176 10.9314 29.0176C12.3954 29.0176 13.601 30.1812 13.6441 31.6464V31.6895V31.7326C13.601 33.2409 12.3954 34.4476 10.9314 34.4476ZM32.0734 31.7326C32.0734 33.2409 30.8677 34.4476 29.3607 34.4476C27.8536 34.4476 26.6479 33.2409 26.6479 31.7326C26.6479 30.2674 27.8536 29.0176 29.3607 29.0176C30.8677 29.0176 32.0734 30.2243 32.0734 31.7326ZM32.3317 18.2439H27.4661L28.155 13.762H33.4943L32.4609 17.6836L32.3317 18.2439ZM2.96541 13.762H8.30474L8.99369 18.2439H4.12801L2.96541 13.762ZM9.55346 13.762H14.3761L14.6344 18.2439H10.2424L9.55346 13.762ZM15.6679 13.762H20.7919L20.5766 18.2439H15.8832L15.6679 13.762ZM22.0406 13.762H26.9063L26.2173 18.2439H21.8253L22.0406 13.762ZM33.8388 12.5122H28.3703L29.0592 8.03036H35.0014L33.8388 12.5122ZM27.0785 12.5122H22.1267L22.3851 8.03036H27.7675L27.0785 12.5122ZM21.0933 8.03036L20.878 12.5122H15.5817L15.3664 8.03036H21.0933ZM14.0747 8.03036L14.29 12.5122H9.38122L8.69228 8.03036H14.0747ZM2.27646 8.67679C2.57788 8.24584 3.05153 8.03036 3.56824 8.03036H7.4005L8.08945 12.5122H2.62094L1.97505 10.0558C1.84587 9.58179 1.97505 9.06464 2.27646 8.67679ZM5.2906 22.812L4.42942 19.5367H9.16593L9.85487 24.0186H6.88379C6.10873 24.0186 5.46284 23.5015 5.2906 22.812ZM10.4577 19.5367H14.7206L14.9789 24.0186H11.1466L10.4577 19.5367ZM16.1846 24.0186L15.9693 19.5367H20.4905L20.2752 24.0186H16.1846ZM21.5239 24.0186L21.7392 19.5367H26.002L25.3131 24.0186H21.5239ZM26.6049 24.0186L27.2938 19.5367H32.0303L30.8677 24.0186H26.6049Z" fill="#F7E8CB"/>
<path d="M28.7148 31.7326C28.7148 32.0774 29.0163 32.379 29.3607 32.379C29.7052 32.379 30.0066 32.0774 30.0066 31.7326C30.0066 31.3878 29.7052 31.0862 29.3607 31.0862C29.0163 31.0862 28.7148 31.3878 28.7148 31.7326Z" fill="#F7E8CB"/>
</svg>
