<svg width="36" height="34" viewBox="0 0 36 34" fill="none" xmlns="http://www.w3.org/2000/svg">
<path d="M35.3059 29.6767L31.9846 5.87945C31.9846 5.83587 31.9409 5.79228 31.9409 5.70511C31.8972 5.66153 31.8972 5.61794 31.8535 5.61794L27.0463 0.867211C27.0463 0.867211 27.0026 0.86721 27.0026 0.823625C26.9589 0.78004 26.9152 0.780042 26.8715 0.736457C26.8278 0.692872 26.7404 0.692871 26.653 0.692871H9.39077C9.30337 0.692871 9.25967 0.692872 9.17226 0.736457C9.12856 0.736457 9.08486 0.78004 9.04116 0.823625C9.04116 0.823625 8.99746 0.823626 8.99746 0.867211L4.19026 5.61794C4.14656 5.66153 4.14656 5.70511 4.10285 5.70511C4.05915 5.7487 4.05915 5.79228 4.05915 5.87945L0.694114 29.6767C0.563009 30.592 0.82522 31.5073 1.43705 32.161C2.04887 32.8584 2.92291 33.2507 3.84064 33.2507H32.1594C33.0771 33.2507 33.9512 32.8584 34.563 32.161C35.1311 31.5073 35.437 30.592 35.3059 29.6767ZM9.91519 5.44361V1.73891H26.0849V5.44361H9.91519ZM27.1337 2.47985L30.1491 5.44361H27.1337V2.47985ZM8.86635 2.47985V5.44361H5.85093L8.86635 2.47985ZM33.7327 31.5073C33.3394 31.9431 32.7712 32.2046 32.1594 32.2046H3.84064C3.22882 32.2046 2.66069 31.9431 2.26738 31.5073C1.87406 31.0278 1.69926 30.4177 1.78666 29.8075L5.06429 6.44605H31.0232L34.3008 29.8075C34.3445 30.4177 34.1697 31.0278 33.7327 31.5073Z" fill="#F7E8CB" stroke="#F7E8CB" stroke-width="0.4" stroke-miterlimit="10"/>
<path d="M26.6097 8.93042C25.2986 8.93042 24.2061 10.02 24.2061 11.3276C24.2061 12.4608 24.9927 13.4196 26.0852 13.6812C25.9978 17.996 22.4143 21.5264 18.0441 21.5264C13.6739 21.5264 10.0904 17.996 9.95927 13.6812C11.0518 13.4196 11.8384 12.5044 11.8384 11.3276C11.8384 10.02 10.7459 8.93042 9.43485 8.93042C8.1238 8.93042 7.03125 10.02 7.03125 11.3276C7.03125 12.4608 7.86158 13.4632 8.91043 13.6812C9.04153 18.6062 13.0621 22.5724 18.0441 22.5724C23.0261 22.5724 27.0467 18.6062 27.1341 13.6812C28.2266 13.4632 29.0133 12.5044 29.0133 11.3276C29.0133 10.02 27.9207 8.93042 26.6097 8.93042ZM8.03639 11.3276C8.03639 10.5866 8.64822 9.97645 9.39115 9.97645C10.1341 9.97645 10.7459 10.5866 10.7459 11.3276C10.7459 11.8942 10.3963 12.3736 9.91557 12.5915V11.3276C9.91557 11.0661 9.69706 10.8046 9.39115 10.8046C9.08523 10.8046 8.86673 11.0225 8.86673 11.3276V12.5915C8.38601 12.3736 8.03639 11.8942 8.03639 11.3276ZM27.1341 12.5915V11.3276C27.1341 11.0661 26.8719 10.8046 26.6097 10.8046C26.3474 10.8046 26.0852 11.0225 26.0852 11.3276V12.5915C25.6045 12.3736 25.2549 11.8942 25.2549 11.3276C25.2549 10.5866 25.8667 9.97645 26.6097 9.97645C27.3526 9.97645 27.9644 10.5866 27.9644 11.3276C27.9644 11.8942 27.6148 12.3736 27.1341 12.5915Z" fill="#F7E8CB" stroke="#F7E8CB" stroke-width="0.4" stroke-miterlimit="10"/>
</svg>
