<svg width="43" height="20" viewBox="0 0 43 20" fill="none" xmlns="http://www.w3.org/2000/svg">
<path d="M40.1451 7.52892H39.5423V3.82275C39.5423 3.3918 39.1978 3.04704 38.7672 3.04704H35.1503V0.892287C35.1503 0.461337 34.8058 0.116577 34.3752 0.116577H30.0693C29.6387 0.116577 29.2942 0.461337 29.2942 0.892287V7.48582H13.6638V0.892287C13.6638 0.461337 13.3193 0.116577 12.8887 0.116577H8.53972C8.10913 0.116577 7.76466 0.461337 7.76466 0.892287V3.04704H4.14769C3.7171 3.04704 3.37263 3.3918 3.37263 3.82275V7.52892H2.7698C1.43497 7.52892 0.31543 8.64939 0.31543 9.98534C0.31543 11.3213 1.43497 12.4417 2.7698 12.4417H3.37263V16.1479C3.37263 16.5789 3.7171 16.9236 4.14769 16.9236H7.80772V19.0784C7.80772 19.5093 8.15219 19.8541 8.58278 19.8541H12.9318C13.3623 19.8541 13.7068 19.5093 13.7068 19.0784V12.3987H29.3373V18.9922C29.3373 19.4231 29.6818 19.7679 30.1123 19.7679H34.4613C34.8919 19.7679 35.2364 19.4231 35.2364 18.9922V16.8374H38.8533C39.2839 16.8374 39.6284 16.4927 39.6284 16.0617V12.3556H40.2312C41.5661 12.3556 42.6856 11.2351 42.6856 9.89914C42.6856 8.5632 41.523 7.52892 40.1451 7.52892ZM2.81286 10.8903C2.29615 10.8903 1.86556 10.4594 1.86556 9.94224C1.86556 9.4251 2.29615 8.99415 2.81286 8.99415H3.41569V10.8903H2.81286ZM4.96582 15.3722V12.3987V10.8903V8.99415V7.48582V4.51227H7.80772V7.48582V8.99415V10.8903V12.3987V15.3722H4.96582ZM12.1567 18.2596H9.31479V16.1048V12.3987V10.8903V8.99415V7.48582V3.77965V1.6249H12.1567V7.48582V8.99415V10.8903V12.3987V18.2596ZM13.6638 10.8903V8.99415H29.3373V10.8903H13.6638ZM33.6862 18.2596H30.8443V12.3987V10.8903V8.99415V7.48582V1.668H33.6862V3.82275V7.52892V9.03724V10.8903V12.3987V16.1048V18.2596ZM38.0352 15.3722H35.1933V12.3987V10.8903V8.99415V7.48582V4.51227H38.0352V7.48582V8.99415V10.8903V12.3987V15.3722ZM40.1451 10.8903H39.5423V8.99415H40.1451C40.6618 8.99415 41.0924 9.4251 41.0924 9.94224C41.0924 10.4594 40.6618 10.8903 40.1451 10.8903Z" fill="#F7E8CB"/>
</svg>
