<svg width="35" height="34" viewBox="0 0 35 34" fill="none" xmlns="http://www.w3.org/2000/svg">
<path d="M28.3508 8.96076L29.8579 9.86575C29.944 9.90885 30.0732 9.95194 30.1593 9.95194C30.3746 9.95194 30.5468 9.86575 30.676 9.65028C30.8482 9.39171 30.7621 9.00385 30.4607 8.83147L28.9536 7.92648C28.6953 7.7541 28.3078 7.84029 28.1355 8.14195C28.0063 8.44362 28.0925 8.78838 28.3508 8.96076Z" fill="#F7E8CB"/>
<path d="M26.2844 12.4516L27.7484 13.3135C27.8345 13.3566 27.9637 13.3997 28.0498 13.3997C28.2651 13.3997 28.4374 13.3135 28.5665 13.098C28.7388 12.8395 28.6527 12.4516 28.3512 12.2792L26.8872 11.4173C26.6289 11.2449 26.2413 11.3311 26.0691 11.6328C25.9399 11.9345 26.0261 12.2792 26.2844 12.4516Z" fill="#F7E8CB"/>
<path d="M34.7238 18.9588C34.7238 17.8384 33.8195 16.8903 32.6569 16.8903H29.772C30.0303 16.5455 30.2887 16.2008 30.547 15.856C34.1209 10.5984 35.1544 5.47011 32.8722 3.91868C30.8915 2.58274 26.4995 5.5132 23.3992 9.09009C23.3131 8.48676 22.9256 8.01271 22.3227 7.75414C22.2366 7.71104 22.1936 7.71104 22.1074 7.66795C21.806 6.97843 21.2032 6.41819 20.4281 6.11653C19.6531 5.81486 18.8349 5.81486 18.146 6.15962C18.1029 6.15962 18.1029 6.11653 18.0599 6.11653C16.6389 5.55629 15.0888 5.98724 14.1415 7.02152C13.4956 6.20272 12.6344 5.72867 11.8594 5.59939V3.70321C12.1177 3.57392 12.3761 3.40154 12.5052 3.14297C12.8497 2.58274 12.8497 1.76393 12.5052 1.1606C12.2038 0.643463 11.6871 0.341797 11.1274 0.341797H6.60615C5.74497 0.341797 5.05602 1.07441 5.01296 2.0656C4.9699 2.79821 5.31437 3.40154 5.87414 3.70321V5.64249C4.45319 5.94415 2.73083 7.32319 2.51553 9.90889C2.51553 9.95199 2.47247 9.99508 2.47247 10.0382V10.4691V13.5289V16.8903H2.30024C1.1807 16.8903 0.233398 17.7953 0.233398 18.9588C0.233398 20.0362 1.09458 20.9412 2.17106 20.9843L3.67813 30.5945C4.10872 33.4388 4.75461 33.5681 7.16592 33.5681H17.5001H28.0927C30.8915 33.5681 31.1499 31.8012 31.3221 30.5945L32.8292 20.9843C33.8626 20.9412 34.7238 20.0793 34.7238 18.9588ZM32.2263 4.86677C33.6473 5.85796 32.9153 10.3398 29.5997 15.2096C29.2122 15.8129 28.7816 16.3731 28.3079 16.9334H21.4185C21.1601 15.8991 20.9879 14.6062 20.9879 13.572C21.1171 13.6582 21.2893 13.7443 21.4615 13.8305C22.7533 14.3477 24.2173 13.7013 24.691 12.4084C24.9493 11.762 24.9063 11.1156 24.6479 10.4691C24.5618 10.2537 24.4326 10.0382 24.2604 9.8658C27.4468 6.20272 31.1499 4.13416 32.2263 4.86677ZM14.7013 16.4593C15.1749 16.3731 15.6055 16.1577 15.95 15.856C16.3375 15.5112 16.5959 15.0372 16.725 14.5632C17.2418 15.1234 17.5432 15.9853 17.8015 16.8903H14.7013V16.4593ZM19.0072 16.9334C19.0072 16.8903 18.9641 16.8472 18.9641 16.8041C18.7488 15.9853 18.4905 15.1234 18.0168 14.3908C18.4905 14.3046 18.9211 14.1753 19.3517 14.0029C19.5239 13.9167 19.6531 13.8305 19.8253 13.7443C19.8253 14.8217 19.9975 16.0284 20.2128 16.8903H19.0072V16.9334ZM17.6293 7.237C17.7154 7.28009 17.8015 7.32319 17.8876 7.36629C18.0599 7.45248 18.2752 7.45248 18.4474 7.36629C18.9211 7.10772 19.4808 7.06462 20.0406 7.2801C20.5573 7.49557 20.9879 7.92652 21.1601 8.44366C21.2463 8.70223 21.4615 8.87461 21.7199 8.87461C21.806 8.87461 21.8491 8.87461 21.9352 8.91771C22.1936 9.0039 22.3227 9.26247 22.2797 9.52104C22.2366 9.8227 22.4088 10.1244 22.7103 10.2106C22.7533 10.2106 22.8394 10.2537 22.8825 10.2537C23.227 10.3829 23.4853 10.6415 23.6145 10.9863C23.7437 11.331 23.7867 11.6758 23.6576 12.0205C23.3992 12.7101 22.6241 13.0548 21.9352 12.7963C21.7199 12.7101 21.5477 12.5808 21.3754 12.4084C21.2463 12.2791 21.1601 12.1067 21.1171 11.9344C21.031 11.6758 20.7726 11.5034 20.4712 11.5465C20.1698 11.5896 19.9545 11.8482 19.9975 12.1498C19.9975 12.3222 19.6531 12.7101 18.9211 13.0548C18.146 13.3996 17.3709 13.4858 16.8542 13.3565C16.7681 13.3134 16.682 13.2703 16.5959 13.2272C16.5959 13.2272 16.5528 13.2272 16.5528 13.1841C16.3806 13.0117 16.0792 12.9686 15.8639 13.0979C15.6486 13.2272 15.5194 13.4858 15.6055 13.7443C15.7347 14.2615 15.6055 14.7355 15.218 15.1234C14.8304 15.4681 14.3137 15.5543 13.8401 15.382C13.4956 15.2527 13.2373 14.9941 13.1081 14.6493C12.9789 14.3046 12.9358 13.9598 13.065 13.6151C13.1081 13.5289 13.1511 13.4427 13.1942 13.3565C13.3234 13.141 13.3234 12.8394 13.1511 12.667C12.8067 12.2791 12.7205 11.762 12.8928 11.2879C13.065 10.857 13.4526 10.5553 13.8831 10.4691C14.1846 10.426 14.3999 10.1244 14.3568 9.8658C14.3137 9.47794 14.3568 9.13318 14.529 8.78842C14.9596 7.36629 16.3806 6.76295 17.6293 7.237ZM3.67813 10.5984H11.8594C11.8163 10.6415 11.8163 10.6846 11.7732 10.7708C11.4718 11.5034 11.558 12.2791 11.9455 12.9686H3.67813V10.5984ZM6.47697 6.71986C6.77839 6.71986 7.0798 6.46129 7.0798 6.11653V3.22916C7.0798 2.9275 6.8645 2.66893 6.56309 2.66893C6.21862 2.62583 6.26168 2.15179 6.26168 2.10869C6.26168 1.93631 6.34779 1.50536 6.69227 1.50536H11.1274C11.2135 1.50536 11.3857 1.54846 11.5149 1.72084C11.6441 1.97941 11.6441 2.32417 11.5579 2.53964C11.5149 2.62583 11.4288 2.66893 11.3427 2.66893C11.1704 2.66893 11.0412 2.71202 10.9121 2.84131C10.7829 2.97059 10.7398 3.09988 10.7398 3.27226V6.15962C10.7398 6.46129 10.9982 6.76296 11.3427 6.76296C11.9885 6.76296 12.8928 7.19391 13.5387 8.142C13.5387 8.18509 13.4956 8.22819 13.4956 8.22819C13.3664 8.61604 13.2803 8.9608 13.2373 9.34866C13.1942 9.39175 13.1081 9.39175 13.065 9.43485H3.76425C4.15178 7.62486 5.48661 6.71986 6.47697 6.71986ZM3.67813 14.1322H11.7732C11.7732 14.4339 11.8594 14.7355 11.9885 15.0372C12.2469 15.6405 12.7636 16.1146 13.3664 16.3731C13.4095 16.3731 13.4956 16.4162 13.5387 16.4162V16.9334H3.67813V14.1322ZM30.1595 30.4221C29.9442 31.715 29.772 32.4045 28.0496 32.4045H17.457H7.12286C5.09908 32.4045 5.09908 32.4045 4.79767 30.4221L3.33366 21.0274H31.6235L30.1595 30.4221ZM32.6569 19.8638H32.2694H2.68777H2.30024C1.82659 19.8638 1.396 19.476 1.396 18.9588C1.396 18.4417 1.78353 18.0538 2.30024 18.0538H18.5335H32.6569C33.1306 18.0538 33.5612 18.4417 33.5612 18.9588C33.5612 19.476 33.1736 19.8638 32.6569 19.8638Z" fill="#F7E8CB"/>
<path d="M23.6571 14.6062C23.4849 14.8648 23.571 15.2526 23.8724 15.425L25.3364 16.2869C25.4225 16.33 25.5517 16.3731 25.6378 16.3731C25.8531 16.3731 26.0254 16.2869 26.1546 16.0714C26.3268 15.8129 26.2407 15.425 25.9393 15.2526L24.4752 14.3907C24.1738 14.2183 23.8294 14.3045 23.6571 14.6062Z" fill="#F7E8CB"/>
<path d="M11.257 29.6034C11.5584 29.6034 11.8599 29.3448 11.8599 29.0001V23.8287C11.8599 23.527 11.6015 23.2253 11.257 23.2253C10.9126 23.2253 10.6973 23.527 10.6973 23.8287V29.0001C10.6973 29.3448 10.9556 29.6034 11.257 29.6034Z" fill="#F7E8CB"/>
<path d="M19.1369 29.6034C19.4383 29.6034 19.6967 29.3448 19.6967 29.0001V23.8287C19.6967 23.527 19.4383 23.2253 19.1369 23.2253C18.8355 23.2253 18.5771 23.4839 18.5771 23.8287V29.0001C18.5771 29.3448 18.8355 29.6034 19.1369 29.6034Z" fill="#F7E8CB"/>
<path d="M23.2695 29.6034C23.571 29.6034 23.8293 29.3448 23.8293 29.0001V23.8287C23.8293 23.527 23.571 23.2253 23.2695 23.2253C22.9681 23.2253 22.7098 23.4839 22.7098 23.8287V29.0001C22.6667 29.3448 22.9251 29.6034 23.2695 29.6034Z" fill="#F7E8CB"/>
<path d="M15.6058 29.6464C15.9072 29.6464 16.2086 29.3878 16.2086 29.0861V23.9147C16.2086 23.6131 15.9502 23.3114 15.6058 23.3114C15.2613 23.3114 15.0029 23.57 15.0029 23.8716V29.043C15.0029 29.3878 15.2613 29.6464 15.6058 29.6464Z" fill="#F7E8CB"/>
</svg>
