<svg width="89" height="66" viewBox="0 0 89 66" fill="none" xmlns="http://www.w3.org/2000/svg">
<path d="M72.2784 50.1922H17.3137M72.2784 50.1922V65M72.2784 50.1922V33M17.3137 50.1922V33M17.3137 50.1922V65M1 33V4.01176L4.01176 1L14.302 1L17.3137 4.01176V33M1 33V61.9882L4.01176 65H17.3137M1 33H17.3137M17.3137 65H72.2784M72.2784 65H84.5765L87.5882 61.9882V33M72.2784 33V4.01176L75.2902 1H84.5765L87.5882 4.01176V33M72.2784 33H87.5882" stroke="#D3C09F"/>
<path d="M1 32.8745V4.01177L4.01177 1H14.302L17.3137 4.01177V32.8745H1Z" fill="#DBCAA9"/>
</svg>
