<svg width="64" height="64" viewBox="0 0 64 64" fill="none" xmlns="http://www.w3.org/2000/svg">
<path d="M54.4338 8.48828H42.3243C41.9707 8.48828 41.6507 8.70723 41.5159 9.02723C41.3812 9.34723 41.4485 9.7346 41.7012 9.98723L46.2654 14.5514L14.6359 46.3157L10.0886 41.7683C9.83592 41.5157 9.46539 41.4483 9.14539 41.583C8.82539 41.7178 8.60645 42.0378 8.60645 42.3914V54.5009C8.60645 54.9893 8.99381 55.3767 9.48223 55.3767H21.5917C21.9454 55.3767 22.2654 55.1578 22.4001 54.8378C22.5349 54.5178 22.4675 54.1304 22.2149 53.8778L17.6675 49.3304L41.7685 25.0609L49.297 17.5325L53.8612 22.0799C54.1138 22.3325 54.4843 22.3999 54.8043 22.2651C55.1243 22.1304 55.3433 21.8104 55.3433 21.4567V9.34723C55.3096 8.87565 54.9054 8.48828 54.4338 8.48828Z" fill="#D3C09F"/>
<path d="M58.8127 0.167969H5.15372C2.40846 0.167969 0.168457 2.40797 0.168457 5.15323V58.8122C0.168457 61.5743 2.40846 63.7974 5.15372 63.7974H58.8127C61.5748 63.7974 63.7979 61.5575 63.7979 58.8122V5.15323C63.7979 2.40797 61.5748 0.167969 58.8127 0.167969ZM59.5706 58.8122C59.5706 59.2164 59.2337 59.5532 58.8295 59.5532H5.15372C4.74951 59.5532 4.41267 59.2164 4.41267 58.8122V5.15323C4.41267 4.74902 4.74951 4.41218 5.15372 4.41218H58.8127C59.2169 4.41218 59.5537 4.74902 59.5537 5.15323V58.8122H59.5706Z" fill="#D3C09F"/>
</svg>
