<svg xmlns="http://www.w3.org/2000/svg" width="1715" height="925" viewBox="0 0 1715 925">
  <defs>
    <style>
      .cls-1, .cls-2 {
        fill: #f50b0c;
        fill-rule: evenodd;
      }

      .cls-1 {
        opacity: 0.5;
      }
    </style>
  </defs>
  <path id="Фігура_1" data-name="Фігура 1" class="cls-1" d="M953,107l128-15,9,4,10-1,175,100-4,6,35,22-3,6,20,16-12,35,3,4-8,16-78,422-10,5-3,12-70,14-25-8-21-23-12,2-55-72-13-3-65-81,1-25-18-24Z"/>
  <path id="Фігура_2" data-name="Фігура 2" class="cls-1" d="M703,60L677,22l49-5,26,21,71-7,23,3,36-19,78,10,1,21,58,8,65,38L953,108,937,520l-18-22L797,465l-67,11Z"/>
  <path id="Фігура_3" data-name="Фігура 3" class="cls-1" d="M362,178l-8-55,51-22-5-23,60-27,37,6,14-5,9,7,94-10-3-21,67-6,26,38,27,414-76,16-26,18L614,326l-31-63V244l-3-30-23-40H540l-11-18Z"/>
  <path id="Фігура_4" data-name="Фігура 4" class="cls-1" d="M480,839L369,328,348,184l15-8,166-20,12,19h16l24,40,2,48,30,60,53,511-8,2,5,39-22,5,2,12-89,30-6-12-22,8-8-33-14,3-11-52Z"/>
  <path id="Фігура_5" data-name="Фігура 5" class="cls-2" d="M100-308"/>
</svg>
