<svg id="Секция_4" data-name="Секция 4" xmlns="http://www.w3.org/2000/svg" width="1715" height="925" viewBox="0 0 1715 925">
<defs>
    <style>
      .cls-1, .cls-4 {
        fill: #8e5ff9;
      }

      .cls-1, .cls-2, .cls-3, .cls-4 {
        stroke: #fff;
        stroke-linejoin: round;
        stroke-width: 1px;
        fill-rule: evenodd;
      }

      .cls-1 {
        opacity: 0.6;
      }

      .cls-2 {
        fill: #c15ff9;
      }

      .cls-2, .cls-3, .cls-4 {
        opacity: 0.5;
      }

      .cls-3 {
        fill: #f49ac1;
      }
    </style>
  </defs>

  <path id="Секция_2__Этаж_1" data-name="Секция 2 _Этаж 1" class="cls-2" d="M731,477l71-11,114,29,30,35,1-27-26-31L800,445l-72,11Z"/>
  <path id="Секция_2__Этаж_2" data-name="Секция 2 _Этаж 2" class="cls-2" d="M729,456l71-11,122,26,24,31,1-19-28-30L801,426l-74,12Z"/>
  <path id="Секция_2__Этаж_3" data-name="Секция 2 _Этаж 3" class="cls-2" d="M727,437l74-12,119,28,27,31-1-21-22-30L798,406l-73,13Z"/>
  <path id="Секция_2__Этаж_4" data-name="Секция 2 _Этаж 4" class="cls-2" d="M726,418l73-13,126,27,21,29,1-23-23-24L798,387l-74,13Z"/>
  <path id="Секция_2__Этаж_5" data-name="Секция 2 _Этаж 5" class="cls-2" d="M725,400l74-14,127,27,21,25,1-21-24-23L798,367l-74,13Z"/>
  <path id="Секция_2__Этаж_6" data-name="Секция 2 _Этаж 6" class="cls-2" d="M724,379l75-13,127,27,23,24,1-21-22-24L798,346l-74,13v20Z"/>
  <path id="Секция_2__Этаж_7" data-name="Секция 2 _Этаж 7" class="cls-2" d="M723,358l75-13,129.548,26L950,395l1-21-21.437-24-131-26L722,337Z"/>
  <path id="Секция_2__Этаж_8" data-name="Секция 2 _Этаж 8" class="cls-2" d="M722,337l76.86-14,131.015,26L951,373l1-21-20.087-24L799.434,302,721,316Z"/>
  <path id="Секция_2__Этаж_9" data-name="Секция 2 _Этаж 9" class="cls-2" d="M721,317l79-16,132,26,20,24,1-21-19.519-23L800.017,281,719,295Z"/>
  <path id="Секция_2__Этаж_10" data-name="Секция 2 _Этаж 10" class="cls-2" d="M720,295l80-14,134,25,19,24,1-22-23-26L799.017,259,718,273Z"/>
  <path id="Секция_2__Этаж_11" data-name="Секция 2 _Этаж 11" class="cls-2" d="M718,272l81-14,131,23,24,25,1-26-24-23L796,234l-80,13Z"/>
  <path id="Секция_2__Этаж_12" data-name="Секция 2 _Этаж 12" class="cls-2" d="M717,247l82-14.212,131,22.8L955,281l1-24-25-25.2L796,209l-80,12.885Z"/>
  <path id="Секция_2__Этаж_13" data-name="Секция 2 _Этаж 13" class="cls-2" d="M716.029,221.664l82.157-13.876,132.871,22.8L956,255l1-25-24.929-23.2L795.143,184,714,196.885Z"/>
  <path id="Секция_2__Этаж_14" data-name="Секция 2 _Этаж 14" class="cls-2" d="M714,197l81.964-14.212,135.679,22.8L958,230V206l-25.321-24.2L792.857,159,712,170Z"/>
  <path id="Секция_2__Этаж_15" data-name="Секция 2 _Этаж 15" class="cls-2" d="M712.438,170.23l80.971-13.023,136.232,22.108L958,207V181l-27.144-24.392L791,135l-80,10Z"/>
  <path id="Секция_2__Этаж_16" data-name="Секция 2 _Этаж 16" class="cls-2" d="M711,146l80-11,141,22,26,24V156l-27.144-23.392L791,111l-81,10Z"/>
  <path id="Секция_2__Этаж_17" data-name="Секция 2 _Этаж 17" class="cls-2" d="M708.679,120.867L789,111l143,21,26,24,1-29-27.141-20.68L790.184,85.715,707,92Z"/>
  <path id="Секция_1__Этаж_1" data-name="Секция 1_ Этаж 1" class="cls-3" d="M629.688,796l66.375-22.98,137.359-11.03,86.656,3.677V733.5l-86.656-3.677-142.891,11.95-60.843,16.545V796Z"/>
  <path id="Секция_1__Этаж_2" data-name="Секция 1_ Этаж 2" class="cls-3" d="M629.688,759.232l59.921-17.464,143.813-11.95,86.656,3.677V706.838L834.344,705l-144.735,6.434-60.843,14.707Z"/>
  <path id="Секция_1__Этаж_3" data-name="Секция 1_ Этаж 3" class="cls-3" d="M628.766,726.141l60.843-14.707L834.344,705l85.734,1.838V680.182l-86.656-.919-147.5,5.515-57.156,9.192v32.171Z"/>
  <path id="Секция_1__Этаж_4" data-name="Секция 1_ Этаж 4" class="cls-3" d="M628.766,693.051l60.843-9.192,144.735-6.435,85.734,1.839V652.606l-86.656-.919-147.5,5.515-57.156,9.192v26.657Z"/>
  <path id="Секция_1__Этаж_5" data-name="Секция 1_ Этаж 5" class="cls-3" d="M628.766,665.475l58.078-9.192,147.5-5.515,85.734,1.838V625.949l-86.656-.919-146.578,3.677-58.078,6.434v30.334Z"/>
  <path id="Секция_1__Этаж_6" data-name="Секция 1_ Этаж 6" class="cls-3" d="M627.844,635.141l59-6.434,147.5-4.6,85.734,0.919V598.374l-86.656-.919-146.578,3.676-59,3.677v30.333Z"/>
  <path id="Секция_1__Этаж_7" data-name="Секция 1_ Этаж 7" class="cls-3" d="M627.844,604.808l59-3.677,147.5-4.6,85.734,0.92v-23.9l-85.734-.92-147.5,1.839h-59v30.333Z"/>
  <path id="Секция_1__Этаж_8" data-name="Секция 1_ Этаж 8" class="cls-3" d="M627.844,572.636l59,0.92,149.344-1.839,83.89,0.919v-23.9l-85.734-.919-148.422-2.757L626,540.465Z"/>
  <path id="Секция_1__Этаж_9" data-name="Секция 1_ Этаж 9" class="cls-3" d="M627.844,539.545l61.765,4.6L836.188,546.9l83.89,0.919v-23.9L834.344,523l-148.422-5.515-57.156-10.111Z"/>
  <path id="Секция_1__Этаж_10" data-name="Секция 1_ Этаж 10" class="cls-3" d="M628.766,507.374l59,10.111,148.422,4.6L920.078,523V493.586l-86.656,2.757-146.578-6.434-58.078-13.788v31.253Z"/>
  <path id="Секция_1__Этаж_11" data-name="Секция 1_ Этаж 11" class="cls-3" d="M628.766,476.121l59,13.788,148.422,6.434,83.89-2.757V466.01l-86.656,2.758-146.578-6.435-58.078-17.464v31.252Z"/>
  <path id="Секция_1__Этаж_12" data-name="Секция 1_ Этаж 12" class="cls-3" d="M627.844,443.949l59.922,18.384,146.578,5.515,85.734-1.838v-28.5l-86.656,3.677-146.578-6.434-59-22.061v31.252Z"/>
  <path id="Секция_1__Этаж_13" data-name="Секция 1_ Этаж 13" class="cls-3" d="M627.844,410.859l59.922,22.979,146.578,7.354,85.734-3.677v-23.9l-85.734,3.677-145.656-11.95-60.844-25.737v31.253Z"/>
  <path id="Секция_1__Этаж_14" data-name="Секция 1_ Этаж 14" class="cls-3" d="M627.844,378.687l61.765,26.656,144.735,11.95,85.734-3.677V386.96l-85.734,3.676L687.766,376.848l-59.922-29.414v31.253Z"/>
  <path id="Секция_1__Этаж_15" data-name="Секция 1_ Этаж 15" class="cls-3" d="M627.844,347.434l61.765,29.414,144.735,12.869L921,386.96l-0.922-27.576-85.734,3.677L687.766,347.434l-59.922-31.252v31.252Z"/>
  <path id="Секция_1__Этаж_16" data-name="Секция 1_ Этаж 16" class="cls-3" d="M627.844,314.343l60.844,33.091,145.656,14.707L921,359.384l-0.922-27.576-85.734,3.677L688.688,317.1l-60.844-34.01v31.252Z"/>
  <path id="Секция_1__Этаж_17" data-name="Секция 1_ Этаж 17" class="cls-3" d="M627.844,281.253L688.688,317.1l145.656,17.465L921,331.808V304.232l-86.656,3.677L688.688,286.768,627.844,250v31.253Z"/>
  <path id="Секция_3_Этаж_1" data-name="Секция 3_Этаж 1" class="cls-4" d="M275,869.533L391.735,879l12.337-8.52,26.574,5.68,37.341-12.239,17.7,1.825,77.823-33.134,19.93,1.893L629,818.411l-0.949-42.6-38.912,13.253-28.471-1.893-75.925,27.454-18.925-1.2-32.325,11.614-29.421-4.733-12.337,5.68-99.788-4.047-1.762-3.527L275,816.518v53.015Z"/>
  <path id="Секция_3_Этаж_2" data-name="Секция 3_Этаж 2" class="cls-4" d="M275.949,816.518l15.185,1.893,2.284,3.412,98.317,3.215,11.388-5.68,28.472,4.733,36.065-10.413h18.032l74.976-26.508,27.522,0.947,40.81-14.2L627.1,735.1l-41.759,11.36H572.056l-87.313,23.667-18.925-1.2L435.391,777.7l-30.37-1.893-13.286,2.84-96.8-4.734v-5.68H275.949v48.282Z"/>
  <path id="Секция_3_Этаж_3" data-name="Секция 3_Этаж 3" class="cls-4" d="M276.9,768.236l18.032-.947,0.949,5.681,94.907,6.626,13.286-4.733,27.523,1.893,34.166-8.52,18.982,1.893,88.262-23.667h13.287L627.1,735.1l-1.9-32.188-41.759,12.307h-9.491l-89.211,17.987-18.982-.947-30.37,7.574-30.37-.947-13.286,1.894-94.557-3.866-0.35-5.6-19.93.946v35.975Z"/>
  <path id="Секция_3_Этаж_4" data-name="Секция 3_Этаж 4" class="cls-4" d="M277.847,731.315h18.032l0.949,4.733,94.907,4.734,12.337-2.84,27.523,1.893,36.065-7.574h18.032L574.9,714.274l10.44-.947,40.81-11.36L625.2,671.673l-40.81,7.573-10.44,1.894-89.211,12.307-18.982-.947-33.217,5.68-30.37-.946-11.388,1.893-93.55-3.856-0.408.069-18.981-.947v36.922Z"/>
  <path id="Секция_3_Этаж_5" data-name="Секция 3_Этаж 5" class="cls-4" d="M276.9,692.5l19.93,0.947v0.946l95.856,4.734,12.337-2.84,27.523,1.893,36.065-7.573,16.134,2.84,89.211-13.254,10.44-.947,41.759-8.52L625.2,640.431l-41.759,4.734-10.44-.947-87.313,7.574-18.982-.947-32.268,2.84H403.123l-12.337.947-94.5-1.571-0.407-3.163-18.032.947Z"/>
  <path id="Секция_3_Этаж_6" data-name="Секция 3_Этаж 6" class="cls-4" d="M276.9,650.845h18.981v1.894l96.805,1.893,12.337-1.893,28.472,0.946,34.167-4.733,17.083,2.84,89.211-7.574,10.44-.946,41.759-3.787L625.2,609.19l-42.708-.946-10.44-.947-86.364,4.733-18.982-.946-32.268.946H403.123l-12.337.947-94.034-1.563,1.025-2.224H276.9v41.655Z"/>
  <path id="Секция_3_Этаж_7" data-name="Секция 3_Этаж 7" class="cls-4" d="M275.949,609.19h19.93l0.949,0.947,95.856,2.84,12.337-1.893,28.472,0.946h51.25l89.211-4.733,8.542,0.947L625.2,609.19V575.109L582.5,571.322l-10.44-.946H485.692l-18.982-.947-32.268.947H403.123l-11.388-1.894H296.757l-0.878-.946H277.847Z"/>
  <path id="Секция_3_Этаж_8" data-name="Секция 3_Этаж 8" class="cls-4" d="M277.847,566.589l19.93,0.947h-0.949l95.856,0.946,12.337,0.947H574.9l8.542,0.947,41.759,4.733V541.028l-40.81-4.734-10.44-.946-88.262-7.574-18.982-.947-32.268.947H403.123l-11.388-1.893H296.283l0.545,6.627-18.981-.947v35.028Z"/>
  <path id="Секция_3_Этаж_9" data-name="Секция 3_Этаж 9" class="cls-4" d="M277.847,530.614h18.981l-0.949-4.733h96.805l12.337,0.946h79.722L574.9,534.4l8.542,0.947,41.759,4.733V506l-40.81-4.734-10.44-.946-88.262-12.307H467.66l-33.218-2.84H403.123l-11.388-1.894H296.757l1.02,5.68h-19.93v41.655Z"/>
  <path id="Секция_3_Этаж_10" data-name="Секция 3_Этаж 10" class="cls-4" d="M276.9,488.013h19.93v-5.681l95.856,0.947,12.337,0.947h28.472l33.217,2.84h18.033l89.211,12.307,8.542,0.947L626.153,506l0.949-31.241-42.708-10.414-10.44-.947-88.262-16.093H467.66l-34.167-6.627H296.757l0.071,6.627-19.93-.947v41.655Z"/>
  <path id="Секция_3_Этаж_11" data-name="Секция 3_Этаж 11" class="cls-4" d="M277.847,445.411l18.981,0.947v-5.68h95.856l12.337-.947,29.421,0.947,32.268,6.627h18.033l88.262,15.147,8.542,0.946,44.606,10.414,0.949-30.294-43.657-13.254-10.44-.947L485.692,404.7H467.66l-34.167-6.627-27.522-1.893-14.236-.947-94.007,2.325,0.049,6.195h-19.93v41.655Z"/>
  <path id="Секция_3_Этаж_12" data-name="Секция 3_Этаж 12" class="cls-4" d="M277.847,403.756h19.93v-6.627l94.907-1.893,12.337,0.947,29.421,1.893L466.71,404.7h18.033l88.262,23.668,8.542,0.946L627.1,442.571l-0.949-33.134-42.708-15.148-10.44-.946L485.692,362.1H467.66l-34.167-6.627-27.522-1.894-14.236-.946-94.979,2.348L296.828,364H277.847v39.761Z"/>
  <path id="Секция_3_Этаж_13" data-name="Секция 3_Этаж 13" class="cls-4" d="M277.847,363.048h18.981v-7.573l96.805-2.84,12.338,0.946,29.42,1.894,32.269,5.68h18.032L573.954,392.4l8.542,0.947L625.2,409.437,624.255,376.3l-38.912-17.987-10.44-.947L487.59,323.287H469.558l-35.116-10.414L406.92,310.98l-14.236-.947-94.03,2.326-0.877,5.248-19.93,1.893v43.548Z"/>
  <path id="Секция_3_Этаж_14" data-name="Секция 3_Этаж 14" class="cls-4" d="M277.847,318.553l19.93-.946v-4.734l95.856-2.84,12.338,0.947,29.42,1.893,32.269,10.414h18.032l88.262,33.134,8.542,0.947,43.657,19.881L625.2,344.114l-39.861-20.827-10.44-.947L487.59,282.579H469.558l-35.116-12.307-27.522-1.894-14.236-.947-95.418,2.36,0.511,4.267-19.93,1.894v42.6Z"/>
  <path id="Секция_3_Этаж_15" data-name="Секция 3_Этаж 15" class="cls-4" d="M277.847,275.952l19.93-1.894v-3.786l95.856-3.787,12.338,0.946,29.42,1.894,33.218,12.307h18.032L574.9,322.34l8.542,0.947,42.708,19.881L625.2,310.033l-40.81-22.721-10.44-.947-87.313-44.494H468.609l-34.167-15.148L406.92,224.83l-14.236-.947-95.453,2.361,0.546,9-18.981.946Z"/>
  <path id="Секция_3_Этаж_16" data-name="Секция 3_Этаж 16" class="cls-4" d="M278.8,236.19l18.032-.946v-8.521l96.805-2.84,12.338,0.947,29.42,1.893,33.218,15.148h18.032l87.313,44.494,10.44-.946,41.759,24.614V274.058l-42.708-24.614-10.44-.947L487.59,201.162H469.558L436.34,183.175l-30.369,1.894-13.287-3.787-99.72,1.644,0.068,6.876-14.236.947V236.19Z"/>
  <path id="Секция_3_Этаж_17" data-name="Секция 3_Этаж 17" class="cls-4" d="M277.847,190.749l15.185-.947-0.555-6.039,101.156-2.481,10.439,2.84h31.319l34.167,15.147,17.083,1.893L573.954,248.5l11.389,0.947,40.81,24.614v-42.6l-42.708-24.614-10.44-.947L487.59,158.561H469.558L436.34,140.574l-29.42.946L397.429,133l-103.968,6.585,0.52,11.4-16.134,1.894v37.868Z"/>
</svg>
