<svg width="90" height="29" viewBox="0 0 90 29" fill="none" xmlns="http://www.w3.org/2000/svg">
<path d="M49.9367 28.8146H67.7736C68.7514 28.8146 69.5606 27.9972 69.5606 27.0095V19.7894C69.5606 18.8017 68.7514 17.9844 67.7736 17.9844H49.9367C48.9589 17.9844 48.1497 18.8017 48.1497 19.7894V26.9755C48.1497 27.9972 48.9252 28.8146 49.9367 28.8146ZM51.6901 21.5944H65.9528V25.2045H51.6901V21.5944Z" fill="white"/>
<path d="M49.9367 5.38154H87.3637C88.3416 5.38154 89.1508 4.56417 89.1508 3.57651C89.1508 2.58886 88.3416 1.77148 87.3637 1.77148H49.9367C48.9589 1.77148 48.1497 2.58886 48.1497 3.57651C48.1497 4.59823 48.9252 5.38154 49.9367 5.38154Z" fill="white"/>
<path d="M49.9367 12.6022H78.4622C79.44 12.6022 80.2492 11.7849 80.2492 10.7972C80.2492 9.80956 79.44 8.99219 78.4622 8.99219H49.9367C48.9589 8.99219 48.1497 9.80956 48.1497 10.7972C48.1497 11.7849 48.9252 12.6022 49.9367 12.6022Z" fill="white"/>
<path d="M28.0196 7.72976C27.3115 7.01456 26.1988 7.01456 25.4907 7.72976L19.6238 13.6557L17.3309 11.3398C16.6229 10.6246 15.5102 10.6246 14.8021 11.3398L7.65386 18.5259C6.94578 19.2411 6.94578 20.365 7.65386 21.0802C7.99104 21.4207 8.46309 21.591 8.90143 21.591C9.37348 21.591 9.81182 21.4207 10.149 21.0802L16.0159 15.1542L21.8829 21.0802C22.2201 21.4207 22.6921 21.591 23.1304 21.591C23.6025 21.591 24.0408 21.4207 24.378 21.0802C25.0861 20.365 25.0861 19.2411 24.378 18.5259L22.0852 16.21L26.7045 11.5442L32.5715 17.4701C32.9087 17.8107 33.3807 17.981 33.8191 17.981C34.2911 17.981 34.7294 17.8107 35.0666 17.4701C35.7747 16.7549 35.7747 15.631 35.0666 14.9158L28.0196 7.72976Z" fill="white"/>
<path d="M1.78706 28.8124H41.0011C41.9789 28.8124 42.7882 27.995 42.7882 27.0073V1.80503C42.7882 0.817372 41.9789 0 41.0011 0H1.78706C0.809233 0 0 0.817372 0 1.80503V27.0073C0.033718 27.995 0.809233 28.8124 1.78706 28.8124ZM3.57411 3.61006H39.2141V25.2023H3.57411V3.61006Z" fill="white"/>
</svg>
