<svg width="205" height="78" viewBox="0 0 205 78" fill="none" xmlns="http://www.w3.org/2000/svg">
<path d="M204.933 28.8082C205.066 27.4714 204.8 26.0009 204.202 24.8647C203.869 24.2631 202.805 23.461 201.608 23.8621C200.611 24.9983 200.877 25.8673 201.276 26.3351C203.603 29.4766 203.67 32.685 203.404 36.2943C203.271 37.698 203.271 39.9706 203.071 41.5747C202.539 43.981 201.542 46.7883 199.747 49.7961C197.087 54.2744 192.1 58.619 185.384 61.2258C181.992 62.4957 178.202 63.2978 174.213 63.8325C170.156 64.2336 165.901 64.4341 161.512 64.1667C152.602 63.7657 143.093 62.0279 133.186 59.4879C130.725 58.8195 128.265 58.0843 125.738 57.4159C123.211 56.6806 120.685 55.8785 118.158 55.0765C113.038 53.4723 107.984 51.4002 102.598 49.7961C91.9589 46.5877 80.6548 43.9141 69.0183 42.711C63.1668 42.1763 57.2488 41.9089 51.3307 42.8447C45.4792 43.9141 40.2262 48.1251 37.8324 53.6728C37.0344 55.4775 36.569 57.4159 36.3695 59.4211C32.9783 57.2154 29.587 55.0765 26.7943 52.2023C22.9376 48.2588 19.8788 43.5799 17.9505 38.6338C16.0222 33.6207 15.2242 28.3404 15.4902 23.2605C15.5567 21.4558 15.8227 19.718 16.1551 18.0469C16.6871 18.3811 17.2191 18.7154 17.751 19.0496C20.4773 20.5869 24.0015 22.0574 27.9912 21.1884C29.9195 20.7206 31.7149 19.5843 33.1777 18.1138L34.1087 17.0443C34.5076 16.5765 34.7736 16.1086 35.0396 15.6407C35.5716 14.6381 35.904 13.5686 36.037 12.4324C36.3695 10.1598 35.904 7.82038 34.9066 5.6815C33.8427 3.60945 32.2468 1.5374 29.72 0.534795C28.4566 0.0669126 26.9938 -0.066768 25.6639 0.267433C24.334 0.601635 23.1371 1.27004 22.1397 2.13896C20.1448 3.87681 18.8149 6.0157 17.618 8.28827C16.3546 10.7614 15.4237 13.435 14.6923 16.2423C13.3624 15.3065 12.1655 14.2371 11.1016 13.3013C7.24488 9.82559 4.6516 6.61726 2.78975 4.54521C1.06089 2.33948 0.129971 1.2032 0.129971 1.2032L0.0634766 1.33688C0.0634766 1.33688 0.9944 2.54 2.65676 4.74573C4.45212 6.88462 6.97891 10.1598 10.8356 13.7692C12.0325 14.8386 13.2959 15.9081 14.6923 16.9775C14.2268 18.9827 13.8943 21.0548 13.7613 23.1936C13.4289 28.474 14.2268 34.0886 16.1551 39.369C18.0835 44.6494 21.3417 49.5956 25.3979 53.7397C26.3953 54.8091 27.5257 55.7449 28.6561 56.6806L30.4515 58.0843L32.1803 59.2874C33.5767 60.2232 34.9731 61.0921 36.303 61.961C36.436 65.1693 37.3669 68.3777 39.2287 71.0513C40.7581 73.5912 43.1519 75.7969 46.0777 76.6659C47.5406 77.1338 49.0699 77.1338 50.5328 76.9332C51.2643 76.7996 52.0622 76.6659 52.6606 76.198C52.9931 75.9975 53.2591 75.5964 53.3921 75.1954C53.4586 74.7943 53.4586 74.3933 53.3256 73.9923C52.7936 72.5218 51.7297 71.3855 50.7323 70.3829C49.6684 69.3134 48.6045 68.3777 47.4741 67.4419C45.2133 65.5035 42.8859 63.7657 40.4921 62.1615C39.8937 61.6936 39.2287 61.2926 38.6303 60.8916C38.6968 58.7527 39.0958 56.6138 40.0267 54.6754C42.088 49.7961 46.6761 46.053 51.7962 45.1173C57.1823 44.2483 63.1668 44.382 68.8188 44.9167C80.2559 46.053 91.4269 48.6598 102 51.8013C107.253 53.3386 112.373 55.4107 117.559 56.948C120.153 57.7501 122.679 58.5522 125.206 59.2206C127.733 59.889 130.26 60.5574 132.787 61.2258C142.761 63.6989 152.402 65.2362 161.446 65.5704C163.706 65.6372 165.901 65.7041 168.095 65.5704C170.289 65.5704 172.351 65.303 174.412 65.0357C178.468 64.3673 182.325 63.4983 185.783 62.0947C192.632 59.2874 197.685 54.7423 200.278 50.0634C202.14 46.8551 203.071 43.9141 203.537 41.441C203.603 41.2405 203.603 41.1068 203.603 40.9063C203.67 40.4384 203.736 39.9037 203.803 39.5027C204.401 35.9601 204.601 32.3508 204.933 28.8082ZM19.1474 8.88983C20.2113 6.75094 21.4747 4.67889 23.2036 3.20841C24.8659 1.67108 27.2597 0.935836 29.3211 1.73792C31.3824 2.47316 32.8453 4.27785 33.8427 6.14938C34.7736 8.02091 35.1726 10.1598 34.9731 12.165C34.7736 14.2371 33.7762 15.9081 32.4463 17.3117C31.1164 18.6485 29.5205 19.718 27.7917 20.1858C24.2675 21.0548 20.8763 19.8516 18.15 18.3811C17.485 18.0469 16.8866 17.6459 16.2881 17.3117C16.9531 14.3039 17.884 11.4966 19.1474 8.88983ZM39.2952 63.8994C41.6226 65.5035 43.9499 67.1746 46.0777 68.9792C47.1416 69.8482 48.2055 70.7839 49.1364 71.7865C50.0009 72.6555 50.8653 73.7249 51.1313 74.3933C51.0648 74.3933 50.9983 74.4601 50.9983 74.4601C50.9318 74.527 50.5328 74.5938 50.1339 74.6607C49.0699 74.7943 47.74 74.7943 46.6761 74.3933C45.5457 74.0591 44.5483 73.4575 43.6174 72.6555C43.1519 72.2544 42.6865 71.7865 42.2875 71.3186C41.7555 70.7171 41.5561 70.2492 41.1571 69.7145C39.8937 67.843 39.1623 65.7709 38.8298 63.5652C38.9628 63.6989 39.1623 63.7657 39.2952 63.8994Z" fill="#3C3D40"/>
</svg>
