<svg width="27" height="29" viewBox="0 0 27 29" fill="none" xmlns="http://www.w3.org/2000/svg">
<path d="M25.7058 17.2641L9.6353 9.56096C9.34906 9.42502 9.0117 9.49865 8.79191 9.74221C8.57212 9.98576 8.50567 10.3596 8.62834 10.6768L15.5851 28.4846C15.7077 28.8018 15.9837 29 16.2904 29C16.3109 29 16.3364 29 16.362 28.9944C16.6942 28.9604 16.9652 28.6942 17.0418 28.3373L18.657 20.6625L25.5831 18.8727C25.9051 18.7934 26.1453 18.4875 26.176 18.1194C26.1965 17.7569 26.0125 17.4113 25.7058 17.2641Z" fill="#BCAB8C"/>
<path d="M9.96692 6.79688C10.3912 6.79688 10.7336 6.41738 10.7336 5.94727V0.849609C10.7336 0.379492 10.3912 0 9.96692 0C9.54266 0 9.2002 0.379492 9.2002 0.849609V5.94727C9.2002 6.41738 9.54266 6.79688 9.96692 6.79688Z" fill="#BCAB8C"/>
<path d="M6.17435 14.0469L2.92345 17.6492C2.62187 17.9834 2.62187 18.5215 2.92345 18.85C3.22503 19.1842 3.71062 19.1842 4.00708 18.85L7.25798 15.2476C7.55955 14.9135 7.55955 14.3754 7.25798 14.0469C6.9564 13.7183 6.47081 13.7183 6.17435 14.0469Z" fill="#BCAB8C"/>
<path d="M13.76 8.04296L17.0109 4.44061C17.3125 4.10643 17.3125 3.56835 17.0109 3.23983C16.7093 2.90565 16.2237 2.90565 15.9273 3.23983L12.6764 6.84217C12.3748 7.17635 12.3748 7.71444 12.6764 8.04296C12.978 8.37147 13.4635 8.37147 13.76 8.04296Z" fill="#BCAB8C"/>
<path d="M4.0022 3.23416C3.70062 2.89998 3.21503 2.89998 2.91857 3.23416C2.61699 3.56834 2.61699 4.10642 2.91857 4.43494L6.16946 8.03728C6.47104 8.37146 6.95663 8.37146 7.25309 8.03728C7.55467 7.7031 7.55467 7.16502 7.25309 6.8365L4.0022 3.23416Z" fill="#BCAB8C"/>
<path d="M6.13377 11.0449C6.13377 10.5748 5.7913 10.1953 5.36704 10.1953H0.766721C0.342469 10.1953 0 10.5748 0 11.0449C0 11.515 0.342469 11.8945 0.766721 11.8945H5.36704C5.7913 11.8945 6.13377 11.515 6.13377 11.0449Z" fill="#BCAB8C"/>
</svg>
