<svg width="28" height="34" viewBox="0 0 28 34" fill="none" xmlns="http://www.w3.org/2000/svg">
<g clip-path="url(#clip0)">
<path d="M21.2008 11.8094C21.6008 11.8094 21.6008 11.9094 21.6008 12.3094C21.6008 13.3094 21.6008 14.4094 21.6008 15.4094C21.6008 16.5094 21.6008 17.6094 21.5008 18.7094C21.5008 19.3094 21.5008 19.3094 20.9008 19.4094C19.9008 19.4094 19.0008 19.5094 18.0008 19.5094C17.8008 19.5094 17.7008 19.5094 17.5008 19.5094C17.5008 19.7094 17.5008 19.8094 17.5008 19.9094C17.5008 22.4094 17.5008 24.8094 17.4008 27.3094C17.4008 29.2094 17.4008 31.2094 17.3008 33.1094C17.3008 33.5094 17.3008 33.5094 16.8008 33.6094C15.3008 33.6094 13.8008 33.7094 12.3008 33.7094C12.0008 33.7094 11.7008 33.7094 11.4008 33.7094C10.9008 33.7094 10.8008 33.6094 10.8008 33.2094C10.8008 31.0094 10.7008 28.9094 10.7008 26.7094C10.7008 24.4094 10.6008 22.0094 10.6008 19.7094C10.6008 19.6094 10.6008 19.5094 10.6008 19.4094C10.4008 19.4094 10.3008 19.4094 10.2008 19.4094C8.90078 19.4094 7.70078 19.4094 6.40078 19.4094C6.00078 19.4094 5.90078 19.3094 5.90078 18.9094C5.90078 18.5094 5.90078 18.2094 5.90078 17.8094C5.90078 16.0094 5.80078 14.3094 5.80078 12.5094C5.80078 12.4094 5.80078 12.3094 5.80078 12.2094C5.80078 12.0094 5.90078 11.9094 6.10078 11.9094C6.20078 11.9094 6.20078 11.9094 6.30078 11.9094C7.70078 11.8094 9.20078 11.8094 10.6008 11.7094C11.1008 11.7094 11.1008 11.7094 11.1008 11.2094C11.1008 10.1094 11.2008 9.00938 11.2008 7.90938C11.2008 6.30938 11.3008 4.80937 11.3008 3.20937C11.3008 3.00937 11.3008 2.80938 11.3008 2.60938C11.3008 1.20938 12.2008 0.309375 13.6008 0.209375C13.8008 0.209375 14.0008 0.209375 14.2008 0.209375C16.5008 0.209375 18.9008 0.109375 21.2008 0.109375C21.3008 0.109375 21.4008 0.109375 21.5008 0.109375C21.7008 0.109375 21.8008 0.209375 21.8008 0.409375C21.8008 0.509375 21.8008 0.609375 21.8008 0.709375C21.8008 2.30938 21.8008 4.00938 21.8008 5.60938C21.8008 6.10938 21.7008 6.10938 21.3008 6.10938C20.5008 6.10938 19.7008 6.20938 18.9008 6.20938C18.5008 6.20938 18.0008 6.30937 17.6008 6.60938C17.2008 6.80937 17.0008 7.20937 17.0008 7.60938C17.0008 8.70938 16.9008 9.80937 16.9008 10.9094C16.9008 11.5094 16.9008 11.5094 17.5008 11.5094C18.7008 11.5094 19.9008 11.5094 21.1008 11.5094C21.0008 11.8094 21.1008 11.8094 21.2008 11.8094ZM21.0008 18.9094C21.0008 16.7094 21.1008 14.5094 21.1008 12.3094C20.9008 12.3094 20.8008 12.3094 20.6008 12.3094C19.5008 12.3094 18.3008 12.3094 17.2008 12.3094C16.4008 12.3094 16.2008 12.2094 16.2008 11.3094C16.2008 10.2094 16.3008 9.00938 16.3008 7.90938C16.3008 7.50938 16.5008 7.10938 16.8008 6.80938C17.1008 6.50938 17.4008 6.40938 17.7008 6.30938C18.2008 6.10938 18.7008 6.00938 19.3008 6.00938C19.8008 6.00938 20.3008 6.00938 20.8008 6.00938C20.9008 6.00938 21.0008 6.00938 21.1008 5.90938C21.1008 4.20938 21.1008 2.50938 21.1008 0.809375C20.9008 0.809375 20.8008 0.809375 20.7008 0.809375C20.3008 0.809375 19.8008 0.809375 19.4008 0.809375C17.4008 0.809375 15.4008 0.809375 13.4008 0.909375C12.3008 0.909375 11.5008 1.70938 11.5008 2.80938C11.5008 3.10938 11.5008 3.30938 11.5008 3.60938C11.5008 5.10938 11.4008 6.60938 11.4008 8.10938C11.4008 9.20938 11.3008 10.3094 11.3008 11.4094C11.3008 11.6094 11.3008 11.7094 11.3008 11.9094C11.3008 12.2094 11.1008 12.3094 10.9008 12.3094C10.8008 12.3094 10.7008 12.3094 10.6008 12.3094C9.20078 12.4094 7.90078 12.4094 6.50078 12.5094C6.40078 12.5094 6.30078 12.5094 6.10078 12.5094C6.10078 14.7094 6.20078 16.8094 6.20078 18.9094C6.30078 18.9094 6.40078 18.9094 6.40078 18.9094C6.80078 18.9094 7.30078 18.9094 7.70078 18.9094C8.70078 18.9094 9.60078 18.9094 10.6008 18.9094C11.0008 18.9094 11.1008 19.0094 11.1008 19.4094C11.1008 20.0094 11.1008 20.5094 11.1008 21.1094C11.2008 24.8094 11.2008 28.4094 11.3008 32.1094C11.3008 32.5094 11.3008 32.8094 11.3008 33.3094C13.2008 33.3094 15.0008 33.2094 16.8008 33.2094C16.8008 33.0094 16.8008 32.8094 16.8008 32.6094C16.8008 28.4094 16.9008 24.2094 16.9008 20.0094C16.9008 19.8094 16.9008 19.6094 16.9008 19.4094C16.9008 19.2094 17.0008 19.1094 17.2008 19.1094C17.3008 19.1094 17.4008 19.1094 17.5008 19.1094C18.5008 19.1094 19.5008 19.0094 20.5008 19.0094C20.8008 18.9094 20.9008 18.9094 21.0008 18.9094Z" fill="#3C3D40"/>
</g>
<defs>
<clipPath id="clip0">
<rect y="0.409424" width="27.3" height="33.2" fill="white"/>
</clipPath>
</defs>
</svg>
