<svg width="30" height="31" viewBox="0 0 30 31" fill="none" xmlns="http://www.w3.org/2000/svg">
<g clip-path="url(#clip0)">
<path d="M28.7094 13.6074L16.9076 1.89817C16.4094 1.39835 15.7359 1.12317 15.0283 1.12317C14.3151 1.12317 13.6472 1.39835 13.1434 1.89817L1.35284 13.5962C1.34718 13.6018 1.34718 13.6018 1.34152 13.6074C0.311327 14.6407 0.311327 16.3087 1.34718 17.3364C1.82265 17.8081 2.44529 18.0777 3.11321 18.1058C3.14152 18.1058 3.16982 18.1114 3.19812 18.1114H3.66793V26.7262C3.66793 28.4335 5.06604 29.8206 6.7868 29.8206H11.4057C11.8755 29.8206 12.2547 29.4444 12.2547 28.9782V22.2279C12.2547 21.4473 12.8943 20.8183 13.6755 20.8183H16.3981C17.1849 20.8183 17.8189 21.4529 17.8189 22.2279V28.9782C17.8189 29.4444 18.1981 29.8206 18.6679 29.8206H23.2868C25.0076 29.8206 26.4057 28.4335 26.4057 26.7262V18.117H26.8415C27.5547 18.117 28.2226 17.8418 28.7264 17.342C29.7453 16.3087 29.7453 14.6351 28.7094 13.6074ZM27.5094 16.1514C27.3283 16.3311 27.0849 16.4322 26.8245 16.4322H25.5396C25.0698 16.4322 24.6906 16.8085 24.6906 17.2746V26.7319C24.6906 27.5069 24.0509 28.1415 23.2698 28.1415H19.5V22.2279C19.5 20.5206 18.1019 19.1335 16.3811 19.1335H13.6585C11.9377 19.1335 10.5396 20.5206 10.5396 22.2279V28.1415H6.76982C5.98868 28.1415 5.34906 27.5069 5.34906 26.7319V17.2746C5.34906 16.8085 4.96982 16.4322 4.50001 16.4322H3.24906C3.23774 16.4322 3.22076 16.4322 3.20944 16.4322C2.95472 16.4266 2.72265 16.3311 2.54152 16.1514C2.16227 15.7752 2.16227 15.1686 2.54152 14.7924L14.3434 3.08875C14.5245 2.90904 14.7679 2.80795 15.0283 2.80795C15.2887 2.80795 15.5321 2.90904 15.7132 3.08875L27.5094 14.7868L27.5151 14.7924C27.8887 15.1686 27.8887 15.7752 27.5094 16.1514Z" fill="#939393"/>
</g>
<defs>
<clipPath id="clip0">
<rect width="30" height="31" fill="white"/>
</clipPath>
</defs>
</svg>
