<svg width="308" height="118" viewBox="0 0 308 118" fill="none" xmlns="http://www.w3.org/2000/svg">
<path d="M-0.699609 86.8001C-0.699609 86.8001 -0.99961 87.3001 -1.39961 88.4001C-1.59961 89.0001 -1.69961 89.7001 -1.69961 90.5001C-1.69961 91.4001 -1.49961 92.4001 -0.89961 93.4001C-0.29961 94.4001 0.90039 95.1001 2.20039 95.5001C3.50039 96.0001 5.00039 96.2001 6.70039 96.3001C10.0004 96.5001 13.8004 96.2001 18.0004 95.4001C20.1004 95.0001 22.2004 94.4001 24.4004 93.5001C26.6004 92.7001 28.8004 91.6001 31.2004 90.6001C35.8004 88.4001 40.8004 85.9001 46.0004 83.1001C51.2004 80.3001 56.7004 77.2001 62.4004 73.9001C68.1004 70.5001 74.0004 66.9001 80.0004 62.7001C81.5004 61.7001 83.0004 60.6001 84.4004 59.4001L85.5004 58.5001L86.5004 57.5001C87.2004 56.9001 87.8004 56.1001 88.5004 55.5001C91.1004 52.7001 93.4004 49.6001 95.5004 46.2001C97.6004 42.9001 99.5004 39.3001 101 35.5001C102.5 31.7001 103.7 27.7001 104.2 23.5001C104.3 22.4001 104.4 21.4001 104.4 20.3001C104.5 19.2001 104.3 18.2001 104.3 17.1001C104 15.0001 103.5 12.8001 102.5 10.8001C101.5 8.80014 100.1 7.00014 98.3004 5.60014C96.5004 4.20014 94.5004 3.10014 92.4004 2.40014C88.0004 1.00014 83.4004 0.70014 78.9004 0.90014C76.6004 1.10014 74.3004 1.50014 72.1004 2.30014C69.9004 3.20014 67.8004 4.60014 66.4004 6.50014C64.9004 8.40014 64.1004 10.8001 63.7004 13.1001C63.3004 15.5001 63.3004 17.9001 63.6004 20.2001C64.1004 24.9001 65.4004 29.5001 67.0004 33.9001C70.2004 42.8001 74.6004 51.3001 79.4004 59.6001C80.6004 61.7001 81.9004 63.7001 83.2004 65.8001C84.4004 67.7001 85.3004 69.9001 86.2004 72.1001C87.1004 74.3001 87.8004 76.6001 88.4004 78.9001C89.0004 81.2001 89.5004 83.5001 89.7004 85.9001C89.9004 88.2001 90.0004 90.6001 89.7004 92.9001C89.6004 94.1001 89.3004 95.2001 89.0004 96.3001C88.9004 96.9001 88.6004 97.4001 88.4004 97.9001L88.1004 98.7001C88.0004 99.0001 87.8004 99.2001 87.7004 99.5001C85.6004 103.8 83.0004 107.8 79.4004 110.8C75.9004 113.8 71.3004 115.2 66.7004 114.7C64.5004 114.5 62.3004 113.8 60.8004 112.4C59.3004 111 58.8004 109 59.1004 106.8C59.4004 104.6 60.3004 102.6 61.5004 100.6C62.7004 98.6001 64.1004 96.7001 65.5004 94.8001C68.4004 91.1001 71.7004 87.5001 75.0004 84.2001C78.4004 80.9001 81.9004 77.7001 85.6004 74.9001C86.5004 74.2001 87.5004 73.6001 88.4004 72.9001C89.4004 72.3001 90.3004 71.7001 91.4004 71.1001C93.5004 69.9001 95.5004 68.8001 97.6004 67.8001C105.8 63.5001 114.6 60.7001 123.5 60.3001C132.4 59.8001 141.3 61.3001 149.7 63.5001C158.1 65.7001 166.2 68.6001 173.9 71.8001C177.7 73.4001 181.6 75.1001 185.2 76.8001C188.8 78.6001 192.4 80.5001 195.9 82.3001C202.9 86.0001 209.6 89.8001 216 93.3001C217.6 94.2001 219.2 95.1001 220.8 95.9001C222.4 96.8001 224.1 97.6001 225.7 98.3001C229 99.8001 232.3 101 235.7 102C239.1 102.9 242.4 103.6 245.9 103.8C246.8 103.8 247.6 103.8 248.5 103.8C249.4 103.7 250.2 103.7 251 103.6C252.6 103.4 254.2 103.1 255.7 102.8C258.8 102.1 261.7 101.2 264.4 100.1C267.1 99.0001 269.7 97.8001 272 96.4001C276.7 93.7001 280.7 90.7001 284.1 87.7001C287.5 84.7001 290.2 81.7001 292.6 79.2001C295 76.6001 296.9 74.3001 298.4 72.4001C301.5 68.5001 303.1 66.1001 303.3 65.7001C305.1 63.0001 306.3 60.3001 306.7 58.1001C307.2 55.9001 306.8 54.4001 306.2 54.3001C305.5 54.2001 304.1 54.0001 303.7 56.4001C303.3 58.8001 303.8 60.0001 303.2 61.7001C302.2 65.1001 299.9 69.0001 297.8 71.6001C296.3 73.5001 293.9 76.1001 291.6 78.6001C289.3 81.1001 285.9 84.3001 282.8 87.1001C279.6 89.9001 275.4 92.4001 271 94.9001C268.8 96.2001 265.6 97.3001 263.1 98.3001C260.6 99.3001 258.4 100.1 255.6 100.7C254.9 100.9 251.1 101.6 247.9 101.7C244.8 101.7 241.6 100.6 240 100.1C236.9 99.2001 232.3 97.2001 229.1 95.8001C227.5 95.1001 224.1 93.2001 222.6 92.3001C221 91.4001 219.4 90.6001 217.8 89.7001C211.3 86.2001 204.6 82.5001 197.5 78.8001C194 77.0001 190.4 75.1001 186.7 73.3001C182.9 71.5001 179.1 69.9001 175.2 68.3001C167.4 65.1001 159.1 62.2001 150.4 60.0001C141.7 57.9001 132.6 56.4001 123.2 56.9001C113.8 57.4001 104.5 60.5001 96.1004 65.0001C94.0004 66.1001 91.9004 67.3001 89.9004 68.4001C88.9004 69.0001 87.8004 69.7001 86.8004 70.3001C85.8004 71.0001 84.8004 71.7001 83.8004 72.4001C79.9004 75.3001 76.4004 78.6001 72.9004 82.0001C69.5004 85.4001 66.2004 89.0001 63.2004 92.9001C61.7004 94.9001 60.3004 96.9001 59.0004 99.0001C57.8004 101.2 56.6004 103.6 56.3004 106.3C56.2004 106.6 56.2004 107 56.2004 107.3C56.2004 107.6 56.2004 108 56.2004 108.3C56.3004 109 56.3004 109.7 56.6004 110.4C57.0004 111.8 57.8004 113.1 58.8004 114C61.0004 115.9 63.7004 116.6 66.2004 116.9C67.5004 117 68.8004 117 70.1004 116.9C71.4004 116.7 72.7004 116.6 73.9004 116.1C76.4004 115.3 78.7004 114 80.6004 112.3C84.5004 109 87.3004 104.6 89.4004 100.2C89.5004 99.9001 89.7004 99.6001 89.8004 99.4001L90.1004 98.5001C90.3004 97.9001 90.6004 97.3001 90.7004 96.7001C91.0004 95.5001 91.3004 94.2001 91.4004 92.9001C91.7004 90.4001 91.6004 87.9001 91.3004 85.4001C91.0004 82.9001 90.5004 80.5001 89.9004 78.1001C89.2004 75.7001 88.5004 73.4001 87.6004 71.1001C86.7004 68.8001 85.8004 66.6001 84.4004 64.4001C83.1004 62.4001 81.8004 60.4001 80.6004 58.3001C75.7004 50.1001 71.3004 41.7001 68.1004 33.0001C66.5004 28.6001 65.2004 24.2001 64.7004 19.7001C64.4004 17.5001 64.4004 15.2001 64.7004 13.0001C65.0004 10.8001 65.8004 8.70014 67.1004 7.00014C68.4004 5.30014 70.2004 4.00014 72.2004 3.20014C74.2004 2.40014 76.4004 2.00014 78.5004 1.80014C82.9004 1.60014 87.3004 1.90014 91.3004 3.20014C93.3004 3.80014 95.2004 4.90014 96.9004 6.10014C98.5004 7.40014 99.8004 9.10014 100.8 10.9001C101.8 12.7001 102.2 14.8001 102.5 16.8001C102.6 17.8001 102.7 18.8001 102.7 19.9001C102.7 20.9001 102.6 22.0001 102.5 23.0001C102.1 27.1001 100.9 31.0001 99.5004 34.8001C98.0004 38.5001 96.2004 42.1001 94.2004 45.4001C90.1004 52.0001 85.1004 57.9001 79.1004 61.8001C73.2004 66.0001 67.3004 69.7001 61.6004 73.1001C55.9004 76.5001 50.5004 79.6001 45.3004 82.4001C40.1004 85.2001 35.2004 87.8001 30.6004 90.0001C28.3004 91.1001 26.1004 92.1001 23.9004 93.0001C21.7004 93.9001 19.6004 94.4001 17.5004 94.9001C13.4004 95.8001 9.60039 96.1001 6.30039 95.9001C4.70039 95.8001 3.10039 95.5001 1.80039 95.1001C0.500391 94.7001 -0.59961 94.0001 -1.29961 93.0001C-1.89961 92.0001 -2.09961 91.0001 -2.09961 90.2001C-2.09961 89.3001 -1.89961 88.6001 -1.79961 88.1001C-1.09961 87.3001 -0.699609 86.8001 -0.699609 86.8001Z" fill="#4C5151" stroke="#4C5151" stroke-width="0.7" stroke-miterlimit="10" stroke-linecap="round" stroke-linejoin="round"/>
<path d="M82.5 47.4001C82.5 47.4001 82 46.1001 81.1 43.9001C80.2 41.6001 79 38.4001 77.7 34.5001C77 32.5001 76.3 30.4001 75.6 28.2001C74.9 25.9001 74.2 23.5001 74.2 20.8001C74.1 18.2001 74.7 15.4001 76.4 13.0001C78.4 10.8001 81.4 10.0001 84.2 10.0001C85.6 10.0001 87 10.2001 88.4 10.7001C89.8 11.2001 91.1 12.0001 92.1 13.0001C93.1 14.1001 93.8 15.4001 94.3 16.7001C94.8 18.0001 95.1 19.4001 95.2 20.7001C95.5 23.4001 95.2 26.0001 94.8 28.4001C94.4 30.8001 93.6 33.1001 92.6 35.0001C90.7 38.9001 88.6 41.7001 87 43.7001C85.4 45.7001 84.4 46.8001 84.3 46.9001C84 47.2001 83.6 47.5001 83.3 47.5001C83.1 47.6001 83 47.5001 82.8 47.6001C82.5 47.7001 82.5 47.5001 82.5 47.4001C82.5 47.3001 82.6 47.1001 82.4 47.0001C82.3 46.9001 82.4 46.7001 82.4 46.6001C82.5 46.3001 82.7 45.9001 83 45.6001C83.1 45.5001 84.1 44.5001 85.7 42.6001C87.2 40.7001 89.4 38.0001 91.3 34.3001C92.2 32.5001 93 30.4001 93.5 28.1001C94 25.8001 94.3 23.3001 94 20.8001C93.9 19.5001 93.7 18.3001 93.3 17.1001C92.9 15.9001 92.3 14.7001 91.4 13.8001C89.7 11.8001 87 11.1001 84.3 10.9001C83 10.9001 81.6 11.0001 80.4 11.4001C79.2 11.8001 78 12.5001 77.1 13.4001C76.7 13.8001 76.4 14.5001 76.1 15.0001C75.8 15.6001 75.6 16.2001 75.4 16.8001C75 18.0001 74.9 19.3001 74.9 20.6001C74.9 23.2001 75.5 25.6001 76.2 27.9001C76.9 30.2001 77.5 32.3001 78.2 34.3001C79.5 38.2001 80.6 41.5001 81.4 43.8001C82.1 46.1001 82.5 47.4001 82.5 47.4001Z" fill="#4C5151"/>
<path d="M82.5 47.4001C82.5 47.4001 82 46.1001 81.1 43.9001C80.2 41.6001 79 38.4001 77.7 34.5001C77 32.5001 76.3 30.4001 75.6 28.2001C74.9 25.9001 74.2 23.5001 74.2 20.8001C74.1 18.2001 74.7 15.4001 76.4 13.0001C78.4 10.8001 81.4 10.0001 84.2 10.0001C85.6 10.0001 87 10.2001 88.4 10.7001C89.8 11.2001 91.1 12.0001 92.1 13.0001C93.1 14.1001 93.8 15.4001 94.3 16.7001C94.8 18.0001 95.1 19.4001 95.2 20.7001C95.5 23.4001 95.2 26.0001 94.8 28.4001C94.4 30.8001 93.6 33.1001 92.6 35.0001C90.7 38.9001 88.6 41.7001 87 43.7001C85.4 45.7001 84.4 46.8001 84.3 46.9001C84 47.2001 83.6 47.5001 83.3 47.5001C83.1 47.6001 83 47.5001 82.8 47.6001C82.5 47.7001 82.5 47.5001 82.5 47.4001ZM82.5 47.4001C82.5 47.3001 82.6 47.1001 82.4 47.0001C82.3 46.9001 82.4 46.7001 82.4 46.6001C82.5 46.3001 82.7 45.9001 83 45.6001C83.1 45.5001 84.1 44.5001 85.7 42.6001C87.2 40.7001 89.4 38.0001 91.3 34.3001C92.2 32.5001 93 30.4001 93.5 28.1001C94 25.8001 94.3 23.3001 94 20.8001C93.9 19.5001 93.7 18.3001 93.3 17.1001C92.9 15.9001 92.3 14.7001 91.4 13.8001C89.7 11.8001 87 11.1001 84.3 10.9001C83 10.9001 81.6 11.0001 80.4 11.4001C79.2 11.8001 78 12.5001 77.1 13.4001C76.7 13.8001 76.4 14.5001 76.1 15.0001C75.8 15.6001 75.6 16.2001 75.4 16.8001C75 18.0001 74.9 19.3001 74.9 20.6001C74.9 23.2001 75.5 25.6001 76.2 27.9001C76.9 30.2001 77.5 32.3001 78.2 34.3001C79.5 38.2001 80.6 41.5001 81.4 43.8001C82.1 46.1001 82.5 47.4001 82.5 47.4001Z" stroke="#4C5151" stroke-width="0.7" stroke-miterlimit="10" stroke-linecap="round" stroke-linejoin="round"/>
</svg>
