<svg width="25" height="25" viewBox="0 0 25 25" fill="none" xmlns="http://www.w3.org/2000/svg">
<path d="M24.6991 4.20952C24.7991 4.80952 24.7991 5.50952 24.7991 6.10952C24.7991 9.90952 24.6991 13.8095 24.6991 17.6095C24.6991 18.7095 24.6991 19.8095 24.5991 20.9095C24.5991 22.6095 23.2991 23.5095 21.9991 23.7095C20.8991 23.8095 19.8991 23.9095 18.7991 23.9095C16.3991 23.9095 14.0991 23.9095 11.6991 24.0095C9.59905 24.0095 7.49905 24.0095 5.39905 24.1095C4.59905 24.1095 3.79905 24.0095 2.99905 23.6095C1.39905 22.8095 0.399053 21.4095 0.499053 19.4095C0.499053 16.9095 0.599053 14.4095 0.599053 11.8095C0.599053 9.70952 0.599053 7.70952 0.699053 5.60952C0.699053 4.90952 0.699053 4.20952 0.799053 3.50952C0.899053 2.40952 1.39905 1.50952 2.39905 0.909522C2.99905 0.609522 3.69905 0.309522 4.49905 0.209522C5.19905 0.00952177 5.99905 0.00952148 6.79905 0.00952148C9.19905 0.00952148 11.5991 0.00952148 13.9991 0.00952148C15.4991 0.00952148 16.8991 0.00952148 18.3991 0.00952148C18.8991 0.00952148 19.4991 0.00952148 19.9991 0.00952148C20.5991 0.00952148 21.1991 0.209522 21.6991 0.409522C23.4991 1.10952 24.3991 2.40952 24.6991 4.20952ZM24.3991 6.40952C24.3991 5.70952 24.3991 5.00952 24.2991 4.30952C24.0991 2.90952 23.3991 1.70952 22.0991 1.00952C21.3991 0.609522 20.6991 0.509522 19.9991 0.409522C19.4991 0.409522 18.9991 0.409522 18.4991 0.409522C14.3991 0.409522 10.2991 0.409522 6.19905 0.409522C5.69905 0.409522 5.09905 0.509521 4.59905 0.609521C3.89905 0.709521 3.19905 0.909522 2.59905 1.30952C1.89905 1.70952 1.39905 2.20952 1.29905 3.00952C1.09905 3.70952 0.999053 4.50952 0.999053 5.30952C0.999053 6.10952 0.999053 6.80952 0.999053 7.60952C0.999053 11.6095 0.899053 15.6095 0.899053 19.6095C0.899053 21.0095 1.39905 22.0095 2.49905 22.8095C3.39905 23.5095 4.49905 23.8095 5.69905 23.8095C10.0991 23.7095 14.4991 23.7095 18.8991 23.7095C19.8991 23.7095 20.8991 23.7095 21.8991 23.5095C22.9991 23.4095 24.1991 22.6095 24.2991 21.1095C24.2991 20.3095 24.3991 19.4095 24.3991 18.6095C24.3991 16.6095 24.3991 14.7095 24.4991 12.7095C24.3991 10.5095 24.3991 8.50952 24.3991 6.40952Z" fill="#27354C"/>
<path d="M23.0993 5.20947C23.1993 5.80947 23.1993 6.30947 23.1993 6.90947C23.1993 10.2095 23.0993 13.5095 23.0993 16.9095C23.0993 17.9095 23.0993 18.8095 22.9993 19.8095C22.9993 21.3095 21.8993 22.1095 20.6993 22.2095C19.7993 22.3095 18.8993 22.4095 17.9993 22.4095C15.9993 22.4095 13.8993 22.4095 11.8993 22.5095C10.0993 22.5095 8.29935 22.5095 6.49935 22.6095C5.79935 22.6095 5.09935 22.5095 4.39935 22.2095C2.89935 21.5095 1.99935 20.3095 2.09935 18.5095C2.09935 16.3095 2.09935 14.1095 2.19935 12.0095C2.19935 10.2095 2.19935 8.40947 2.29935 6.70947C2.29935 6.10947 2.29935 5.50947 2.39935 4.90947C2.49935 3.90947 2.89935 3.10947 3.79935 2.60947C4.39935 2.30947 4.99935 2.10947 5.59935 1.90947C6.29935 1.80947 6.99935 1.70947 7.59935 1.70947C9.69935 1.70947 11.7993 1.70947 13.7993 1.70947C15.0993 1.70947 16.2993 1.70947 17.5993 1.70947C18.0993 1.70947 18.4993 1.70947 18.9993 1.70947C19.4993 1.70947 19.9993 1.80947 20.4993 2.00947C21.9993 2.60947 22.7993 3.70947 23.0993 5.20947ZM22.7993 7.10947C22.7993 6.50947 22.7993 5.90947 22.6993 5.30947C22.4993 4.10947 21.8993 3.10947 20.7993 2.50947C20.1993 2.20947 19.5993 2.00947 18.8993 2.00947C18.4993 2.00947 18.0993 2.00947 17.5993 2.00947C14.0993 2.00947 10.4993 2.00947 6.99935 2.00947C6.49935 2.00947 5.99935 2.10947 5.59935 2.10947C4.99935 2.20947 4.39935 2.40947 3.89935 2.80947C3.29935 3.10947 2.89935 3.60947 2.79935 4.20947C2.69935 4.90947 2.59935 5.50947 2.59935 6.20947C2.59935 6.90947 2.59935 7.50947 2.59935 8.20947C2.59935 11.6095 2.49935 15.1095 2.49935 18.5095C2.49935 19.7095 2.99935 20.6095 3.89935 21.3095C4.69935 21.9095 5.59935 22.1095 6.59935 22.1095C10.3993 22.1095 14.1993 22.0095 17.9993 22.0095C18.8993 22.0095 19.6993 22.0095 20.5993 21.9095C21.5993 21.8095 22.5993 21.1095 22.5993 19.9095C22.5993 19.2095 22.6993 18.4095 22.6993 17.7095C22.6993 16.0095 22.6993 14.3095 22.7993 12.6095C22.7993 10.7095 22.7993 8.90947 22.7993 7.10947Z" fill="#27354C"/>
<path d="M13.8993 10.8096C14.6993 11.5096 14.6993 12.7096 13.8993 13.4096C13.1993 14.0096 11.9993 14.0096 11.2993 13.3096C10.7993 12.8096 10.5993 12.2096 10.7993 11.5096C10.9993 10.8096 11.4993 10.4096 12.2993 10.3096C12.3993 10.3096 12.4993 10.3096 12.5993 10.3096C13.0993 10.3096 13.4993 10.4096 13.8993 10.8096ZM14.0993 12.3096C14.2993 11.6096 13.7993 10.9096 12.9993 10.7096C12.8993 10.7096 12.7993 10.7096 12.6993 10.7096C12.1993 10.7096 11.8993 10.8096 11.5993 11.1096C11.0993 11.5096 10.9993 12.2096 11.2993 12.7096C11.4993 13.1096 11.8993 13.4096 12.3993 13.4096C13.1993 13.6096 13.9993 13.1096 14.0993 12.3096Z" fill="#27354C"/>
<path d="M12.5984 7.90942C14.8984 7.90942 16.7984 9.80942 16.7984 12.2094C16.7984 14.5094 14.8984 16.3094 12.5984 16.3094C10.2984 16.3094 8.39844 14.4094 8.39844 12.1094C8.39844 9.70942 10.2984 7.90942 12.5984 7.90942ZM12.6984 15.8094C14.6984 15.8094 16.3984 14.2094 16.3984 12.2094C16.3984 10.1094 14.7984 8.50942 12.5984 8.40942C10.5984 8.40942 8.89844 10.0094 8.89844 12.0094C8.89844 14.1094 10.5984 15.8094 12.6984 15.8094Z" fill="#27354C"/>
<path d="M20.0996 4.30942C20.6996 4.80942 20.6996 5.80942 20.0996 6.30942C19.4996 6.80942 18.5996 6.80942 18.0996 6.30942C17.6996 5.90942 17.4996 5.50942 17.6996 4.90942C17.8996 4.40942 18.2996 4.00942 18.7996 3.90942C18.8996 3.90942 18.9996 3.90942 19.0996 3.90942C19.3996 3.90942 19.7996 4.00942 20.0996 4.30942ZM20.1996 5.50942C20.2996 4.90942 19.9996 4.40942 19.3996 4.30942C19.2996 4.30942 19.1996 4.30942 19.1996 4.30942C18.7996 4.30942 18.5996 4.40942 18.2996 4.60942C17.8996 4.90942 17.7996 5.40942 18.0996 5.90942C18.2996 6.20942 18.5996 6.40942 18.9996 6.50942C19.4996 6.40942 20.0996 6.00942 20.1996 5.50942Z" fill="#27354C"/>
</svg>
