<svg width="31" height="33" viewBox="0 0 31 33" fill="none" xmlns="http://www.w3.org/2000/svg">
<path d="M28.5339 2.41132C28.3118 2.17018 27.9787 2.17018 27.8677 2.41132C27.6457 2.65246 27.6457 3.01416 27.8677 3.13473C29.7552 5.1844 29.7552 8.43975 27.8677 10.4894C27.6457 10.7305 27.6457 11.0923 27.8677 11.2128C27.9787 11.3334 28.0898 11.3334 28.2008 11.3334C28.3118 11.3334 28.4229 11.3334 28.5339 11.2128C30.7545 8.92202 30.7545 4.94326 28.5339 2.41132Z" fill="#D3C09F"/>
<path d="M26.4242 3.73749C26.2022 3.49636 25.8691 3.49636 25.758 3.73749C25.536 3.97863 25.536 4.34033 25.758 4.4609C26.3132 5.18431 26.6463 6.02829 26.6463 6.99283C26.6463 7.95738 26.3132 8.80136 25.647 9.52477C25.425 9.7659 25.425 10.1276 25.647 10.2482C25.758 10.3687 25.8691 10.3687 25.9801 10.3687C26.0911 10.3687 26.2022 10.3687 26.3132 10.2482C27.0904 9.4042 27.5345 8.19852 27.5345 6.99283C27.6455 5.78715 27.2014 4.58147 26.4242 3.73749Z" fill="#D3C09F"/>
<path d="M2.44259 3.25544C2.66464 3.01431 2.66464 2.6526 2.44259 2.53203C2.22054 2.17033 1.88746 2.17033 1.6654 2.41147C-0.555134 4.82283 -0.555134 8.92215 1.6654 11.3335C1.77643 11.4541 1.88746 11.4541 1.99848 11.4541C2.10951 11.4541 2.22054 11.4541 2.33156 11.3335C2.55362 11.0924 2.55362 10.7307 2.33156 10.6101C0.555134 8.56045 0.555134 5.3051 2.44259 3.25544Z" fill="#D3C09F"/>
<path d="M4.55319 3.49643C4.33113 3.37586 3.99805 3.37586 3.77599 3.49643C2.9988 4.46098 2.55469 5.5461 2.55469 6.87236C2.55469 8.07805 2.9988 9.28374 3.77599 10.1277C3.88702 10.2483 3.99805 10.2483 4.10907 10.2483C4.2201 10.2483 4.33113 10.2483 4.44216 10.1277C4.66421 9.88658 4.66421 9.52488 4.44216 9.40431C3.88702 8.68089 3.55394 7.83691 3.55394 6.87236C3.55394 5.90781 3.88702 5.06383 4.55319 4.34041C4.77524 4.09928 4.77524 3.73757 4.55319 3.49643Z" fill="#D3C09F"/>
<path d="M16.1001 28.9364C16.1001 29.5393 15.656 30.0216 15.1008 30.0216C14.5457 30.0216 14.1016 29.5393 14.1016 28.9364C14.1016 28.3336 14.5457 27.8513 15.1008 27.8513C15.656 27.8513 16.1001 28.3336 16.1001 28.9364Z" fill="#D3C09F"/>
<path d="M21.4287 0H8.77137C7.55004 0 6.55078 1.08512 6.55078 2.41137V30.3832C6.55078 31.7095 7.55004 32.7946 8.77137 32.7946H21.4287C22.65 32.7946 23.6493 31.7095 23.6493 30.3832V2.2908C23.6493 0.964547 22.65 0 21.4287 0ZM16.6544 1.56739H17.2096C17.5427 1.56739 17.7647 1.80853 17.7647 2.17023C17.7647 2.53194 17.5427 2.77307 17.2096 2.77307H16.6544C16.4324 2.77307 16.0993 2.53194 16.0993 2.17023C16.0993 1.80853 16.3214 1.56739 16.6544 1.56739ZM13.1015 1.56739H15.1C15.3221 1.56739 15.6552 1.80853 15.6552 2.17023C15.6552 2.53194 15.4331 2.77307 15.1 2.77307H13.1015C12.7684 2.77307 12.5464 2.53194 12.5464 2.17023C12.5464 1.80853 12.7684 1.56739 13.1015 1.56739ZM15.1 31.1066C13.9897 31.1066 13.1015 30.1421 13.1015 28.9364C13.1015 27.7307 13.9897 26.7662 15.1 26.7662C16.2103 26.7662 17.0986 27.7307 17.0986 28.9364C17.0986 30.1421 16.2103 31.1066 15.1 31.1066ZM22.65 25.0782H7.55004V4.34046H22.65V25.0782Z" fill="#D3C09F"/>
</svg>
