<svg width="318" height="90" viewBox="0 0 318 90" fill="none" xmlns="http://www.w3.org/2000/svg">
<path d="M2.20007 70.2001C-0.0999309 69.4001 0.900069 67.7001 2.30007 67.5001C3.80007 67.2001 6.70007 68.8001 9.00007 68.6001C11.3001 68.4001 13.8001 68.2001 15.2001 67.7001C16.6001 67.2001 18.0001 66.7001 19.3001 66.1001C20.6001 65.5001 22.0001 64.9001 23.3001 64.3001L27.2001 62.3001L31.0001 60.0001L34.7001 57.5001C35.9001 56.7001 37.1001 55.7001 38.3001 54.9001C39.5001 54.0001 40.6001 53.0001 41.7001 52.1001C42.9001 51.2001 43.9001 50.1001 45.0001 49.2001C46.1001 48.2001 47.1001 47.1001 48.1001 46.1001C49.1001 45.1001 50.1001 43.9001 51.0001 42.8001C52.0001 41.7001 52.8001 40.5001 53.7001 39.3001C54.6001 38.2001 55.3001 36.9001 56.1001 35.6001C56.9001 34.4001 57.4001 33.0001 58.1001 31.8001L58.2001 31.7001C60.4001 28.0001 61.5001 23.7001 61.3001 19.4001C61.2001 17.3001 60.9001 15.1001 60.1001 13.2001C59.4001 11.2001 58.2001 9.4001 56.7001 8.2001C55.9001 7.6001 55.1001 7.1001 54.2001 6.8001C53.3001 6.6001 52.3001 6.5001 51.4001 6.6001C49.5001 6.9001 47.6001 7.9001 46.0001 9.2001C45.6001 9.5001 45.2001 9.9001 44.8001 10.2001C44.4001 10.5001 44.0001 10.9001 43.7001 11.3001L43.3001 12.0001L43.2001 12.1001L43.1001 12.2001C43.0001 12.4001 43.2001 12.1001 43.2001 12.1001L43.0001 12.5001L42.0001 13.9001L41.1001 15.3001C40.8001 15.8001 40.7001 16.2001 40.4001 16.7001C40.0001 17.7001 39.5001 18.5001 39.2001 19.6001C37.8001 23.6001 37.4001 28.0001 37.8001 32.3001C38.2001 36.6001 39.1001 40.9001 40.7001 45.0001C43.9001 53.1001 48.8001 60.7001 55.5001 66.1001L56.1001 66.6001L56.4001 66.8001L56.7001 67.0001L58.1001 68.0001C59.0001 68.6001 59.9001 69.4001 60.9001 69.9001L63.6001 71.6001C64.5001 72.1001 65.5001 72.6001 66.5001 73.1001C70.4001 75.0001 74.5001 76.4001 78.7001 77.2001C87.2001 78.7001 96.0001 77.3001 104.1 74.0001C112.2 70.8001 119.7 65.9001 126.6 60.4001C133.6 54.9001 140.1 48.8001 146.5 42.5001L165.5 23.3001C172.2 17.0001 179.8 11.6001 188.1 7.5001C196.4 3.5001 205.5 0.600098 215 0.600098C219.7 0.600098 224.4 1.3001 228.9 2.7001C233.4 4.2001 237.6 6.4001 241.4 9.2001C245.2 12.0001 248.5 15.4001 251.4 18.8001C254.5 22.6001 256.7 26.7001 258.5 31.0001C260.3 35.3001 261.5 39.9001 262 44.5001C262.5 49.1001 262.6 53.9001 261.7 58.5001C260.9 63.1001 259.4 67.7001 257.2 71.8001L255.3 74.8001C254.7 75.8001 253.9 76.7001 253.2 77.6001L252.6 78.3001L252.3 78.6001L252.2 78.8001C252.1 78.9001 252.3 78.8001 252 79.0001L251.9 79.1001L250.7 80.3001C249.8 81.1001 248.9 81.8001 248 82.6001C244.3 85.4001 240.2 87.9001 235.5 89.1001C233.2 89.7001 230.7 90.0001 228.2 89.6001C225.7 89.2001 223.3 88.1001 221.4 86.6001L221.3 86.5001L221.2 86.4001C219 84.1001 217.4 81.2001 216.9 78.0001C216.4 74.8001 217 71.7001 218.1 68.8001C219.1 66.0001 220.6 63.3001 222.2 60.9001C223.8 58.4001 225.6 56.1001 227.6 53.9001C228.6 52.8001 229.5 51.7001 230.6 50.7001C231.1 50.2001 231.6 49.7001 232.1 49.1001L232.9 48.3001L233.7 47.6001C235.9 45.7001 238 43.8001 240.5 42.2001C241.7 41.4001 242.8 40.4001 244.1 39.7001L247.9 37.5001C249.1 36.7001 250.5 36.2001 251.8 35.5001C253.1 34.9001 254.4 34.2001 255.8 33.8001L259.9 32.3001L264.2 31.2001C265.6 30.8001 267.1 30.7001 268.5 30.4001C269.9 30.2001 271.4 29.9001 272.9 30.0001C274.4 30.0001 275.8 29.9001 277.3 29.9001L281.7 30.3001C283.2 30.4001 284.6 30.8001 286 31.1001C286.7 31.3001 287.4 31.4001 288.1 31.6001L290.2 32.3001L292.3 33.0001L293.3 33.4001L294.3 33.9001L298.2 35.8001C299.5 36.5001 300.7 37.3001 301.9 38.1001C302.5 38.5001 303.1 38.9001 303.7 39.3001L305.4 40.7001C306.5 41.6001 307.7 42.5001 308.7 43.5001L311.7 46.6001C312.8 47.6001 313.6 48.7001 314.5 49.9001L317.2 53.3001L314.4 50.0001C313.5 48.9001 312.6 47.8001 311.5 46.8001L308.4 43.8001C307.3 42.9001 306.1 42.0001 305 41.1001L303.3 39.8001C302.7 39.4001 302.1 39.1001 301.5 38.7001C300.3 38.0001 299.1 37.2001 297.8 36.5001L293.9 34.7001L292.9 34.3001L291.9 34.0001L289.9 33.4001L287.9 32.8001C287.2 32.6001 286.5 32.5001 285.8 32.4001C284.4 32.2001 283 31.8001 281.6 31.7001L277.3 31.4001C275.9 31.4001 274.5 31.5001 273 31.6001C271.6 31.6001 270.2 31.9001 268.8 32.1001C267.4 32.4001 266 32.5001 264.6 32.9001L260.5 34.0001L256.5 35.6001C255.2 36.1001 253.9 36.8001 252.6 37.4001C251.4 38.1001 250 38.6001 248.8 39.4001L245.2 41.7001C244 42.4001 242.9 43.4001 241.8 44.2001C239.5 45.8001 237.4 47.8001 235.2 49.7001L234.4 50.4001L233.7 51.1001C233.2 51.6001 232.7 52.1001 232.2 52.6001C231.2 53.6001 230.3 54.7001 229.4 55.8001C227.6 58.0001 225.9 60.2001 224.3 62.6001C222.8 64.9001 221.5 67.4001 220.6 70.0001C219.7 72.6001 219.2 75.3001 219.7 77.8001C220.1 80.3001 221.4 82.6001 223.2 84.5001L223.1 84.4001C224.7 85.6001 226.5 86.4001 228.5 86.7001C230.5 87.0001 232.5 86.7001 234.5 86.2001C238.5 85.1001 242.3 82.8001 245.7 80.1001C246.5 79.4001 247.4 78.7001 248.1 78.0001L249.3 76.8001L250.2 75.6001C250.8 74.7001 251.6 74.0001 252.1 73.0001L253.8 70.3001C255.8 66.5001 257.1 62.4001 257.8 58.1001C258.6 53.9001 258.5 49.5001 258 45.2001C257.5 40.9001 256.4 36.7001 254.7 32.7001C253 28.7001 250.8 24.9001 248.2 21.7001C245.2 18.3001 242.3 15.3001 238.8 12.7001C235.3 10.2001 231.5 8.1001 227.5 6.8001C223.4 5.5001 219.2 4.9001 214.9 5.0001C206.3 5.1001 197.8 7.7001 189.9 11.6001C182.1 15.5001 174.9 20.7001 168.4 26.7001L149.4 45.8001C142.9 52.1001 136.3 58.3001 129.1 63.9001C121.9 69.5001 114.1 74.6001 105.5 77.9001C96.9001 81.3001 87.3001 82.8001 78.0001 81.2001C73.4001 80.4001 68.9001 78.8001 64.7001 76.7001C63.7001 76.2001 62.6001 75.7001 61.6001 75.1001L58.6001 73.2001C57.6001 72.6001 56.7001 71.9001 55.8001 71.2001L54.4001 70.2001L54.1001 70.0001L53.7001 69.7001L53.3001 69.0001C45.9001 63.0001 41.0001 54.8001 37.7001 46.2001C36.1001 41.8001 35.1001 37.3001 34.8001 32.6001C34.5001 28.0001 34.9001 23.2001 36.5001 18.7001C36.8001 17.6001 37.4001 16.5001 37.9001 15.4001C38.2001 14.9001 38.4001 14.3001 38.7001 13.8001L39.6001 12.4001L40.5001 11.0001L40.7001 10.7001C40.7001 10.7001 41.0001 10.4001 40.9001 10.5001L41.0001 10.4001L41.2001 10.2001L41.8001 9.6001C42.2001 9.2001 42.6001 8.8001 43.1001 8.4001C43.5001 8.0001 44.0001 7.6001 44.5001 7.3001C46.4001 5.8001 48.6001 4.6001 51.2001 4.2001C52.5001 4.0001 53.8001 4.1001 55.1001 4.5001C56.4001 4.9001 57.5001 5.6001 58.5001 6.4001C60.4001 8.1001 61.7001 10.3001 62.5001 12.5001C63.3001 14.8001 63.7001 17.1001 63.7001 19.5001C63.8001 24.2001 62.5001 28.9001 59.9001 32.9001L60.0001 32.8001C59.3001 34.1001 58.6001 35.5001 57.8001 36.8001C57.0001 38.1001 56.2001 39.4001 55.2001 40.5001C54.3001 41.7001 53.4001 42.9001 52.3001 44.0001C51.3001 45.1001 50.3001 46.3001 49.2001 47.3001C48.1001 48.3001 47.1001 49.4001 45.9001 50.4001C44.8001 51.4001 43.7001 52.4001 42.5001 53.3001C41.3001 54.2001 40.2001 55.2001 39.0001 56.0001C37.8001 56.9001 36.6001 57.8001 35.3001 58.6001L31.5001 61.0001L27.7001 63.0001L23.7001 65.0001C22.3001 65.6001 20.9001 66.1001 19.6001 66.7001C18.2001 67.3001 16.8001 67.7001 15.4001 68.1001C14.0001 68.6001 12.5001 68.8001 11.1001 69.2001C9.70007 69.5001 8.20007 69.7001 6.70007 69.9001C5.20007 70.2001 3.70007 70.2001 2.20007 70.2001Z" fill="#4C5151"/>
</svg>
