<svg width="338" height="86" viewBox="0 0 338 86" fill="none" xmlns="http://www.w3.org/2000/svg">
<path d="M2.39612 41.206C4.09158 40.3101 6.28568 40.0115 8.1806 40.2106C15.6606 41.0069 23.34 41.206 30.5208 43.1968C48.9714 48.2735 67.2225 53.9474 85.3739 59.8204C107.016 66.7884 128.857 70.7701 151.596 66.3902C159.176 64.8971 166.357 62.508 173.637 58.6259C169.648 56.1373 166.058 54.1465 162.667 51.857C152.494 44.5904 143.518 36.3284 139.23 24.1842C134.442 10.5469 142.72 0.493175 156.683 2.98173C162.966 4.0767 167.953 7.85931 172.241 13.2346C176.43 3.08128 183.71 -1.29859 192.886 0.493175C201.164 2.08585 206.649 9.75061 206.549 19.7048C206.549 31.0527 201.263 40.0115 193.484 47.5767C189.196 51.7575 184.309 55.2415 179.422 59.2232C200.964 69.1774 223.304 69.6751 245.844 67.9829C246.143 67.8833 246.343 67.8833 246.343 67.7838C250.93 67.3856 255.618 66.8879 260.206 66.4897C277.16 64.9966 294.015 65.7929 310.571 69.7746C320.943 72.1637 330.418 76.0458 337.1 84.5069C337.1 84.6064 337.1 84.8055 337.1 85.0046C336.302 85.0046 335.504 84.9051 334.706 84.9051C328.223 78.1362 320.245 73.4577 310.172 71.1682C289.028 66.3902 258.71 67.9829 237.466 69.6751C237.466 69.6751 237.466 69.6751 237.566 69.6751C234.275 69.9737 230.884 70.1728 227.593 70.2723C210.838 70.6705 194.482 67.7838 178.923 61.0149C177.726 60.5172 175.732 60.6167 174.535 61.214C161.47 67.6842 147.507 70.1728 133.146 70.3719C116.191 70.571 100.035 66.6888 84.0773 61.3135C62.8342 54.1465 41.8903 45.984 19.4504 43.0973C14.1646 42.4005 9.17795 42.2014 4.68994 45.6854C3.99182 46.1831 2.69531 46.5813 1.09961 45.1877C0.401459 43.2964 1.59824 41.7037 2.39612 41.206ZM177.527 56.5355C190.393 48.6717 200.865 38.817 203.856 23.1888C205.352 15.325 201.762 7.56068 195.379 4.27578C189.894 1.38906 184.608 2.78265 180.12 6.06755C175.832 9.15336 173.238 13.4337 175.333 19.1076C175.532 19.6053 175.433 20.2026 175.433 20.7003C175.433 21.0984 175.233 21.3971 175.133 21.7952C174.834 21.9943 174.435 22.1934 174.136 22.2929C172.441 19.9039 170.745 17.5149 169.05 15.1259C166.157 10.8456 162.567 7.46114 157.481 6.06755C152.295 4.57441 147.109 4.67395 143.119 8.75519C139.429 12.6373 139.23 17.4154 140.825 22.3925C144.615 33.6408 152.394 41.8032 161.57 48.7712C165.26 51.5584 169.249 53.9474 173.239 56.2369C174.435 56.7346 176.53 57.1328 177.527 56.5355Z" fill="#4C5151"/>
</svg>
