<svg width="35" height="26" viewBox="0 0 35 26" fill="none" xmlns="http://www.w3.org/2000/svg">
<path d="M33.6004 6.40947C34.1004 10.0095 34.2004 13.6095 34.1004 17.3095C34.1004 18.7095 34.0004 20.0095 34.0004 21.4095C33.9004 23.3095 32.7004 24.5095 31.0004 24.9095C30.2004 25.1095 29.4004 25.2095 28.6004 25.2095C24.0004 25.5095 19.4004 25.6095 14.8004 25.5095C13.0004 25.5095 11.2004 25.4095 9.40039 25.3095C8.10039 25.2095 6.80039 25.1095 5.50039 24.9095C4.80039 24.8095 4.10039 24.5095 3.40039 24.1095C2.70039 23.7095 2.20039 23.1095 2.00039 22.2095C1.60039 20.7095 1.40039 19.1095 1.30039 17.6095C1.00039 14.6095 0.900391 11.6095 0.900391 8.60947C1.00039 7.50947 1.10039 6.50947 1.10039 5.40947C1.20039 4.20947 1.80039 3.20947 2.80039 2.50947C3.70039 1.90947 4.70039 1.60947 5.70039 1.50947C7.40039 1.40947 9.00039 1.30947 10.7004 1.20947C13.1004 1.10947 15.6004 1.00947 18.0004 0.909473C21.0004 0.809473 23.9004 0.809473 26.9004 0.709473C27.2004 0.709473 27.5004 0.709473 27.7004 0.709473C29.2004 0.709473 30.4004 1.20947 31.5004 2.20947C32.7004 3.40947 33.3004 4.80947 33.6004 6.40947ZM33.6004 18.8095C33.7004 16.0095 33.7004 13.1095 33.5004 10.3095C33.4004 9.10947 33.3004 7.90947 33.1004 6.70947C33.0004 5.70947 32.7004 4.80947 32.2004 4.00947C31.1004 2.20947 29.6004 1.20947 27.5004 1.30947C24.5004 1.40947 21.4004 1.40947 18.7004 1.40947C16.1004 1.50947 13.8004 1.60947 11.5004 1.70947C9.60039 1.70947 7.80039 1.90947 6.00039 2.00947C5.00039 2.00947 4.00039 2.30947 3.20039 2.90947C2.30039 3.50947 1.70039 4.30947 1.70039 5.40947C1.60039 6.50947 1.60039 7.60947 1.60039 8.70947C1.60039 12.2095 1.70039 15.7095 2.20039 19.1095C2.30039 20.2095 2.60039 21.2095 2.80039 22.3095C2.90039 22.8095 3.30039 23.2095 3.70039 23.6095C4.30039 24.0095 5.00039 24.3095 5.80039 24.4095C7.20039 24.6095 8.50039 24.7095 9.90039 24.8095C11.5004 24.9095 13.1004 24.9095 14.8004 25.0095C18.9004 25.1095 23.0004 25.0095 27.1004 24.8095C28.2004 24.7095 29.2004 24.6095 30.3004 24.5095C30.9004 24.4095 31.5004 24.3095 32.1004 24.0095C33.0004 23.5095 33.5004 22.8095 33.6004 21.7095C33.5004 20.7095 33.5004 19.7095 33.6004 18.8095Z" fill="#27354C"/>
<path d="M26.3008 12.1095C26.3008 12.2095 26.2008 12.3095 26.1008 12.4095C25.9008 12.5095 25.8008 12.6095 25.6008 12.7095C22.2008 14.3095 18.8008 16.0095 15.4008 17.6095C15.3008 17.6095 15.3008 17.7095 15.2008 17.7095C14.9008 17.8095 14.8008 17.7095 14.7008 17.4095C14.6008 16.8095 14.5008 16.3095 14.4008 15.7095C14.0008 13.5095 13.7008 11.3095 13.3008 9.20952C13.3008 9.10952 13.3008 8.90952 13.3008 8.80952C13.3008 8.60952 13.4008 8.50952 13.7008 8.50952C13.8008 8.50952 13.8008 8.50952 13.9008 8.60952C17.8008 9.60952 21.6008 10.7095 25.5008 11.7095C25.7008 11.8095 26.0008 11.8095 26.2008 11.9095C26.2008 11.9095 26.3008 12.0095 26.3008 12.1095ZM15.2008 17.1095C16.4008 16.6095 24.9008 12.4095 25.3008 12.2095C21.5008 11.2095 17.7008 10.2095 13.9008 9.10952C14.1008 10.1095 14.2008 10.9095 14.3008 11.8095C14.4008 12.7095 14.6008 13.6095 14.7008 14.5095C14.9008 15.4095 15.0008 16.2095 15.2008 17.1095Z" fill="#27354C"/>
</svg>
