<svg xmlns="http://www.w3.org/2000/svg" class="ni-icon ni-icon-pt" viewBox="0 0 16 20"><path d="M8.83 0C3.397 0 .657 3.913.657 7.177c0 1.976.745 3.734 2.342 4.39.262.107.497.003.573-.288.053-.202.178-.71.233-.922.077-.288.047-.39-.164-.64-.46-.546-.755-1.253-.755-2.254 0-2.903 2.162-5.502 5.63-5.502 3.07 0 4.758 1.885 4.758 4.403 0 3.312-1.46 6.108-3.625 6.108-1.197 0-2.092-.994-1.805-2.213.344-1.455 1.01-3.026 1.01-4.076 0-.94-.503-1.725-1.543-1.725-1.223 0-2.205 1.27-2.205 2.973 0 1.085.365 1.818.365 1.818l-1.47 6.26c-.438 1.859-.067 4.137-.035 4.367.018.136.192.168.271.065.113-.147 1.57-1.954 2.065-3.76.14-.51.804-3.157.804-3.157.397.761 1.559 1.432 2.793 1.432 3.676 0 6.17-3.367 6.17-7.874C16.069 3.174 13.196 0 8.83 0z"/></svg>