<svg xmlns="http://www.w3.org/2000/svg" class="ni-icon ni-icon-tw" viewBox="0 0 20 16"><path d="M20.002 1.886a8.658 8.658 0 0 1-2.363.638c.85-.5 1.5-1.286 1.804-2.234a8.272 8.272 0 0 1-2.601.978 4.139 4.139 0 0 0-2.996-1.279c-2.272 0-4.1 1.817-4.1 4.044 0 .32.028.628.095.922A11.669 11.669 0 0 1 1.386.726 4.025 4.025 0 0 0 .824 2.77c0 1.4.732 2.64 1.822 3.36a4.094 4.094 0 0 1-1.853-.499v.045c0 1.964 1.422 3.596 3.287 3.972-.334.09-.698.133-1.076.133a3.68 3.68 0 0 1-.776-.069 4.134 4.134 0 0 0 3.833 2.816 8.32 8.32 0 0 1-5.087 1.724 7.72 7.72 0 0 1-.981-.055 11.673 11.673 0 0 0 6.293 1.814c7.548 0 11.675-6.162 11.675-11.504 0-.179-.006-.351-.015-.522a8.118 8.118 0 0 0 2.056-2.099z"/></svg>